<?xml version='1.0' encoding='utf-8'?>
<svg xmlns="http://www.w3.org/2000/svg" width="5000" zoomAndPan="magnify" viewBox="0 0 3750 3749.999967" height="5000" preserveAspectRatio="xMidYMid meet" version="1.0"><defs><clipPath id="id1"><path d="M 1612 580 L 3017 580 L 3017 3652.183594 L 1612 3652.183594 Z M 1612 580 " clip-rule="nonzero"/></clipPath><clipPath id="id2"><path d="M 1607.980469 519 L 3373.820312 519 L 3373.820312 1706 L 1607.980469 1706 Z M 1607.980469 519 " clip-rule="nonzero"/></clipPath></defs><rect x="-375" width="4500" fill="#ffffff" y="-374.999997" height="4499.99996" fill-opacity="1"/><rect x="-375" width="4500" fill="#040a24" y="-374.999997" height="4499.99996" fill-opacity="1"/><rect x="-375" width="4500" fill="#ffffff" y="-374.999997" height="4499.99996" fill-opacity="1"/><rect x="-375" width="4500" fill="#040a24" y="-374.999997" height="4499.99996" fill-opacity="1"/><g clip-path="url(#id1)"><path fill="#040a24" d="M 2520.953125 3534.863281 L 2459.273438 3506.46875 C 2458.242188 3506.003906 2457.160156 3505.5625 2456.082031 3505.167969 L 2244.265625 3428.566406 C 2217.246094 3418.792969 2205.921875 3457.867188 2206.683594 3486.578125 C 2206.707031 3487.042969 2217.144531 3525.800781 2251.144531 3563.277344 C 2298.773438 3615.785156 2354.851562 3652.109375 2425.742188 3652.183594 C 2459.863281 3652.210938 2494.574219 3649.703125 2518.105469 3641.597656 C 2534.34375 3636 2544.855469 3620.257812 2544.855469 3603.089844 L 2544.855469 3572.144531 C 2544.855469 3556.128906 2535.546875 3541.542969 2520.953125 3534.863281 Z M 1689.78125 2317.082031 C 1682.460938 2305.8125 1667.648438 2302.152344 1655.90625 2308.707031 L 1625.914062 2325.433594 C 1612.917969 2332.703125 1608.839844 2349.503906 1617.070312 2361.882812 C 1645.738281 2428.585938 1687.175781 2490.5 1740.652344 2547.921875 C 1749.273438 2560.890625 1767.328125 2563.222656 1778.949219 2552.882812 L 1803.265625 2531.296875 C 1812.699219 2522.894531 1814.589844 2508.824219 1807.710938 2498.238281 Z M 2787.179688 2236.921875 C 2758.046875 2241.539062 2629.578125 2241.929688 2528.175781 2241.488281 L 2536.160156 2268.308594 L 2431.566406 3269.589844 L 2243.28125 3277.425781 C 2107.320312 2548.046875 2215.402344 2336.265625 2215.402344 2336.265625 C 2203.023438 2330.691406 2191.328125 2324.992188 2180.175781 2319.21875 L 2102.089844 2375.488281 C 2102.089844 2375.488281 2021.027344 2310.132812 1958.289062 2168.960938 L 2004.59375 2140.351562 C 1976.246094 2047.097656 2021.984375 1956.152344 2063.570312 1897.96875 C 2062.636719 1885.199219 2062.121094 1864.664062 2061.875 1838.707031 C 2058.214844 1838.707031 2054.753906 1838.410156 2051.535156 1837.820312 C 1917.6875 1812.625 1868.140625 1123.175781 2026.921875 1042.941406 C 2101.5 981.664062 2211.519531 933.527344 2345.714844 911.371094 C 2342.347656 900.515625 2339.351562 889.441406 2336.675781 878.289062 C 2307.886719 892.757812 2289.09375 826.347656 2304.003906 803.480469 C 2308.621094 796.382812 2315.058594 794.46875 2321.738281 795.179688 C 2313.363281 729.039062 2313.902344 676.164062 2313.902344 676.164062 C 2326.972656 619.96875 2377.96875 600.347656 2483.863281 583.375 C 2589.757812 566.378906 2639.425781 636.964844 2643.355469 758.535156 C 2643.457031 761.804688 2643.578125 765.117188 2643.699219 768.457031 C 2648 769.320312 2651.980469 771.675781 2655.125 776.464844 C 2665.441406 792.304688 2659.59375 829.046875 2645.445312 845.332031 C 2645.199219 872.101562 2643.527344 898.796875 2638.691406 923.703125 C 2731.886719 953.027344 2822.085938 1002.464844 2875.90625 1043.875 C 2907.738281 1064.011719 2994.894531 1127.277344 3006.808594 1222.570312 C 3021.792969 1342.398438 3002.804688 1556.070312 2967.113281 1673.492188 C 2990.496094 1698.394531 3009.191406 1736.242188 3014.644531 1793.808594 C 3038.175781 2042.160156 2836.847656 2229.085938 2787.179688 2236.921875 " fill-opacity="1" fill-rule="nonzero"/></g><g clip-path="url(#id2)"><path fill="#040a24" d="M 2314.761719 760.722656 L 2312.160156 753.476562 C 2311.421875 750.972656 2310.515625 748.589844 2309.605469 746.230469 C 2308.648438 743.679688 2307.714844 741.269531 2307 738.644531 C 2304.890625 732.207031 2303.441406 725.527344 2302.015625 719.042969 C 2301.300781 715.730469 2300.589844 712.414062 2299.804688 709.292969 C 2297.742188 698.316406 2296.144531 689.128906 2296.046875 679.527344 C 2295.996094 674.46875 2296.710938 669.457031 2297.46875 664.765625 L 2298.648438 657.128906 L 2299.164062 653.371094 C 2299.582031 650.792969 2298.648438 648.53125 2295.949219 645.5625 L 2294.792969 644.554688 L 2293.417969 644.554688 C 2289.535156 644.554688 2286.835938 645.878906 2285.457031 648.484375 C 2284.695312 649.808594 2284.007812 651.160156 2283.371094 652.5625 C 2282.144531 655.238281 2281.109375 658.109375 2280.300781 661.179688 C 2278.925781 666.902344 2277.917969 672.652344 2277.277344 678.175781 C 2275.410156 690.652344 2275.167969 702.417969 2276.542969 713.148438 C 2277.941406 723.488281 2281.332031 734.394531 2286.882812 746.332031 C 2289.019531 751.4375 2291.746094 756.203125 2294.375 760.820312 L 2294.867188 761.65625 C 2296.019531 763.570312 2297.398438 765.363281 2298.773438 767.132812 L 2300.050781 768.804688 L 2302.554688 771.898438 C 2303.855469 773.789062 2305.945312 774.769531 2308.722656 774.769531 C 2309.53125 774.769531 2310.464844 774.695312 2311.546875 774.5 L 2312.726562 774.304688 L 2313.484375 773.371094 C 2315.378906 771.011719 2317.367188 767.84375 2316.015625 764.652344 Z M 2497.644531 536.292969 C 2498.550781 537.054688 2499.410156 537.546875 2500.371094 537.890625 L 2501.203125 538.136719 C 2501.941406 538.332031 2502.703125 538.554688 2503.242188 538.773438 C 2503.832031 539.09375 2504.421875 539.4375 2505.011719 539.757812 C 2506.730469 540.765625 2508.523438 541.769531 2510.269531 542.238281 C 2511.398438 542.679688 2512.652344 542.902344 2514.050781 542.902344 C 2515.253906 542.902344 2516.484375 542.730469 2517.710938 542.558594 L 2519.847656 542.261719 C 2520.855469 542.140625 2522.011719 541.992188 2523.191406 541.574219 C 2524 541.304688 2524.835938 540.886719 2525.792969 540.320312 L 2526.578125 539.832031 C 2528.324219 538.945312 2528.886719 536.785156 2529.722656 532.855469 C 2529.921875 529.292969 2529.945312 527.109375 2528.519531 525.78125 L 2527.785156 524.972656 C 2527.09375 524.308594 2526.433594 523.671875 2525.816406 523.277344 C 2524.738281 522.46875 2523.679688 522.023438 2522.746094 521.65625 L 2520.683594 520.746094 C 2518.867188 519.9375 2516.804688 519.054688 2513.855469 519.054688 C 2513.804688 519.054688 2513.757812 519.054688 2513.734375 519.054688 C 2511.644531 519.054688 2509.65625 519.542969 2507.738281 520.011719 C 2507.074219 520.183594 2506.414062 520.355469 2505.96875 520.453125 C 2505.183594 520.550781 2504.398438 520.550781 2503.613281 520.550781 L 2502.628906 520.574219 C 2501.695312 520.648438 2500.738281 520.894531 2499.410156 521.507812 L 2498.453125 522.050781 C 2496.929688 522.910156 2496.339844 524.554688 2495.40625 528.679688 C 2495.261719 532.339844 2495.382812 534.058594 2496.613281 535.289062 Z M 2423.753906 552.824219 C 2428.25 551.472656 2432.671875 549.949219 2437.09375 548.453125 C 2441.734375 546.855469 2446.378906 545.257812 2451.046875 543.882812 C 2455.613281 542.65625 2460.230469 541.5 2464.921875 540.394531 C 2465.882812 540.148438 2466.816406 539.878906 2467.773438 539.609375 C 2469.125 539.242188 2470.476562 538.847656 2472 538.503906 L 2475.265625 537.621094 C 2478.777344 537.007812 2480.300781 533.617188 2481.234375 530.742188 L 2481.601562 529.6875 L 2481.183594 528.65625 C 2480.203125 526.027344 2478.433594 522.539062 2474.75 522.34375 L 2470.84375 521.804688 C 2468.78125 521.507812 2466.617188 521.386719 2463.992188 521.386719 L 2461.753906 521.386719 C 2457.480469 521.386719 2453.328125 521.953125 2449.300781 522.46875 L 2446.523438 522.835938 C 2436.429688 524.457031 2425.742188 526.398438 2415.84375 530.597656 C 2405.773438 534.597656 2396.242188 540.050781 2388.113281 544.816406 L 2383.542969 547.371094 C 2380.59375 548.992188 2377.671875 550.636719 2374.773438 552.355469 C 2372.660156 553.609375 2370.5 555.105469 2368.042969 557.023438 L 2365.09375 559.550781 C 2362.269531 561.984375 2362.566406 565.570312 2363.03125 568.050781 L 2363.253906 569.277344 L 2364.261719 570.015625 C 2366.570312 571.683594 2368.484375 572.472656 2370.328125 572.472656 C 2371.089844 572.472656 2371.800781 572.324219 2372.515625 572.078125 L 2376.101562 570.777344 C 2378.484375 569.84375 2380.816406 568.886719 2383.125 567.78125 C 2386.6875 566.011719 2391.402344 563.726562 2396.195312 561.8125 C 2402.359375 559.503906 2408.746094 557.515625 2414.9375 555.597656 C 2417.90625 554.664062 2420.878906 553.757812 2423.753906 552.824219 Z M 2027.660156 1079.632812 L 2026.011719 1079.191406 C 2025.078125 1078.945312 2024.171875 1078.824219 2023.335938 1078.824219 C 2020.511719 1078.824219 2018.765625 1080.199219 2017.6875 1081.230469 L 2013.609375 1085.183594 L 2012.28125 1086.535156 C 2011.398438 1087.417969 2010.511719 1088.351562 2009.507812 1089.457031 L 2006.089844 1093.976562 C 2004.542969 1095.988281 2003.070312 1098.078125 2001.597656 1100.191406 L 1999.261719 1103.480469 L 1993.292969 1113.28125 C 1983.984375 1128.457031 1977.328125 1142.457031 1972.953125 1155.988281 C 1968.386719 1169.226562 1965.265625 1184.210938 1963.105469 1203.195312 C 1962.320312 1210.882812 1961.558594 1219.085938 1961.582031 1227.214844 C 1961.53125 1230.871094 1961.628906 1234.875 1961.972656 1239.492188 L 1962.515625 1245.3125 C 1962.710938 1248.949219 1964.480469 1251.652344 1967.84375 1253.617188 L 1969.195312 1254.402344 L 1970.449219 1253.492188 C 1973.640625 1251.28125 1975.191406 1248.777344 1975.4375 1245.585938 L 1976.171875 1239.933594 L 1977.671875 1228.710938 C 1978.777344 1220.851562 1979.785156 1213.730469 1981.0625 1206.535156 C 1983.542969 1192.730469 1987.375 1179.148438 1991.058594 1165.984375 L 1991.722656 1163.628906 C 1996.117188 1148.128906 2001.03125 1134.820312 2006.730469 1122.980469 L 2011.691406 1113.550781 L 2013.730469 1110.480469 C 2015.058594 1108.492188 2016.382812 1106.5 2017.660156 1104.390625 C 2019.257812 1101.664062 2021.074219 1099.132812 2022.96875 1096.457031 L 2023.582031 1095.546875 L 2026.578125 1090.980469 C 2028.320312 1088.328125 2028.765625 1085.40625 2028.027344 1081.5 Z M 1622.964844 1165.714844 C 1627.929688 1170.136719 1636.328125 1173.917969 1644.777344 1172.175781 C 1649.003906 1171.460938 1652.371094 1169.523438 1655.511719 1167.730469 C 1657.699219 1166.304688 1659.859375 1164.855469 1662.023438 1163.578125 C 1666.320312 1161.023438 1670.667969 1158.886719 1674.550781 1157.980469 C 1678.457031 1157.070312 1681.453125 1157.292969 1684.546875 1158.839844 C 1687.667969 1160.410156 1690.859375 1163.578125 1693.660156 1167.359375 C 1696.609375 1171.117188 1698.992188 1175.464844 1701.546875 1180.109375 C 1707.046875 1190.03125 1713.3125 1201.253906 1726.183594 1208.058594 C 1732.546875 1211.296875 1739.667969 1212.230469 1745.738281 1212.132812 C 1751.902344 1212.085938 1757.480469 1211.371094 1762.90625 1210.636719 L 1770.964844 1209.578125 C 1773.445312 1209.457031 1775.679688 1209.039062 1778.039062 1209.261719 C 1782.753906 1209.308594 1787.472656 1210.265625 1792.015625 1211.960938 C 1801.152344 1215.570312 1809.015625 1221.074219 1820.214844 1225.789062 C 1817.808594 1213.433594 1807.835938 1205.109375 1796.804688 1200.269531 C 1791.277344 1197.742188 1785.234375 1196.023438 1779.019531 1195.480469 C 1775.949219 1195.015625 1772.707031 1195.261719 1769.734375 1195.261719 L 1761.457031 1195.726562 C 1750.527344 1196.367188 1740.210938 1197.398438 1733.773438 1193.46875 C 1727.09375 1189.734375 1721.492188 1181.140625 1716.652344 1172.125 C 1713.976562 1167.1875 1711.101562 1161.910156 1707.320312 1157.019531 C 1703.632812 1152.109375 1699.113281 1147.074219 1692.457031 1143.5625 C 1685.824219 1139.953125 1677.226562 1139.460938 1670.59375 1141.179688 C 1663.816406 1142.824219 1658.3125 1145.75 1653.203125 1148.695312 C 1650.648438 1150.195312 1648.242188 1151.765625 1645.859375 1153.335938 C 1644.214844 1154.171875 1642.863281 1155.082031 1641.585938 1155.203125 C 1639.203125 1155.742188 1636.476562 1155.179688 1633.011719 1152.796875 C 1629.648438 1150.511719 1626.0625 1147.148438 1622.71875 1143.390625 C 1619.257812 1139.558594 1617.414062 1135.015625 1609.578125 1132.511719 C 1605.96875 1140.097656 1609.285156 1145.234375 1611.738281 1150.5625 C 1614.417969 1155.890625 1617.734375 1161.222656 1622.964844 1165.714844 Z M 1810.144531 1320.394531 C 1804.078125 1320.640625 1797.886719 1321.84375 1792.113281 1324.175781 C 1789.167969 1325.132812 1786.367188 1326.804688 1783.714844 1328.128906 L 1776.539062 1332.304688 C 1767.082031 1337.804688 1758.339844 1343.382812 1750.820312 1342.792969 C 1743.183594 1342.496094 1734.289062 1337.339844 1725.914062 1331.496094 C 1721.296875 1328.300781 1716.359375 1324.886719 1710.757812 1322.210938 C 1705.253906 1319.507812 1698.96875 1317.078125 1691.449219 1316.929688 C 1683.886719 1316.710938 1676 1320.148438 1670.839844 1324.691406 C 1665.535156 1329.210938 1661.949219 1334.292969 1658.730469 1339.230469 C 1657.109375 1341.734375 1655.683594 1344.191406 1654.261719 1346.699219 C 1653.179688 1348.195312 1652.394531 1349.59375 1651.3125 1350.308594 C 1649.421875 1351.855469 1646.71875 1352.566406 1642.566406 1352.027344 C 1638.539062 1351.488281 1633.824219 1350.109375 1629.132812 1348.269531 C 1624.316406 1346.425781 1620.609375 1343.210938 1612.5 1344.511719 C 1612.699219 1352.910156 1617.980469 1355.980469 1622.597656 1359.617188 C 1627.363281 1363.175781 1632.742188 1366.445312 1639.425781 1368.089844 C 1645.859375 1369.757812 1655.070312 1369.339844 1661.828125 1363.988281 C 1665.265625 1361.457031 1667.402344 1358.191406 1669.390625 1355.171875 C 1670.695312 1352.910156 1671.972656 1350.625 1673.324219 1348.539062 C 1676 1344.339844 1678.921875 1340.460938 1681.945312 1337.878906 C 1685.039062 1335.300781 1687.816406 1334.148438 1691.277344 1334.121094 C 1694.742188 1334.121094 1699.039062 1335.496094 1703.265625 1337.632812 C 1707.566406 1339.648438 1711.667969 1342.449219 1716.039062 1345.421875 C 1725.445312 1351.78125 1736.082031 1359 1750.648438 1359.222656 C 1757.796875 1359.273438 1764.578125 1356.863281 1769.957031 1354.039062 C 1775.410156 1351.214844 1780.054688 1348.046875 1784.574219 1344.953125 L 1791.277344 1340.386719 C 1793.441406 1339.132812 1795.257812 1337.757812 1797.46875 1336.898438 C 1801.695312 1334.808594 1806.335938 1333.53125 1811.152344 1332.992188 C 1820.929688 1332.085938 1830.433594 1333.433594 1842.542969 1332.574219 C 1834.832031 1322.652344 1822.15625 1319.730469 1810.144531 1320.394531 Z M 1794.570312 1473.207031 C 1789.140625 1475.980469 1784.03125 1479.664062 1779.757812 1484.183594 C 1777.472656 1486.296875 1775.65625 1488.996094 1773.789062 1491.304688 L 1769.023438 1498.109375 C 1762.761719 1507.050781 1757.136719 1515.769531 1750.058594 1518.371094 C 1742.984375 1521.316406 1732.765625 1520.359375 1722.695312 1518.542969 C 1717.167969 1517.5625 1711.25 1516.527344 1705.058594 1516.457031 C 1698.917969 1516.308594 1692.1875 1516.726562 1685.285156 1519.746094 C 1678.332031 1522.71875 1672.609375 1529.128906 1669.835938 1535.414062 C 1666.910156 1541.726562 1665.78125 1547.867188 1664.921875 1553.6875 C 1664.503906 1556.636719 1664.257812 1559.484375 1664.011719 1562.332031 C 1663.644531 1564.152344 1663.496094 1565.746094 1662.808594 1566.851562 C 1661.753906 1569.0625 1659.617188 1570.832031 1655.613281 1572.058594 C 1651.730469 1573.285156 1646.867188 1574 1641.832031 1574.269531 C 1636.671875 1574.613281 1631.957031 1573.261719 1625.152344 1577.832031 C 1628.835938 1585.371094 1634.929688 1585.960938 1640.652344 1587.335938 C 1646.472656 1588.5625 1652.714844 1589.277344 1659.492188 1587.972656 C 1666.027344 1586.820312 1674.207031 1582.570312 1678.085938 1574.882812 C 1680.175781 1571.148438 1680.742188 1567.269531 1681.28125 1563.683594 C 1681.527344 1561.105469 1681.722656 1558.527344 1682.089844 1556.046875 C 1682.753906 1551.085938 1683.761719 1546.34375 1685.457031 1542.734375 C 1687.175781 1539.097656 1689.214844 1536.914062 1692.335938 1535.441406 C 1695.503906 1533.964844 1699.972656 1533.449219 1704.714844 1533.597656 C 1709.457031 1533.621094 1714.34375 1534.457031 1719.578125 1535.34375 C 1730.777344 1537.160156 1743.453125 1539.246094 1756.789062 1533.378906 C 1763.277344 1530.40625 1768.433594 1525.417969 1772.144531 1520.605469 C 1775.925781 1515.742188 1778.824219 1510.929688 1781.625 1506.214844 L 1785.800781 1499.261719 C 1787.25 1497.226562 1788.308594 1495.210938 1789.953125 1493.492188 C 1792.898438 1489.832031 1796.585938 1486.761719 1800.734375 1484.234375 C 1809.261719 1479.320312 1818.445312 1476.570312 1829.082031 1470.726562 C 1817.90625 1464.929688 1805.183594 1467.582031 1794.570312 1473.207031 Z M 3370.011719 1521.246094 C 3367.359375 1515.914062 3364.066406 1510.609375 3358.808594 1506.089844 C 3353.847656 1501.695312 3345.445312 1497.914062 3336.996094 1499.65625 C 3332.773438 1500.34375 3329.40625 1502.308594 3326.261719 1504.101562 C 3324.078125 1505.5 3321.914062 1506.976562 3319.753906 1508.226562 C 3315.453125 1510.78125 3311.105469 1512.917969 3307.25 1513.828125 C 3303.320312 1514.734375 3300.324219 1514.515625 3297.226562 1512.992188 C 3294.109375 1511.421875 3290.941406 1508.253906 3288.113281 1504.445312 C 3285.191406 1500.710938 3282.785156 1496.367188 3280.230469 1491.699219 C 3274.726562 1481.800781 3268.464844 1470.578125 3255.59375 1463.773438 C 3249.230469 1460.507812 3242.105469 1459.597656 3236.039062 1459.671875 C 3229.875 1459.722656 3224.296875 1460.433594 3218.867188 1461.171875 L 3210.8125 1462.226562 C 3208.332031 1462.375 3206.09375 1462.792969 3203.738281 1462.546875 C 3199.019531 1462.496094 3194.304688 1461.539062 3189.761719 1459.871094 C 3180.621094 1456.234375 3172.761719 1450.734375 3161.5625 1446.015625 C 3163.96875 1458.394531 3173.941406 1466.722656 3184.96875 1471.558594 C 3190.496094 1474.066406 3196.539062 1475.808594 3202.753906 1476.347656 C 3205.824219 1476.816406 3209.066406 1476.570312 3212.039062 1476.570312 L 3220.316406 1476.101562 C 3231.25 1475.441406 3241.566406 1474.433594 3248 1478.363281 C 3254.683594 1482.070312 3260.308594 1490.691406 3265.121094 1499.679688 C 3267.800781 1504.617188 3270.675781 1509.898438 3274.457031 1514.808594 C 3278.140625 1519.695312 3282.660156 1524.730469 3289.292969 1528.242188 C 3295.949219 1531.878906 3304.546875 1532.371094 3311.179688 1530.625 C 3317.960938 1529.003906 3323.460938 1526.082031 3328.570312 1523.109375 C 3331.125 1521.636719 3333.535156 1520.066406 3335.917969 1518.46875 C 3337.5625 1517.660156 3338.914062 1516.75 3340.191406 1516.601562 C 3342.574219 1516.085938 3345.300781 1516.652344 3348.761719 1519.007812 C 3352.128906 1521.316406 3355.714844 1524.660156 3359.054688 1528.441406 C 3362.519531 1532.246094 3364.363281 1536.816406 3372.199219 1539.296875 C 3375.832031 1531.707031 3372.492188 1526.597656 3370.011719 1521.246094 Z M 3171.632812 1351.414062 C 3177.699219 1351.167969 3183.890625 1349.988281 3189.6875 1347.65625 C 3192.609375 1346.699219 3195.410156 1345.003906 3198.0625 1343.675781 L 3205.210938 1339.527344 C 3214.691406 1334 3223.4375 1328.425781 3230.953125 1329.039062 C 3238.59375 1329.332031 3247.484375 1334.492188 3255.863281 1340.335938 C 3260.480469 1343.527344 3265.417969 1346.941406 3271.019531 1349.59375 C 3276.519531 1352.296875 3282.808594 1354.753906 3290.324219 1354.875 C 3297.914062 1355.121094 3305.777344 1351.683594 3310.933594 1347.140625 C 3316.242188 1342.621094 3319.851562 1337.535156 3323.042969 1332.574219 C 3324.664062 1330.09375 3326.089844 1327.613281 3327.515625 1325.132812 C 3328.597656 1323.636719 3329.382812 1322.234375 3330.464844 1321.523438 C 3332.355469 1319.976562 3335.054688 1319.238281 3339.207031 1319.804688 C 3343.238281 1320.320312 3347.953125 1321.695312 3352.644531 1323.5625 C 3357.457031 1325.402344 3361.167969 1328.621094 3369.300781 1327.320312 C 3369.078125 1318.921875 3363.796875 1315.824219 3359.179688 1312.191406 C 3354.414062 1308.652344 3349.035156 1305.386719 3342.351562 1303.742188 C 3335.917969 1302.046875 3326.703125 1302.464844 3319.949219 1307.84375 C 3316.511719 1310.347656 3314.375 1313.640625 3312.382812 1316.660156 C 3311.082031 1318.894531 3309.804688 1321.179688 3308.453125 1323.265625 C 3305.777344 1327.492188 3302.851562 1331.347656 3299.832031 1333.925781 C 3296.738281 1336.503906 3293.960938 1337.660156 3290.496094 1337.683594 C 3287.035156 1337.707031 3282.734375 1336.308594 3278.511719 1334.195312 C 3274.210938 1332.183594 3270.109375 1329.382812 3265.738281 1326.386719 C 3256.351562 1320.023438 3245.691406 1312.828125 3231.125 1312.582031 C 3223.976562 1312.558594 3217.199219 1314.941406 3211.84375 1317.765625 C 3206.367188 1320.589844 3201.722656 1323.757812 3197.203125 1326.851562 L 3190.496094 1331.445312 C 3188.335938 1332.671875 3186.519531 1334.074219 3184.308594 1334.933594 C 3180.082031 1337.019531 3175.4375 1338.273438 3170.625 1338.839844 C 3160.847656 1339.722656 3151.34375 1338.371094 3139.230469 1339.230469 C 3146.945312 1349.152344 3159.621094 1352.101562 3171.632812 1351.414062 Z M 3187.207031 1198.601562 C 3192.632812 1195.824219 3197.742188 1192.167969 3202.019531 1187.648438 C 3204.300781 1185.535156 3206.121094 1182.832031 3207.988281 1180.523438 L 3212.753906 1173.722656 C 3219.015625 1164.757812 3224.640625 1156.039062 3231.714844 1153.433594 C 3238.789062 1150.511719 3249.007812 1151.46875 3259.078125 1153.289062 C 3264.605469 1154.246094 3270.527344 1155.277344 3276.71875 1155.375 C 3282.859375 1155.5 3289.589844 1155.105469 3296.492188 1152.058594 C 3303.441406 1149.113281 3309.164062 1142.703125 3311.941406 1136.414062 C 3314.863281 1130.078125 3315.996094 1123.964844 3316.855469 1118.117188 C 3317.273438 1115.171875 3317.542969 1112.320312 3317.761719 1109.472656 C 3318.132812 1107.679688 3318.277344 1106.058594 3318.96875 1104.980469 C 3320.023438 1102.769531 3322.160156 1100.976562 3326.164062 1099.746094 C 3330.046875 1098.542969 3334.910156 1097.832031 3339.945312 1097.535156 C 3345.101562 1097.191406 3349.820312 1098.570312 3356.625 1093.976562 C 3352.9375 1086.4375 3346.847656 1085.847656 3341.125 1084.472656 C 3335.300781 1083.242188 3329.0625 1082.53125 3322.285156 1083.855469 C 3315.75 1085.011719 3307.570312 1089.234375 3303.6875 1096.949219 C 3301.601562 1100.679688 3301.035156 1104.535156 3300.496094 1108.121094 C 3300.25 1110.703125 3300.054688 1113.304688 3299.683594 1115.785156 C 3299.019531 1120.722656 3298.015625 1125.460938 3296.320312 1129.070312 C 3294.597656 1132.707031 3292.5625 1134.917969 3289.441406 1136.367188 C 3286.273438 1137.839844 3281.800781 1138.378906 3277.085938 1138.207031 C 3272.320312 1138.183594 3267.433594 1137.375 3262.199219 1136.488281 C 3251 1134.648438 3238.324219 1132.558594 3224.984375 1138.429688 C 3218.5 1141.402344 3213.339844 1146.386719 3209.632812 1151.226562 C 3205.851562 1156.0625 3202.949219 1160.902344 3200.152344 1165.617188 L 3195.976562 1172.566406 C 3194.550781 1174.582031 3193.492188 1176.59375 3191.824219 1178.316406 C 3188.875 1181.972656 3185.191406 1185.070312 3181.039062 1187.574219 C 3172.539062 1192.511719 3163.328125 1195.261719 3152.691406 1201.082031 C 3163.871094 1206.878906 3176.59375 1204.226562 3187.207031 1198.601562 Z M 2701.941406 1671.332031 C 2702.015625 1669.4375 2702.457031 1667.574219 2703.488281 1665.707031 C 2703.488281 1665.707031 2694.105469 1669.585938 2681.75 1673.710938 Z M 2787.574219 1347.3125 L 2778.605469 1523.085938 C 2749.988281 1524.09375 2707.394531 1527.066406 2701.523438 1535.636719 C 2693.050781 1548.0625 2711.351562 1570.929688 2711.351562 1570.929688 C 2624.394531 1597.085938 2623.730469 1621.253906 2623.730469 1621.253906 C 2616.558594 1632.378906 2628.960938 1653.941406 2628.960938 1653.941406 C 2628.960938 1653.941406 2612.628906 1667.671875 2625.695312 1680.074219 C 2625.792969 1680.171875 2625.917969 1680.222656 2626.015625 1680.320312 L 2413.042969 1705.542969 C 2404.175781 1706.597656 2396.414062 1699.574219 2396.585938 1690.632812 L 2402.554688 1390.855469 C 2402.703125 1383.5625 2408.179688 1377.445312 2415.425781 1376.539062 L 2771.042969 1331.960938 C 2780.128906 1330.808594 2788.039062 1338.152344 2787.574219 1347.3125 " fill-opacity="1" fill-rule="nonzero"/></g><path fill="#0a65ff" d="M 2411.71875 1373.34375 L 2776.496094 1330.21875 C 2783.59375 1329.210938 2790.078125 1334.441406 2790.9375 1341.613281 C 2791.773438 1348.734375 2786.6875 1355.195312 2779.539062 1356.03125 L 2414.789062 1399.15625 C 2414.273438 1399.230469 2413.757812 1399.253906 2413.242188 1399.253906 C 2406.730469 1399.253906 2401.132812 1394.394531 2400.34375 1387.785156 C 2399.484375 1380.664062 2404.59375 1374.179688 2411.71875 1373.34375 Z M 2620.316406 1466.695312 C 2619.75 1476.25 2612.429688 1484.035156 2602.898438 1485.191406 L 2600.222656 1485.511719 C 2588.015625 1486.957031 2577.425781 1477.011719 2578.140625 1464.730469 C 2578.703125 1455.152344 2586.023438 1447.367188 2595.554688 1446.238281 L 2598.234375 1445.917969 C 2610.464844 1444.445312 2621.027344 1454.390625 2620.316406 1466.695312 Z M 2496.144531 2554.085938 C 2498.773438 2564.207031 2499.855469 2574.59375 2500.859375 2584.933594 C 2501.695312 2590.042969 2501.179688 2595.296875 2501.132812 2600.480469 L 2500.960938 2608.242188 C 2500.984375 2610.796875 2500.34375 2613.421875 2496.929688 2616.003906 C 2493.195312 2613.570312 2492.214844 2611.140625 2491.917969 2608.632812 L 2490.742188 2601.242188 C 2489.90625 2596.328125 2489.363281 2591.417969 2488.160156 2586.605469 C 2485.902344 2576.925781 2484.5 2567.203125 2481.355469 2557.84375 C 2476.199219 2538.859375 2468.09375 2520.957031 2459.324219 2503.519531 C 2450.578125 2486.054688 2440.210938 2469.183594 2427.734375 2453.808594 C 2424.613281 2449.976562 2421.175781 2446.417969 2417.90625 2442.707031 L 2407.34375 2432.269531 L 2396.4375 2422.175781 C 2394.644531 2420.457031 2392.777344 2418.8125 2390.9375 2417.164062 C 2389.070312 2415.496094 2387.546875 2413.503906 2387.105469 2409.476562 C 2390.9375 2408.199219 2393.613281 2409.011719 2395.800781 2410.363281 C 2398.035156 2411.714844 2400.296875 2413.039062 2402.433594 2414.511719 C 2406.78125 2417.363281 2410.785156 2420.652344 2414.8125 2423.917969 C 2422.648438 2430.671875 2430.019531 2437.992188 2437.140625 2445.507812 C 2451.511719 2460.414062 2464.605469 2476.945312 2474.578125 2495.386719 C 2484.648438 2513.734375 2492.042969 2533.628906 2496.144531 2554.085938 Z M 2647.460938 1028.71875 C 2650.382812 1015.238281 2651.980469 1001.457031 2652.152344 987.730469 C 2652.46875 980.851562 2652.101562 974 2651.78125 967.171875 C 2651.707031 965.234375 2651.488281 963.269531 2651.167969 961.328125 C 2651.292969 961.523438 2651.390625 961.695312 2651.511719 961.867188 C 2654.140625 965.796875 2656.574219 969.824219 2658.929688 973.902344 L 2665.882812 986.15625 L 2672.269531 998.707031 C 2680.449219 1015.582031 2686.148438 1033.609375 2689.21875 1051.90625 C 2691.160156 1061.015625 2691.332031 1070.324219 2692.238281 1079.484375 C 2691.945312 1088.71875 2692.511719 1097.929688 2690.988281 1107.066406 C 2690.347656 1111.609375 2690.152344 1116.203125 2689.195312 1120.695312 L 2686.589844 1133.148438 C 2685.953125 1131.503906 2685.335938 1129.832031 2684.625 1128.1875 C 2679.738281 1117.257812 2673.398438 1106.230469 2662.835938 1097.980469 C 2657.605469 1093.902344 2651.046875 1090.980469 2644.21875 1090.144531 C 2637.414062 1089.261719 2630.683594 1090.265625 2624.738281 1092.476562 C 2624.097656 1092.699219 2623.484375 1092.992188 2622.847656 1093.238281 C 2634.144531 1073.074219 2642.695312 1051.316406 2647.460938 1028.71875 Z M 2270.03125 1199.953125 C 2273.914062 1202.507812 2279.121094 1201.449219 2281.699219 1197.570312 C 2288.136719 1187.792969 2295.824219 1177.996094 2303.882812 1169.082031 C 2312.0625 1160.1875 2320.832031 1151.816406 2330.507812 1145.035156 C 2340.066406 1138.132812 2350.601562 1132.78125 2361.632812 1130.890625 C 2367.132812 1129.980469 2372.785156 1129.859375 2378.261719 1131.207031 C 2382.242188 1132.066406 2385.605469 1133.8125 2390.003906 1134.621094 C 2398.601562 1145.550781 2407.933594 1155.964844 2417.785156 1165.8125 L 2433.359375 1180.132812 C 2438.933594 1184.453125 2444.707031 1188.53125 2450.382812 1192.730469 L 2458.953125 1198.992188 L 2468.167969 1204.226562 L 2486.664062 1214.710938 C 2488.777344 1215.890625 2491.476562 1216.0625 2493.8125 1214.882812 L 2494.082031 1214.738281 C 2519.308594 1201.890625 2541.761719 1186.371094 2562.34375 1167.851562 C 2581.285156 1150.710938 2598.527344 1131.503906 2612.628906 1110.039062 C 2612.996094 1109.816406 2613.363281 1109.597656 2613.757812 1109.398438 C 2618.5 1107.015625 2623.289062 1104.683594 2628.175781 1103.703125 C 2637.902344 1101.222656 2646.96875 1102.988281 2653.992188 1109.128906 C 2661.140625 1115.148438 2666.324219 1124.453125 2670.132812 1134.230469 C 2673.890625 1143.957031 2676.617188 1154.785156 2678.066406 1164.929688 L 2678.089844 1165.125 C 2678.507812 1168.121094 2680.546875 1170.800781 2683.59375 1171.90625 C 2687.964844 1173.5 2692.855469 1171.21875 2694.449219 1166.820312 C 2701.253906 1148.128906 2706.953125 1128.628906 2707.765625 1108.515625 C 2708.96875 1098.542969 2707.984375 1088.5 2707.8125 1078.550781 C 2706.511719 1068.65625 2705.503906 1058.707031 2702.925781 1049.105469 C 2698.355469 1029.777344 2691.429688 1011.183594 2682.636719 993.597656 C 2678.117188 984.878906 2673.203125 976.332031 2667.480469 968.351562 C 2664.605469 964.375 2661.632812 960.46875 2658.488281 956.6875 C 2655.566406 953.003906 2652.296875 949.367188 2646.5 948.238281 C 2646.304688 947.894531 2646.183594 947.523438 2645.960938 947.179688 C 2642.816406 954.253906 2642.941406 960.8125 2642.742188 967.417969 C 2642.59375 974.023438 2642.523438 980.605469 2641.761719 987.140625 C 2640.753906 1000.253906 2638.148438 1013.125 2635.003906 1025.773438 C 2628.398438 1051.019531 2617.589844 1075.066406 2603.097656 1096.777344 C 2588.777344 1118.558594 2570.820312 1137.914062 2551.070312 1155.054688 C 2532.304688 1170.921875 2511.816406 1185.828125 2490.421875 1197.078125 L 2476.617188 1189.636719 L 2467.847656 1184.945312 L 2459.667969 1179.273438 C 2454.238281 1175.417969 2448.710938 1171.734375 2443.382812 1167.804688 L 2428.347656 1154.640625 C 2408.96875 1136.464844 2391.207031 1116.054688 2377.277344 1092.96875 C 2363.203125 1070.03125 2351.734375 1045.445312 2342.621094 1019.976562 C 2338.097656 1007.230469 2334.070312 994.3125 2330.433594 981.246094 C 2328.59375 974.714844 2326.996094 968.132812 2325.523438 961.5 C 2324.050781 954.867188 2322.207031 948.386719 2318.25 941.976562 C 2315.867188 949.171875 2316.261719 956.21875 2317.316406 963.046875 C 2318.398438 969.898438 2319.628906 976.726562 2321.125 983.480469 C 2323.828125 997.085938 2327.683594 1010.421875 2332.007812 1023.636719 C 2340.777344 1049.988281 2352.371094 1075.433594 2366.496094 1099.5 C 2370.792969 1107.1875 2375.535156 1114.628906 2380.59375 1121.851562 C 2374.160156 1119.617188 2367.132812 1118.953125 2360.355469 1119.394531 C 2346.378906 1120.351562 2333.679688 1126.296875 2322.625 1133.34375 C 2311.472656 1140.542969 2301.71875 1149.261719 2292.632812 1158.445312 C 2288.675781 1162.496094 2284.941406 1166.648438 2281.28125 1170.898438 L 2280.25 1158.226562 C 2279.882812 1147 2279.023438 1135.753906 2279.195312 1124.503906 C 2278.53125 1101.984375 2280.519531 1079.535156 2282.804688 1057.113281 C 2285.558594 1034.738281 2290.101562 1012.535156 2296.757812 990.996094 C 2299.976562 980.191406 2303.785156 969.554688 2307.761719 959.019531 C 2309.726562 953.738281 2311.765625 948.457031 2314.027344 943.300781 C 2316.3125 938.117188 2318.792969 933.257812 2318.25 926.28125 C 2311.792969 929.105469 2308.917969 934.359375 2306.214844 939.46875 C 2303.390625 944.578125 2300.8125 949.785156 2298.28125 955.015625 C 2295.847656 960.296875 2293.589844 965.652344 2291.550781 971.078125 C 2289.363281 976.480469 2287.425781 981.933594 2285.730469 987.484375 C 2278.628906 1009.589844 2272.929688 1032.132812 2268.804688 1055 C 2265.070312 1077.914062 2262.367188 1101.121094 2262.148438 1124.40625 C 2261.558594 1147.6875 2263.300781 1170.945312 2266.324219 1193.984375 C 2266.644531 1196.316406 2267.921875 1198.550781 2270.03125 1199.953125 Z M 2359.46875 940.722656 C 2357.949219 936.988281 2356.964844 932.9375 2358.339844 928.023438 C 2362.761719 930.503906 2365.144531 933.648438 2367.011719 937.136719 L 2372.859375 947.402344 L 2385.238281 967.441406 C 2393.738281 980.605469 2403.167969 993.132812 2413.660156 1004.578125 C 2424.246094 1016 2436.304688 1025.675781 2448.933594 1034.050781 C 2461.925781 1041.761719 2475.683594 1047.976562 2490.199219 1050.503906 C 2519.015625 1055.957031 2550.257812 1049.914062 2573.496094 1031.371094 C 2585.089844 1022.015625 2594.671875 1010.078125 2602.800781 997.113281 C 2606.730469 990.53125 2610.5625 983.824219 2613.832031 976.777344 C 2615.453125 973.238281 2617.023438 969.679688 2618.398438 966.042969 C 2619.75 962.382812 2621.542969 958.996094 2625.917969 955.898438 C 2628.519531 960.589844 2628.152344 964.890625 2627.023438 968.820312 C 2626.015625 972.796875 2624.8125 976.703125 2623.535156 980.605469 C 2620.929688 988.394531 2617.859375 996.082031 2613.976562 1003.421875 C 2606.363281 1018.160156 2596.121094 1031.816406 2583.273438 1043.0625 C 2570.378906 1054.289062 2554.582031 1062.390625 2537.878906 1066.566406 C 2521.152344 1071.332031 2503.660156 1070.347656 2486.761719 1067.453125 C 2469.859375 1063.742188 2454.460938 1055.980469 2440.457031 1046.796875 C 2427.019531 1036.800781 2414.738281 1025.578125 2404.300781 1012.953125 C 2393.761719 1000.402344 2384.082031 987.261719 2375.730469 973.335938 C 2371.652344 966.339844 2367.699219 959.242188 2364.359375 951.847656 Z M 2818.179688 1383.019531 L 2818.84375 1378.453125 C 2819.335938 1375.40625 2819.824219 1372.335938 2820.832031 1369.441406 C 2822.453125 1363.496094 2824.542969 1357.699219 2827.046875 1352.074219 C 2831.8125 1340.730469 2837.488281 1329.605469 2845.152344 1319.902344 C 2852.570312 1310.03125 2861.460938 1301.410156 2870.671875 1293.402344 C 2875.21875 1289.324219 2879.710938 1285.25 2884.503906 1281.464844 C 2886.957031 1279.625 2889.367188 1277.808594 2892.042969 1276.257812 C 2893.371094 1275.472656 2894.746094 1274.761719 2896.121094 1274.050781 C 2897.449219 1273.3125 2899.242188 1273.066406 2902.214844 1274.859375 C 2902.730469 1278.324219 2902.066406 1279.746094 2901.058594 1280.804688 L 2898.011719 1283.945312 C 2895.972656 1286.011719 2893.886719 1288.023438 2891.773438 1289.964844 C 2887.574219 1293.941406 2883.398438 1297.921875 2879.566406 1302.242188 C 2872.023438 1311.035156 2865.515625 1320.539062 2859.175781 1329.996094 C 2852.960938 1339.527344 2846.207031 1348.710938 2840.777344 1358.78125 C 2837.832031 1363.71875 2835.496094 1368.898438 2832.796875 1374.007812 C 2831.445312 1376.5625 2830.191406 1379.164062 2828.890625 1381.769531 L 2826.851562 1385.675781 C 2826.261719 1387 2825.058594 1388.128906 2821.152344 1388.597656 C 2818.15625 1386.214844 2817.882812 1384.519531 2818.179688 1383.019531 Z M 2246.792969 1884.878906 C 2248.144531 1881.859375 2249.347656 1881.121094 2250.503906 1881.023438 L 2253.894531 1880.652344 C 2256.152344 1880.554688 2258.4375 1880.507812 2260.671875 1880.679688 L 2274.085938 1881.859375 C 2283.074219 1882.347656 2292.164062 1882.691406 2301.105469 1884.3125 C 2310.070312 1885.738281 2318.742188 1888.785156 2327.265625 1892.148438 C 2331.515625 1893.917969 2335.839844 1895.488281 2339.894531 1897.871094 C 2341.90625 1899.023438 2343.898438 1900.15625 2345.8125 1901.578125 L 2348.613281 1903.765625 C 2349.59375 1904.378906 2350.257812 1905.679688 2349.621094 1909.265625 C 2346.992188 1911.917969 2345.664062 1912.261719 2344.65625 1911.917969 L 2341.464844 1911.230469 L 2335.128906 1909.855469 L 2322.699219 1906.710938 C 2314.371094 1904.722656 2305.773438 1903.617188 2297.46875 1901.234375 L 2272.21875 1894.261719 C 2267.945312 1893.277344 2263.621094 1892.566406 2259.296875 1891.851562 C 2257.160156 1891.460938 2255.023438 1890.96875 2252.886719 1890.355469 L 2249.695312 1889.324219 C 2248.613281 1889.003906 2247.628906 1888.070312 2246.792969 1884.878906 Z M 2231.539062 2286.777344 C 2225.621094 2290.753906 2219.773438 2294.855469 2213.683594 2298.613281 L 2204.691406 2304.460938 C 2201.71875 2306.425781 2198.355469 2307.875 2193.613281 2307.53125 C 2194.570312 2302.863281 2196.980469 2300.0625 2199.730469 2297.730469 L 2208.058594 2290.878906 C 2213.585938 2286.308594 2219.28125 2281.914062 2225.054688 2277.664062 C 2236.601562 2269.117188 2248.316406 2260.839844 2259.984375 2252.492188 C 2283.101562 2235.445312 2306.730469 2219.039062 2330.976562 2203.519531 C 2355.292969 2188.09375 2380.570312 2174.167969 2406.632812 2161.644531 C 2410.367188 2159.777344 2414.175781 2158.082031 2417.957031 2156.316406 C 2413.976562 2157.074219 2409.972656 2157.863281 2405.996094 2158.671875 C 2390.273438 2161.964844 2374.355469 2164.394531 2358.511719 2166.925781 C 2342.644531 2169.527344 2326.777344 2171.984375 2310.808594 2173.800781 L 2286.90625 2176.773438 C 2278.925781 2177.78125 2270.890625 2178.296875 2262.464844 2175.9375 C 2269.886719 2171.148438 2277.671875 2169.257812 2285.558594 2167.808594 L 2309.164062 2163.511719 C 2324.933594 2160.832031 2340.53125 2157.273438 2356.226562 2154.324219 C 2371.925781 2151.304688 2387.597656 2148.160156 2403.167969 2144.671875 C 2418.742188 2141.160156 2434.464844 2138.238281 2449.914062 2134.210938 C 2511.988281 2119.425781 2573.25 2101.449219 2632.574219 2078.851562 C 2662.445312 2067.972656 2691.332031 2054.808594 2719.40625 2040.21875 C 2747.507812 2025.703125 2774.285156 2008.609375 2798.429688 1988.472656 C 2822.332031 1968.113281 2843.285156 1944.066406 2857.359375 1916.363281 C 2864.382812 1902.535156 2869.445312 1887.753906 2872.121094 1872.523438 C 2873.546875 1864.910156 2874.015625 1857.175781 2874.015625 1849.4375 C 2873.839844 1841.675781 2873.71875 1834.113281 2874.332031 1825.617188 C 2879.835938 1832.394531 2881.703125 1840.867188 2882.367188 1849.070312 C 2882.78125 1857.347656 2882.710938 1865.671875 2881.605469 1873.898438 C 2880.523438 1883.601562 2878.164062 1893.105469 2875.046875 1902.339844 C 2875.09375 1902.292969 2875.144531 1902.242188 2875.191406 1902.191406 C 2881.851562 1895.316406 2888.308594 1888.195312 2895.753906 1882.175781 C 2903.046875 1875.988281 2910.933594 1870.4375 2918.597656 1864.640625 C 2922.355469 1861.695312 2925.992188 1858.574219 2929.652344 1855.480469 C 2931.492188 1853.957031 2933.457031 1852.558594 2935.472656 1851.230469 L 2938.59375 1849.339844 C 2939.625 1848.675781 2941.074219 1848.503906 2944.046875 1850.003906 C 2945.273438 1853.121094 2944.953125 1854.546875 2944.21875 1855.53125 L 2942.007812 1858.425781 C 2940.484375 1860.320312 2938.910156 1862.136719 2937.21875 1863.832031 C 2933.800781 1867.171875 2930.339844 1870.488281 2927.023438 1873.949219 C 2920.511719 1880.996094 2914.25 1888.316406 2907.371094 1894.972656 C 2900.664062 1901.824219 2892.953125 1907.546875 2885.460938 1913.515625 C 2881.675781 1916.460938 2877.992188 1919.53125 2874.039062 1922.257812 C 2872.074219 1923.660156 2870.007812 1924.960938 2867.945312 1926.238281 L 2864.777344 1928.078125 C 2864.457031 1928.300781 2864.066406 1928.449219 2863.625 1928.496094 C 2849.300781 1955.195312 2829.109375 1978.253906 2806.660156 1997.953125 C 2757.554688 2041.300781 2698.675781 2070.894531 2638.835938 2094.9375 C 2607.417969 2107.34375 2575.363281 2117.828125 2542.9375 2126.964844 C 2543.257812 2127.824219 2543.601562 2128.683594 2543.898438 2129.570312 C 2544.953125 2133.054688 2545.617188 2136.617188 2546.15625 2140.152344 C 2547.164062 2147.226562 2547.582031 2154.277344 2548.074219 2161.300781 C 2549.277344 2175.347656 2549.816406 2189.398438 2549.351562 2203.371094 C 2549.007812 2217.371094 2546.84375 2231.199219 2544.78125 2244.953125 C 2543.652344 2251.804688 2542.792969 2258.703125 2541.21875 2265.507812 C 2540.554688 2268.921875 2539.671875 2272.3125 2538.789062 2275.699219 L 2537.386719 2280.757812 C 2536.996094 2282.453125 2535.988281 2284.074219 2532.230469 2285.304688 C 2528.886719 2283.09375 2528.324219 2281.300781 2528.371094 2279.582031 L 2528.300781 2274.347656 C 2528.300781 2270.886719 2528.273438 2267.398438 2528.496094 2263.960938 C 2528.742188 2257.058594 2529.160156 2250.207031 2529.601562 2243.355469 C 2530.484375 2229.625 2530.707031 2215.921875 2532.105469 2202.316406 C 2533.1875 2188.734375 2534.980469 2175.128906 2535.519531 2161.546875 C 2535.71875 2154.765625 2535.472656 2148.011719 2535.03125 2141.332031 L 2534.34375 2131.410156 C 2534.269531 2130.746094 2534.21875 2130.085938 2534.167969 2129.398438 C 2515.746094 2134.457031 2497.226562 2139.121094 2478.628906 2143.421875 L 2470.574219 2146.761719 C 2464.136719 2149.683594 2457.847656 2153.023438 2451.414062 2155.847656 C 2444.953125 2158.648438 2438.8125 2162.332031 2432.425781 2165.351562 C 2426.0625 2168.398438 2419.824219 2171.761719 2413.609375 2175.226562 C 2388.675781 2188.683594 2364.457031 2203.617188 2340.039062 2218.230469 C 2315.476562 2232.621094 2291.183594 2247.578125 2267.058594 2262.832031 C 2255.074219 2270.589844 2243.308594 2278.695312 2231.539062 2286.777344 Z M 2027.144531 1231.289062 C 2029.769531 1228.710938 2031.957031 1228.464844 2033.875 1228.835938 C 2035.8125 1229.203125 2037.777344 1229.523438 2039.695312 1229.988281 C 2043.578125 1230.824219 2047.285156 1232.050781 2051.019531 1233.304688 C 2058.4375 1235.882812 2065.636719 1239.027344 2072.832031 1242.144531 C 2087.324219 1248.261719 2101.5 1255.53125 2114.492188 1264.644531 C 2121.101562 1269.0625 2127.191406 1274.222656 2133.085938 1279.574219 C 2138.589844 1285.347656 2144.460938 1290.699219 2149.375 1296.988281 C 2151.878906 1300.058594 2154.53125 1303.003906 2156.914062 1306.171875 C 2159.273438 1309.390625 2161.410156 1312.730469 2163.621094 1316.023438 C 2165.953125 1319.191406 2167.746094 1322.777344 2169.492188 1326.3125 L 2172.09375 1331.667969 C 2173.003906 1333.386719 2173.421875 1335.472656 2171.382812 1338.910156 C 2167.257812 1339.132812 2165.5625 1338.003906 2164.40625 1336.503906 L 2160.699219 1332.207031 C 2158.316406 1329.285156 2155.933594 1326.410156 2153.351562 1323.683594 C 2150.871094 1320.886719 2148.292969 1318.183594 2145.933594 1315.308594 C 2143.476562 1312.558594 2140.726562 1310.003906 2138.148438 1307.351562 C 2133.113281 1301.898438 2127.191406 1297.332031 2121.738281 1292.371094 C 2115.746094 1288 2110.339844 1282.941406 2104.296875 1278.59375 C 2092.53125 1269.605469 2080.421875 1260.761719 2067.304688 1253.417969 L 2057.257812 1248.285156 L 2046.964844 1243.742188 L 2036.625 1239.222656 L 2031.492188 1236.867188 C 2029.746094 1236.078125 2028.222656 1234.828125 2027.144531 1231.289062 Z M 2487.351562 3476.113281 C 2518.71875 3516.222656 2544.855469 3552.816406 2537.902344 3578.945312 C 2530.925781 3605.101562 2379.269531 3629.515625 2304.300781 3561.535156 C 2283.296875 3542.476562 2217.144531 3449.984375 2217.144531 3449.984375 C 2217.144531 3449.984375 2213.65625 3345.40625 2239.820312 3326.226562 C 2239.820312 3326.226562 2241.5625 3402.925781 2276.417969 3394.207031 C 2311.277344 3385.511719 2396.710938 3301.835938 2431.566406 3324.507812 C 2466.421875 3347.152344 2455.957031 3436.03125 2487.351562 3476.113281 Z M 3179.394531 2461.863281 L 3179.394531 2561.011719 C 3179.394531 2577.441406 3166.082031 2590.753906 3149.648438 2590.753906 L 2502.457031 2590.753906 L 2519.039062 2432.148438 L 3149.648438 2432.148438 C 3166.082031 2432.148438 3179.394531 2445.433594 3179.394531 2461.863281 Z M 1873.8125 2449.386719 C 1873.542969 2449.65625 1873.273438 2449.929688 1873.003906 2450.199219 C 1873.273438 2449.929688 1873.542969 2449.65625 1873.8125 2449.386719 Z M 1867.96875 2455.109375 C 1867.671875 2455.40625 1867.355469 2455.699219 1867.058594 2455.96875 C 1867.355469 2455.699219 1867.671875 2455.40625 1867.96875 2455.109375 Z M 1862 2460.855469 C 1861.800781 2461.054688 1861.582031 2461.25 1861.359375 2461.445312 C 1861.582031 2461.25 1861.800781 2461.054688 1862 2460.855469 Z M 1856.101562 2466.457031 C 1856.03125 2466.53125 1855.957031 2466.605469 1855.882812 2466.652344 C 1855.957031 2466.605469 1856.03125 2466.53125 1856.101562 2466.457031 Z M 1891.378906 2431.949219 C 1892.382812 2430.917969 1893.417969 2429.863281 1894.421875 2428.832031 C 1895.628906 2427.601562 1896.832031 2426.375 1898.058594 2425.171875 C 1899.140625 2424.042969 1900.246094 2422.914062 1901.324219 2421.78125 C 1902.480469 2420.605469 1903.609375 2419.449219 1904.742188 2418.269531 C 1905.847656 2417.117188 1906.976562 2415.960938 1908.082031 2414.808594 C 1909.210938 2413.628906 1910.339844 2412.449219 1911.472656 2411.296875 C 1912.550781 2410.140625 1913.632812 2408.988281 1914.738281 2407.855469 C 1915.867188 2406.652344 1916.996094 2405.476562 1918.128906 2404.269531 C 1919.207031 2403.140625 1920.289062 2401.988281 1921.371094 2400.832031 C 1922.476562 2399.652344 1923.582031 2398.476562 1924.6875 2397.273438 C 1925.765625 2396.140625 1926.824219 2394.988281 1927.878906 2393.832031 C 1928.984375 2392.65625 1930.089844 2391.476562 1931.171875 2390.296875 C 1932.226562 2389.140625 1933.257812 2388.011719 1934.316406 2386.882812 C 1935.371094 2385.730469 1936.402344 2384.574219 1937.460938 2383.421875 C 1938.515625 2382.265625 1939.546875 2381.109375 1940.578125 2379.980469 C 1941.609375 2378.828125 1942.617188 2377.699219 1943.648438 2376.566406 C 1944.65625 2375.4375 1945.664062 2374.308594 1946.671875 2373.179688 C 1947.703125 2372.023438 1948.683594 2370.894531 1949.691406 2369.738281 C 1950.652344 2368.660156 1951.609375 2367.601562 1952.542969 2366.523438 C 1953.574219 2365.34375 1954.554688 2364.191406 1955.5625 2363.035156 C 1956.449219 2362.003906 1957.332031 2360.996094 1958.191406 2359.988281 C 1959.222656 2358.785156 1960.207031 2357.632812 1961.214844 2356.429688 C 1962 2355.496094 1962.835938 2354.539062 1963.621094 2353.605469 C 1965.316406 2351.589844 1966.984375 2349.578125 1968.582031 2347.636719 C 1968.582031 2347.613281 1968.605469 2347.613281 1968.605469 2347.585938 C 1972.09375 2343.339844 1975.335938 2339.285156 1978.335938 2335.40625 C 1979.808594 2333.515625 1981.160156 2331.574219 1982.386719 2329.609375 C 1989.832031 2317.894531 1993.144531 2305.367188 1993.539062 2292.792969 C 1995.183594 2240.457031 1945.859375 2187.261719 1929.527344 2187.261719 C 1928.46875 2187.261719 1926.699219 2187.652344 1924.589844 2188.242188 C 1924.171875 2188.363281 1923.828125 2188.414062 1923.359375 2188.585938 C 1922.523438 2188.832031 1921.519531 2189.175781 1920.558594 2189.496094 C 1919.921875 2189.714844 1919.355469 2189.914062 1918.667969 2190.15625 C 1917.6875 2190.5 1916.554688 2190.945312 1915.449219 2191.335938 C 1914.640625 2191.65625 1913.878906 2191.925781 1912.992188 2192.269531 C 1911.839844 2192.710938 1910.5625 2193.226562 1909.332031 2193.742188 C 1908.375 2194.136719 1907.441406 2194.480469 1906.410156 2194.921875 C 1905.085938 2195.464844 1903.660156 2196.078125 1902.234375 2196.691406 C 1901.179688 2197.132812 1900.171875 2197.550781 1899.066406 2198.015625 C 1897.566406 2198.65625 1895.972656 2199.367188 1894.398438 2200.054688 C 1893.246094 2200.546875 1892.140625 2201.039062 1890.960938 2201.554688 C 1889.339844 2202.265625 1887.667969 2203.027344 1885.996094 2203.789062 C 1884.71875 2204.355469 1883.46875 2204.917969 1882.140625 2205.507812 C 1880.445312 2206.269531 1878.652344 2207.078125 1876.882812 2207.890625 C 1875.535156 2208.527344 1874.207031 2209.117188 1872.832031 2209.78125 C 1871.015625 2210.59375 1869.171875 2211.453125 1867.304688 2212.3125 C 1865.832031 2213 1864.382812 2213.6875 1862.859375 2214.398438 C 1861.015625 2215.257812 1859.148438 2216.140625 1857.257812 2217.027344 C 1855.710938 2217.761719 1854.1875 2218.476562 1852.640625 2219.210938 C 1850.648438 2220.144531 1848.636719 2221.105469 1846.621094 2222.0625 C 1845.097656 2222.796875 1843.574219 2223.511719 1842.003906 2224.273438 C 1839.988281 2225.230469 1837.976562 2226.1875 1835.910156 2227.195312 C 1834.289062 2227.957031 1832.695312 2228.742188 1831.046875 2229.527344 C 1828.984375 2230.535156 1826.898438 2231.542969 1824.808594 2232.523438 C 1823.210938 2233.308594 1821.617188 2234.070312 1820.019531 2234.855469 C 1817.90625 2235.886719 1815.769531 2236.921875 1813.65625 2237.953125 C 1811.988281 2238.761719 1810.339844 2239.574219 1808.671875 2240.382812 C 1806.632812 2241.390625 1804.59375 2242.398438 1802.554688 2243.402344 C 1800.835938 2244.238281 1799.164062 2245.074219 1797.445312 2245.910156 C 1795.308594 2246.941406 1793.195312 2247.996094 1791.058594 2249.050781 C 1789.484375 2249.839844 1787.914062 2250.601562 1786.339844 2251.386719 C 1784.230469 2252.417969 1782.117188 2253.472656 1779.980469 2254.53125 C 1778.359375 2255.339844 1776.738281 2256.152344 1775.117188 2256.960938 C 1773.050781 2257.96875 1771.011719 2258.976562 1768.976562 2260.007812 C 1767.425781 2260.769531 1765.878906 2261.527344 1764.355469 2262.316406 C 1762.21875 2263.371094 1760.132812 2264.425781 1758.019531 2265.457031 C 1756.617188 2266.171875 1755.21875 2266.859375 1753.84375 2267.570312 C 1751.78125 2268.578125 1749.765625 2269.609375 1747.75 2270.617188 C 1746.203125 2271.378906 1744.707031 2272.140625 1743.183594 2272.898438 C 1741.339844 2273.832031 1739.496094 2274.765625 1737.703125 2275.652344 C 1736.253906 2276.414062 1734.832031 2277.125 1733.40625 2277.835938 C 1731.613281 2278.722656 1729.867188 2279.605469 1728.148438 2280.488281 C 1726.625 2281.25 1725.203125 2281.964844 1723.726562 2282.722656 C 1722.203125 2283.484375 1720.683594 2284.246094 1719.207031 2285.007812 C 1717.785156 2285.71875 1716.433594 2286.410156 1715.082031 2287.097656 C 1713.535156 2287.882812 1711.984375 2288.667969 1710.511719 2289.40625 C 1709.53125 2289.894531 1708.621094 2290.363281 1707.664062 2290.855469 C 1705.992188 2291.714844 1704.320312 2292.546875 1702.75 2293.359375 C 1701.667969 2293.898438 1700.6875 2294.390625 1699.65625 2294.929688 C 1698.453125 2295.542969 1697.199219 2296.160156 1696.070312 2296.746094 C 1695.035156 2297.289062 1694.101562 2297.753906 1693.144531 2298.246094 C 1691.992188 2298.835938 1690.8125 2299.425781 1689.753906 2299.964844 C 1689.3125 2300.210938 1688.921875 2300.382812 1688.476562 2300.605469 C 1685.433594 2302.175781 1682.730469 2303.574219 1680.667969 2304.632812 C 1679.808594 2305.050781 1679.167969 2305.394531 1678.503906 2305.738281 C 1678.160156 2305.910156 1677.792969 2306.105469 1677.5 2306.253906 C 1677.226562 2306.375 1677.082031 2306.472656 1676.859375 2306.570312 C 1676.394531 2306.816406 1675.925781 2307.0625 1675.65625 2307.1875 C 1675.238281 2307.40625 1675.015625 2307.53125 1675.015625 2307.53125 C 1669.835938 2317.871094 1668.925781 2330.050781 1671.113281 2343.214844 C 1677.71875 2382.730469 1712.378906 2431.164062 1744.410156 2465.917969 C 1750.820312 2472.867188 1757.136719 2479.253906 1763.078125 2484.949219 C 1769.023438 2490.625 1774.625 2495.558594 1779.636719 2499.589844 C 1789.632812 2507.667969 1797.246094 2512.089844 1800.515625 2511.425781 C 1801.054688 2511.328125 1801.667969 2511.132812 1802.382812 2510.835938 C 1802.601562 2510.714844 1802.898438 2510.566406 1803.144531 2510.445312 C 1803.660156 2510.199219 1804.152344 2509.953125 1804.738281 2509.632812 C 1805.058594 2509.4375 1805.453125 2509.191406 1805.820312 2508.96875 C 1806.386719 2508.625 1806.949219 2508.308594 1807.566406 2507.914062 C 1807.984375 2507.621094 1808.449219 2507.300781 1808.914062 2506.980469 C 1809.53125 2506.5625 1810.144531 2506.144531 1810.832031 2505.65625 C 1810.855469 2505.65625 1810.882812 2505.628906 1810.90625 2505.605469 C 1813.335938 2514.742188 1810.636719 2524.714844 1803.265625 2531.296875 L 1780.472656 2551.53125 L 1780.472656 2561.011719 C 1780.472656 2577.441406 1793.785156 2590.753906 1810.21875 2590.753906 L 2175.511719 2590.753906 C 2177.621094 2522.945312 2183.394531 2470.925781 2189.929688 2432.148438 L 1891.179688 2432.148438 C 1891.230469 2432.074219 1891.304688 2432 1891.378906 2431.949219 " fill-opacity="1" fill-rule="nonzero"/><path fill="#113587" d="M 2293.613281 647.699219 C 2290.222656 647.648438 2288.875 648.777344 2288.210938 650.03125 C 2287.472656 651.308594 2286.808594 652.5625 2286.21875 653.863281 C 2285.015625 656.492188 2284.082031 659.191406 2283.371094 661.917969 C 2282.042969 667.445312 2281.039062 673.019531 2280.375 678.644531 C 2278.703125 689.84375 2278.210938 701.386719 2279.660156 712.734375 C 2281.210938 724.054688 2285.066406 734.910156 2289.78125 745.128906 C 2291.945312 750.332031 2294.769531 755.171875 2297.542969 760.035156 C 2298.992188 762.417969 2300.8125 764.601562 2302.507812 766.839844 L 2305.132812 770.105469 C 2305.921875 771.234375 2307.34375 772.019531 2311.03125 771.40625 C 2313.414062 768.433594 2313.535156 766.863281 2313.019531 765.632812 L 2311.792969 761.777344 L 2309.136719 754.335938 C 2307.664062 749.300781 2305.355469 744.636719 2304.027344 739.625 C 2300.785156 729.777344 2299.140625 719.730469 2296.734375 709.882812 C 2294.84375 699.9375 2293.023438 689.867188 2292.902344 679.550781 C 2292.851562 674.417969 2293.539062 669.335938 2294.375 664.277344 L 2295.53125 656.6875 L 2296.070312 652.878906 C 2296.265625 651.578125 2295.921875 650.203125 2293.613281 647.699219 Z M 2366.128906 567.484375 C 2368.828125 569.449219 2370.277344 569.546875 2371.457031 569.105469 L 2374.96875 567.855469 C 2377.253906 566.945312 2379.539062 566.011719 2381.75 564.957031 C 2386.121094 562.792969 2390.542969 560.707031 2395.089844 558.890625 C 2404.273438 555.425781 2413.683594 552.773438 2422.84375 549.800781 C 2432.082031 547.027344 2441 543.5625 2450.210938 540.863281 C 2454.828125 539.609375 2459.46875 538.457031 2464.136719 537.351562 C 2466.472656 536.734375 2468.804688 535.976562 2471.164062 535.460938 L 2474.726562 534.527344 C 2475.929688 534.304688 2477.082031 533.371094 2478.261719 529.785156 C 2476.9375 526.324219 2475.609375 525.535156 2474.332031 525.464844 L 2470.402344 524.921875 C 2467.773438 524.554688 2465.167969 524.503906 2462.566406 524.554688 C 2457.308594 524.457031 2452.199219 525.292969 2447.042969 525.929688 C 2436.824219 527.574219 2426.503906 529.492188 2417 533.519531 C 2407.445312 537.324219 2398.453125 542.410156 2389.660156 547.566406 C 2385.214844 550.046875 2380.742188 552.453125 2376.371094 555.035156 C 2374.207031 556.335938 2372.121094 557.832031 2370.105469 559.429688 L 2367.160156 561.933594 C 2366.175781 562.769531 2365.511719 564.167969 2366.128906 567.484375 Z M 2498.871094 533.078125 L 2499.632812 533.863281 C 2500.171875 534.328125 2500.714844 534.671875 2501.277344 534.871094 C 2502.433594 535.214844 2503.585938 535.507812 2504.691406 536 C 2506.929688 537.179688 2509.089844 538.675781 2511.375 539.316406 C 2513.660156 540.175781 2516.117188 539.5625 2518.546875 539.265625 C 2519.75 539.09375 2520.953125 539.042969 2522.207031 538.578125 C 2522.820312 538.382812 2523.460938 538.039062 2524.125 537.667969 L 2525.082031 537.054688 C 2525.402344 536.957031 2525.816406 536.148438 2526.578125 532.683594 C 2526.777344 529.148438 2526.605469 528.261719 2526.332031 528.066406 L 2525.546875 527.207031 C 2525.03125 526.691406 2524.515625 526.175781 2523.953125 525.808594 C 2522.871094 525.019531 2521.742188 524.652344 2520.636719 524.136719 C 2518.375 523.226562 2516.164062 521.953125 2513.757812 522.195312 C 2511.375 522.171875 2508.867188 523.03125 2506.414062 523.570312 C 2505.207031 523.742188 2504.03125 523.695312 2502.824219 523.71875 C 2502.210938 523.769531 2501.597656 523.941406 2500.984375 524.234375 L 2500 524.800781 C 2499.683594 524.972656 2499.265625 525.757812 2498.550781 528.828125 C 2498.429688 531.945312 2498.601562 532.808594 2498.871094 533.078125 Z M 2298.625 608.230469 C 2291.625 598.578125 2287.742188 592.511719 2287.742188 592.511719 C 2287.742188 592.511719 2377.96875 531.085938 2449.867188 512.789062 C 2521.765625 494.492188 2619.824219 537.621094 2626.359375 593.8125 C 2626.554688 595.507812 2626.679688 597.277344 2626.75 599.117188 C 2629.722656 600.542969 2632.574219 602.089844 2635.226562 603.832031 C 2638.566406 604.988281 2641.417969 606.511719 2643.355469 608.207031 C 2725.402344 679.996094 2669.984375 763.007812 2644.585938 793.289062 C 2644.167969 781.425781 2643.726562 769.785156 2643.355469 758.535156 C 2642.941406 745.398438 2641.933594 732.894531 2640.433594 721.007812 C 2625.597656 717.621094 2603.710938 706.984375 2581.480469 694.605469 C 2563.007812 710.523438 2537.707031 724.496094 2503.464844 733.683594 C 2461.019531 745.078125 2418.398438 725.28125 2382.363281 697.261719 C 2371.925781 712.042969 2358.757812 735.425781 2351.804688 766.371094 C 2349.203125 777.890625 2346.746094 791.445312 2344.511719 804.980469 C 2333.480469 797.390625 2314.273438 787.738281 2304.003906 803.480469 C 2303.757812 803.875 2303.539062 804.316406 2303.292969 804.734375 C 2276.050781 736.925781 2248.316406 639.152344 2298.625 608.230469 Z M 2581.652344 808.8125 C 2578.066406 799.796875 2567.871094 795.402344 2558.855469 798.960938 C 2549.816406 802.546875 2545.421875 812.765625 2549.007812 821.777344 C 2552.59375 830.792969 2562.785156 835.1875 2571.800781 831.628906 C 2580.816406 828.042969 2585.238281 817.824219 2581.652344 808.8125 Z M 2459.324219 832.214844 C 2466.570312 825.804688 2467.234375 814.679688 2460.773438 807.433594 C 2454.335938 800.191406 2443.234375 799.527344 2435.988281 805.960938 C 2428.742188 812.398438 2428.078125 823.496094 2434.511719 830.765625 C 2440.949219 838.011719 2452.050781 838.675781 2459.324219 832.214844 Z M 2603.292969 789.164062 C 2604.765625 789.113281 2606.242188 788.964844 2607.765625 788.84375 L 2610.023438 788.574219 C 2610.761719 788.597656 2611.621094 787.933594 2613.289062 784.742188 C 2613.511719 781.132812 2612.898438 780.074219 2612.160156 779.757812 L 2610 778.503906 C 2608.523438 777.71875 2607.027344 777.003906 2605.527344 776.441406 C 2602.484375 775.285156 2599.339844 774.648438 2596.167969 773.984375 C 2589.855469 772.730469 2583.273438 771.652344 2576.714844 772.558594 C 2570.15625 773.25 2563.746094 775.582031 2557.675781 778.085938 C 2554.605469 779.3125 2551.535156 780.417969 2548.589844 781.96875 C 2547.113281 782.679688 2545.714844 783.5625 2544.488281 784.742188 L 2542.644531 786.484375 C 2542.054688 787.050781 2541.734375 788.179688 2542.695312 791.203125 C 2544.976562 793.511719 2545.984375 793.925781 2546.722656 793.78125 L 2548.910156 793.386719 L 2553.011719 792.332031 C 2555.589844 791.347656 2558.292969 790.636719 2561.042969 790.167969 C 2566.667969 789.582031 2572.246094 789.777344 2577.796875 789.824219 C 2583.347656 790.070312 2588.921875 789.238281 2594.648438 789.1875 C 2597.519531 789.113281 2600.371094 789.285156 2603.292969 789.164062 Z M 2466.742188 957.691406 L 2469.933594 959.242188 C 2472.097656 960.148438 2474.234375 961.15625 2476.519531 961.671875 C 2481.085938 962.679688 2485.605469 963.957031 2490.25 964.742188 C 2499.386719 967.050781 2508.894531 968.476562 2518.449219 968.621094 C 2528.078125 968.820312 2537.558594 966.632812 2546.722656 963.90625 C 2551.316406 962.554688 2555.859375 960.960938 2560.183594 958.824219 C 2562.34375 957.742188 2564.433594 956.5625 2566.445312 955.1875 L 2569.445312 953.027344 C 2570.449219 952.414062 2571.238281 951.039062 2570.523438 947.402344 C 2567.824219 944.847656 2566.59375 944.503906 2565.539062 944.824219 L 2562.320312 945.4375 L 2555.933594 946.664062 C 2551.683594 947.425781 2547.558594 948.484375 2543.308594 949.023438 C 2534.832031 950.324219 2526.308594 950.472656 2517.835938 951.355469 C 2509.359375 951.796875 2500.6875 952.804688 2491.945312 952.3125 C 2487.546875 952.242188 2483.273438 951.234375 2478.925781 950.667969 C 2476.738281 950.421875 2474.601562 950.003906 2472.367188 949.832031 L 2469 949.636719 C 2467.847656 949.589844 2466.570312 950.105469 2464.578125 952.804688 C 2464.777344 956.097656 2465.683594 957.175781 2466.742188 957.691406 Z M 2520.464844 914.269531 L 2518.644531 915.402344 L 2514.9375 917.660156 C 2512.480469 919.160156 2509.925781 920.535156 2507.492188 922.128906 C 2505.035156 923.675781 2502.605469 925.226562 2500.269531 926.992188 L 2496.808594 929.695312 C 2495.652344 930.601562 2494.792969 932.003906 2495.0625 935.464844 C 2497.839844 937.503906 2499.511719 937.503906 2500.886719 937.011719 L 2505.011719 935.492188 C 2507.714844 934.433594 2510.34375 933.183594 2512.945312 931.929688 C 2515.574219 930.703125 2518.082031 929.277344 2520.660156 927.949219 L 2524.539062 926.011719 L 2526.53125 925.003906 C 2527.339844 924.5625 2528.199219 924.121094 2528.988281 923.578125 C 2535.472656 919.527344 2540.164062 912.355469 2541.171875 904.375 C 2541.417969 902.382812 2541.464844 900.34375 2541.246094 898.332031 L 2540.703125 893.691406 L 2539.476562 885.09375 C 2537.855469 873.625 2534.757812 862.425781 2532.03125 851.175781 C 2530.632812 845.550781 2529.332031 839.902344 2527.609375 834.328125 C 2526.851562 831.554688 2525.867188 828.777344 2524.910156 826.027344 L 2523.363281 821.902344 C 2522.917969 820.5 2521.886719 819.25 2518.105469 818.488281 C 2514.863281 820.574219 2514.347656 822.148438 2514.445312 823.570312 L 2514.519531 827.992188 C 2514.617188 830.914062 2514.714844 833.835938 2515.011719 836.710938 C 2515.453125 842.53125 2516.289062 848.253906 2517.023438 854 C 2518.621094 865.46875 2519.824219 877.015625 2522.476562 888.285156 L 2524.46875 896.734375 L 2525.472656 900.640625 C 2525.71875 901.5 2525.84375 902.359375 2525.890625 903.242188 C 2526.136719 906.828125 2524.613281 910.710938 2521.667969 913.363281 C 2521.296875 913.707031 2520.855469 913.953125 2520.464844 914.269531 Z M 2460.109375 798.644531 C 2463.546875 798.839844 2466.988281 799.378906 2470.5 799.625 L 2475.855469 799.847656 L 2478.582031 799.894531 C 2479.464844 800.019531 2480.523438 799.453125 2482.535156 796.433594 C 2482.855469 792.796875 2482.191406 791.667969 2481.332031 791.25 L 2478.828125 789.703125 C 2477.132812 788.769531 2475.4375 787.8125 2473.644531 787.101562 C 2470.105469 785.578125 2466.421875 784.570312 2462.6875 783.585938 C 2455.246094 781.722656 2447.484375 779.929688 2439.5 780.691406 C 2431.542969 781.253906 2423.582031 783.414062 2416.1875 786.78125 C 2412.527344 788.574219 2408.722656 790.023438 2405.40625 792.480469 C 2403.734375 793.683594 2402.0625 794.8125 2400.785156 796.53125 L 2398.921875 798.988281 C 2398.332031 799.796875 2398.109375 801.097656 2399.632812 803.898438 C 2402.53125 805.496094 2403.6875 805.644531 2404.472656 805.25 L 2406.78125 804.195312 C 2408.132812 803.335938 2409.800781 802.890625 2411.203125 802.128906 C 2413.902344 800.484375 2417.097656 799.601562 2420.167969 798.691406 C 2426.605469 797.441406 2433.261719 797.855469 2439.820312 797.980469 C 2446.402344 798.347656 2453.207031 798.128906 2460.109375 798.644531 Z M 2630.339844 1621.867188 C 2630.3125 1621.941406 2630.3125 1621.964844 2630.339844 1621.867188 Z M 2862.171875 1626.433594 C 2861.902344 1631.222656 2865.589844 1635.324219 2870.355469 1635.570312 C 2870.941406 1635.621094 2928.71875 1639.253906 2950.507812 1676.609375 C 2952.128906 1679.359375 2955.027344 1680.910156 2958.023438 1680.910156 C 2959.496094 1680.910156 2960.996094 1680.515625 2962.371094 1679.730469 C 2966.496094 1677.324219 2967.898438 1671.992188 2965.492188 1667.867188 C 2939.035156 1622.53125 2874.085938 1618.429688 2871.335938 1618.28125 C 2866.449219 1617.742188 2862.445312 1621.671875 2862.171875 1626.433594 Z M 2700.320312 1658.042969 C 2702.582031 1657.109375 2704.988281 1657.355469 2707.027344 1658.339844 C 2707.59375 1657.992188 2708.15625 1657.75 2708.722656 1657.675781 L 2713.464844 1656.667969 C 2716.605469 1656.078125 2719.777344 1655.441406 2722.945312 1655.023438 C 2729.257812 1653.992188 2735.59375 1653.351562 2741.933594 1652.566406 C 2754.609375 1651.066406 2767.210938 1649.128906 2779.882812 1648.414062 C 2792.511719 1647.457031 2805.285156 1647.285156 2817.859375 1646.179688 C 2824.125 1645.566406 2830.363281 1644.609375 2836.429688 1643.453125 C 2839.5 1642.9375 2842.546875 1642.398438 2845.445312 1641.832031 C 2845.8125 1641.734375 2846.183594 1641.710938 2846.550781 1641.660156 C 2846.574219 1636.453125 2846.085938 1631.050781 2845.273438 1625.699219 C 2845.199219 1625.355469 2845.125 1625.011719 2845.078125 1624.667969 C 2844.878906 1624.640625 2844.683594 1624.640625 2844.488281 1624.617188 L 2837.660156 1623.660156 C 2833.164062 1622.847656 2828.398438 1623.316406 2823.878906 1622.773438 L 2817.050781 1622.359375 L 2810.121094 1622.40625 C 2805.527344 1622.53125 2800.960938 1622.136719 2796.34375 1622.652344 L 2782.535156 1623.683594 L 2768.78125 1625.476562 C 2759.644531 1626.828125 2750.433594 1628.054688 2741.292969 1629.773438 C 2722.945312 1632.796875 2704.523438 1636.503906 2686.320312 1641.171875 C 2677.207031 1643.554688 2668.289062 1646.5 2659.347656 1649.472656 C 2654.851562 1650.847656 2650.429688 1652.417969 2645.886719 1653.71875 L 2639.082031 1655.710938 C 2638.027344 1656.027344 2636.898438 1656.203125 2635.667969 1656.128906 C 2635.277344 1657.28125 2634.710938 1658.363281 2633.800781 1659.199219 L 2633.554688 1659.417969 C 2631.34375 1661.457031 2628.839844 1664.945312 2628.300781 1667.375 C 2627.683594 1669.980469 2627.980469 1671.355469 2629.824219 1673.589844 C 2630.976562 1676.339844 2640.902344 1676.191406 2649.082031 1674.472656 C 2666.175781 1671.109375 2683.714844 1664.773438 2700.320312 1658.042969 Z M 2629.332031 1636.355469 C 2629.96875 1638.714844 2630.804688 1641.121094 2631.8125 1643.503906 C 2632.574219 1645.347656 2633.480469 1647.210938 2634.390625 1648.90625 C 2634.882812 1648.539062 2635.398438 1648.21875 2635.914062 1647.972656 L 2642.351562 1644.65625 C 2646.671875 1642.59375 2651.070312 1640.65625 2655.539062 1638.9375 C 2664.480469 1635.421875 2673.523438 1632.28125 2682.609375 1629.160156 C 2700.691406 1622.773438 2719.039062 1616.585938 2738.050781 1612.777344 C 2757.0625 1608.996094 2776.496094 1606.886719 2796.097656 1607.402344 C 2800.960938 1607.203125 2805.898438 1607.917969 2810.761719 1608.136719 C 2815.675781 1608.332031 2820.539062 1609.023438 2825.375 1610.054688 C 2830.214844 1611.035156 2835.054688 1611.699219 2839.746094 1613.441406 L 2843.136719 1614.621094 C 2841.835938 1608.75 2840.261719 1602.90625 2838.46875 1597.109375 C 2836.996094 1592.371094 2835.398438 1587.679688 2833.65625 1583.011719 L 2832.941406 1581.023438 C 2832.746094 1580.335938 2832.625 1579.597656 2832.523438 1578.863281 C 2832.230469 1578.8125 2831.960938 1578.738281 2831.664062 1578.714844 C 2828.816406 1578.371094 2826.164062 1577.660156 2823.363281 1577.214844 C 2820.539062 1576.898438 2817.738281 1576.332031 2814.9375 1575.890625 L 2806.316406 1575.203125 C 2794.722656 1574.882812 2783.054688 1575.570312 2771.386719 1575.867188 C 2759.691406 1576.40625 2747.949219 1575.765625 2736.183594 1575.816406 C 2730.289062 1575.816406 2724.394531 1575.941406 2718.472656 1575.742188 C 2715.527344 1575.742188 2712.554688 1575.523438 2709.558594 1575.351562 L 2705.996094 1575.078125 C 2704.421875 1576.136719 2702.679688 1577.214844 2700.738281 1578.175781 C 2699.585938 1578.738281 2698.355469 1579.328125 2697.203125 1579.796875 L 2694.253906 1581.097656 L 2688.308594 1583.480469 C 2680.351562 1586.621094 2672.5625 1590.085938 2665.023438 1593.917969 C 2657.554688 1597.824219 2650.1875 1601.921875 2643.75 1606.859375 C 2640.53125 1609.292969 2637.460938 1611.871094 2634.980469 1614.671875 C 2633.679688 1616.019531 2632.597656 1617.46875 2631.738281 1618.84375 C 2631.34375 1619.535156 2630.902344 1620.246094 2630.683594 1620.835938 C 2630.535156 1621.179688 2630.460938 1621.425781 2630.410156 1621.621094 C 2630.363281 1621.671875 2630.339844 1621.792969 2630.339844 1621.867188 C 2630.339844 1621.792969 2630.339844 1621.671875 2630.363281 1621.449219 L 2629.304688 1624.863281 C 2628.054688 1627 2627.929688 1631.617188 2629.332031 1636.355469 Z M 2703.660156 1543.445312 C 2703.710938 1549.953125 2706.855469 1556.882812 2709.460938 1564.640625 C 2712.136719 1564.003906 2714.8125 1563.390625 2717.492188 1562.972656 C 2723.410156 1561.84375 2729.378906 1561.253906 2735.347656 1560.566406 C 2747.3125 1559.363281 2759.347656 1558.058594 2771.433594 1558.601562 C 2783.519531 1558.917969 2795.628906 1560.636719 2807.667969 1562.75 C 2813.707031 1563.707031 2819.777344 1564.738281 2825.820312 1566.289062 C 2828.792969 1567.097656 2831.761719 1568.253906 2834.636719 1569.429688 C 2835.742188 1567.074219 2836.898438 1565.035156 2838.027344 1563.070312 L 2841.785156 1556.636719 C 2842.203125 1555.898438 2842.570312 1555.160156 2842.890625 1554.523438 C 2842.792969 1554.449219 2842.71875 1554.375 2842.644531 1554.277344 C 2841.957031 1553.539062 2841.074219 1552.753906 2840.1875 1551.96875 C 2838.445312 1550.421875 2836.554688 1548.851562 2834.636719 1547.328125 C 2826.851562 1541.359375 2818.472656 1535.585938 2810.121094 1531.117188 C 2808.082031 1530.011719 2805.871094 1529.105469 2804.496094 1528.6875 C 2804.277344 1528.710938 2804.421875 1528.589844 2803.957031 1528.5625 L 2802.066406 1528.539062 L 2798.28125 1528.5625 L 2783.125 1528.785156 C 2762.960938 1529.375 2742.621094 1530.136719 2723.042969 1533.058594 C 2718.226562 1533.820312 2713.289062 1534.703125 2709.1875 1536.203125 C 2707.101562 1536.9375 2705.382812 1537.921875 2705.160156 1538.535156 C 2704.226562 1539.8125 2703.859375 1541.53125 2703.660156 1543.445312 Z M 2845.496094 1653.132812 C 2845.570312 1652.835938 2845.570312 1652.492188 2845.640625 1652.199219 C 2843.40625 1653.03125 2841.171875 1653.746094 2838.910156 1654.359375 C 2835.742188 1655.367188 2832.523438 1655.929688 2829.332031 1656.59375 C 2826.136719 1657.304688 2822.945312 1658.019531 2819.777344 1658.582031 C 2807.078125 1661.433594 2794.351562 1664.011719 2781.554688 1665.609375 C 2768.757812 1667.425781 2755.859375 1667.449219 2742.988281 1667.792969 C 2736.554688 1667.917969 2730.140625 1668.089844 2723.679688 1667.816406 C 2720.464844 1667.769531 2717.246094 1667.523438 2714.003906 1667.230469 L 2711.472656 1666.984375 C 2711.375 1667.546875 2711.375 1668.113281 2711.152344 1668.652344 L 2710.738281 1669.734375 C 2710.074219 1671.527344 2709.875 1672.679688 2711.742188 1675.53125 C 2713.414062 1678.132812 2716.679688 1680.761719 2720.195312 1682.726562 C 2723.65625 1684.59375 2728.003906 1686.261719 2731.273438 1686.433594 C 2735.472656 1686.875 2740.457031 1686.828125 2745.25 1686.730469 C 2764.777344 1685.992188 2784.746094 1683.046875 2803.859375 1678.574219 C 2813.363281 1676.316406 2822.820312 1673.589844 2831.320312 1669.734375 C 2833.210938 1668.703125 2835.695312 1667.71875 2837.144531 1666.664062 C 2838.296875 1665.507812 2840.042969 1665.019531 2840.851562 1663.398438 L 2842.472656 1661.382812 C 2842.941406 1660.597656 2843.234375 1659.664062 2843.652344 1658.828125 C 2844.585938 1657.234375 2845.003906 1655.144531 2845.496094 1653.132812 Z M 2514.519531 1826.375 C 2513.535156 1827.433594 2512.234375 1828.242188 2510.734375 1828.683594 C 2313.386719 1949.398438 2046.277344 2117.953125 2042.226562 2120.53125 C 2040.800781 2121.414062 2039.179688 2121.855469 2037.605469 2121.855469 C 2034.734375 2121.855469 2031.910156 2120.433594 2030.261719 2117.828125 C 2027.707031 2113.777344 2028.910156 2108.421875 2032.964844 2105.867188 C 2048.21875 2096.242188 2273.347656 1954.160156 2460.378906 1839.222656 C 2330.410156 1860.148438 2114.273438 1860.417969 2103.832031 1860.417969 C 2099.042969 1860.417969 2095.160156 1856.535156 2095.160156 1851.746094 C 2095.160156 1846.957031 2099.042969 1843.078125 2103.832031 1843.078125 C 2106.707031 1843.078125 2391.28125 1842.734375 2503.710938 1812.648438 C 2602.898438 1752.007812 2684.402344 1703.578125 2706.535156 1694.121094 C 2703.246094 1691.640625 2700.148438 1688.667969 2697.570312 1684.714844 C 2696.292969 1682.773438 2695.1875 1680.464844 2694.449219 1677.914062 C 2689.585938 1679.632812 2684.722656 1681.253906 2679.761719 1682.800781 C 2670.671875 1685.574219 2661.4375 1688.078125 2651.707031 1689.699219 C 2646.796875 1690.460938 2641.808594 1691.078125 2636.28125 1690.855469 L 2632.03125 1690.511719 C 2630.511719 1690.265625 2628.839844 1689.773438 2627.269531 1689.332031 C 2625.820312 1689.085938 2623.804688 1687.710938 2622.132812 1686.632812 C 2620.191406 1685.425781 2619.53125 1684.273438 2618.375 1683.070312 C 2613.976562 1678.402344 2611.988281 1669.539062 2614.296875 1663.273438 C 2615.746094 1658.902344 2617.808594 1655.585938 2620.363281 1652.617188 C 2619.800781 1651.363281 2619.261719 1650.109375 2618.742188 1648.808594 C 2617.589844 1645.886719 2616.582031 1642.839844 2615.871094 1639.625 C 2615.132812 1636.429688 2614.617188 1633.042969 2614.765625 1629.308594 C 2614.886719 1626.117188 2615.601562 1622.53125 2617.417969 1619.140625 C 2617.515625 1618.601562 2617.664062 1618.207031 2617.808594 1617.742188 C 2618.082031 1616.90625 2618.375 1616.144531 2618.695312 1615.503906 C 2619.308594 1614.105469 2620.070312 1612.976562 2620.78125 1611.820312 C 2622.304688 1609.609375 2623.953125 1607.644531 2625.671875 1605.902344 C 2629.109375 1602.367188 2632.820312 1599.515625 2636.601562 1596.890625 C 2644.21875 1591.65625 2652.324219 1587.828125 2660.40625 1584.167969 C 2668.535156 1580.65625 2676.789062 1577.535156 2685.117188 1574.808594 L 2691.378906 1572.820312 L 2694.546875 1571.9375 C 2695.457031 1571.714844 2696.292969 1571.691406 2697.203125 1571.566406 C 2698.234375 1571.46875 2699.363281 1571.46875 2700.542969 1571.445312 C 2700.445312 1571.25 2700.347656 1571.148438 2700.222656 1570.929688 C 2701.328125 1567.21875 2702.753906 1566.289062 2704.226562 1565.96875 L 2704.867188 1565.796875 C 2699.191406 1560.148438 2695.507812 1552.558594 2694.917969 1543.347656 C 2694.992188 1540.203125 2695.53125 1536.742188 2697.398438 1533.722656 C 2699.757812 1529.816406 2703.074219 1528.539062 2705.578125 1527.382812 C 2710.933594 1525.101562 2716.066406 1523.96875 2721.226562 1522.867188 C 2741.835938 1519.082031 2762.296875 1517.953125 2782.78125 1517.09375 L 2794.769531 1516.75 C 2794.378906 1515.742188 2794.179688 1514.664062 2794.179688 1513.53125 C 2797.667969 1226.082031 2894.992188 1110.160156 2899.144531 1105.371094 C 2902.261719 1101.738281 2907.738281 1101.34375 2911.351562 1104.464844 C 2914.988281 1107.582031 2915.378906 1113.058594 2912.285156 1116.695312 C 2911.300781 1117.824219 2814.9375 1233.402344 2811.523438 1513.730469 C 2811.5 1515.300781 2811.054688 1516.726562 2810.320312 1517.976562 C 2812.285156 1518.714844 2813.980469 1519.5 2815.625 1520.335938 C 2825.304688 1525.347656 2833.777344 1531.09375 2842.253906 1537.40625 C 2844.363281 1538.976562 2846.453125 1540.574219 2848.539062 1542.339844 C 2849.597656 1543.25 2850.628906 1544.109375 2851.710938 1545.191406 C 2852.273438 1545.730469 2852.742188 1546.125 2853.40625 1546.910156 L 2854.3125 1547.992188 L 2854.78125 1548.605469 C 2855.074219 1549.070312 2855.34375 1549.539062 2855.566406 1550.054688 C 2856.621094 1552.089844 2856.5 1554.328125 2856.230469 1555.703125 C 2855.984375 1556.90625 2855.664062 1557.960938 2855.34375 1558.675781 C 2854.730469 1560.34375 2854.09375 1561.570312 2853.453125 1562.847656 L 2849.71875 1569.703125 C 2848.539062 1571.839844 2847.410156 1573.976562 2846.699219 1575.792969 C 2846.5 1576.332031 2846.355469 1576.800781 2846.257812 1577.144531 L 2846.601562 1577.976562 C 2848.566406 1582.792969 2850.382812 1587.703125 2852.101562 1592.640625 C 2855.46875 1602.539062 2858.367188 1612.632812 2860.308594 1623.167969 C 2862.125 1633.703125 2863.304688 1644.65625 2861.09375 1656.398438 C 2860.453125 1659.34375 2859.863281 1662.292969 2858.414062 1665.238281 C 2857.753906 1666.6875 2857.1875 1668.1875 2856.402344 1669.609375 L 2853.429688 1673.6875 C 2851.660156 1676.585938 2848.539062 1678.402344 2845.886719 1680.566406 C 2843.210938 1682.429688 2840.875 1683.339844 2838.320312 1684.765625 C 2828.324219 1689.527344 2818.179688 1692.648438 2807.984375 1695.300781 C 2787.5 1700.335938 2766.964844 1703.28125 2745.8125 1704.191406 C 2740.457031 1704.289062 2735.226562 1704.460938 2729.28125 1703.773438 C 2725.476562 1703.332031 2722.183594 1702.398438 2719.0625 1701.144531 C 2719.359375 1704.804688 2717.367188 1708.390625 2713.808594 1709.863281 C 2693.394531 1718.363281 2612.996094 1766.179688 2514.519531 1826.375 Z M 2076.664062 1835.90625 C 2078.0625 1839.246094 2081.28125 1841.261719 2084.671875 1841.261719 C 2085.777344 1841.261719 2086.90625 1841.039062 2088.011719 1840.574219 C 2090.027344 1839.738281 2253.796875 1770.625 2397.398438 1650.355469 L 2397.863281 1627.246094 C 2253.941406 1751.738281 2083.394531 1823.722656 2081.332031 1824.582031 C 2076.910156 1826.425781 2074.820312 1831.511719 2076.664062 1835.90625 Z M 2028.886719 1623.390625 C 2030.753906 1623.390625 2032.644531 1622.800781 2034.21875 1621.546875 C 2036.132812 1620.050781 2213.902344 1482.585938 2401.574219 1439.753906 L 2401.941406 1421.875 C 2336.625 1436.316406 2272.488281 1462.03125 2216.089844 1489.855469 C 2214.542969 1488.40625 2212.453125 1487.546875 2210.167969 1487.546875 C 2206.753906 1487.546875 2203.242188 1487.648438 2199.679688 1487.867188 C 2204.542969 1117.652344 2067.085938 1068.113281 2061.214844 1066.175781 C 2056.695312 1064.699219 2051.78125 1067.179688 2050.28125 1071.726562 C 2048.785156 1076.269531 2051.242188 1081.15625 2055.808594 1082.652344 C 2057.109375 1083.097656 2187.398438 1130.128906 2182.339844 1489.121094 C 2182.339844 1489.292969 2182.339844 1489.464844 2182.339844 1489.660156 C 2130.507812 1496.882812 2073.714844 1520.140625 2070.890625 1521.316406 C 2066.46875 1523.136719 2064.359375 1528.195312 2066.199219 1532.640625 C 2068.019531 1537.0625 2073.078125 1539.171875 2077.523438 1537.332031 C 2078.164062 1537.0625 2133.160156 1514.539062 2182.386719 1507.171875 C 2089.535156 1556.808594 2024.710938 1606.984375 2023.558594 1607.890625 C 2019.773438 1610.839844 2019.109375 1616.292969 2022.058594 1620.050781 C 2023.753906 1622.257812 2026.308594 1623.390625 2028.886719 1623.390625 Z M 2243.28125 3277.425781 C 2242.570312 3273.542969 2241.882812 3269.761719 2241.167969 3265.90625 C 2239.71875 3283.148438 2238.441406 3304.90625 2238.640625 3327.257812 C 2239.03125 3326.914062 2239.402344 3326.542969 2239.820312 3326.226562 C 2239.820312 3326.226562 2241.5625 3402.925781 2276.417969 3394.207031 C 2309.753906 3385.882812 2389.339844 3309.035156 2426.703125 3322.199219 C 2426.261719 3302.84375 2425.792969 3284.328125 2425.398438 3269.859375 Z M 3158.046875 2216.019531 L 2826.410156 2216.019531 C 2809.925781 2228.273438 2796.070312 2235.519531 2787.179688 2236.921875 C 2758.046875 2241.539062 2629.578125 2241.929688 2528.175781 2241.488281 L 2536.160156 2268.308594 L 2513.386719 2486.179688 L 3158.046875 2486.179688 C 3200.640625 2486.179688 3235.179688 2451.648438 3235.179688 2409.085938 L 3235.179688 2293.113281 C 3235.179688 2250.527344 3200.640625 2216.019531 3158.046875 2216.019531 Z M 1783.492188 2216.019531 C 1741.464844 2216.019531 1707.367188 2249.667969 1706.484375 2291.441406 C 1744.335938 2272.210938 1809.0625 2239.644531 1859.394531 2216.019531 Z M 2102.089844 2375.488281 C 2102.089844 2375.488281 2080.003906 2357.65625 2049.964844 2320.523438 C 2049.863281 2320.421875 2049.765625 2320.300781 2049.691406 2320.203125 C 2048.21875 2318.386719 2046.746094 2316.519531 2045.246094 2314.628906 C 2045.074219 2314.429688 2044.902344 2314.1875 2044.730469 2313.964844 C 2043.257812 2312.097656 2041.757812 2310.183594 2040.261719 2308.21875 C 2040.0625 2307.972656 2039.867188 2307.703125 2039.695312 2307.457031 C 2038.148438 2305.46875 2036.601562 2303.402344 2035.027344 2301.316406 C 2034.929688 2301.167969 2034.832031 2301.046875 2034.734375 2300.898438 C 2024.6875 2287.390625 2014.097656 2271.96875 2003.390625 2254.601562 C 2003.242188 2254.359375 2003.070312 2254.085938 2002.898438 2253.816406 C 2001.300781 2251.214844 1999.679688 2248.511719 1998.058594 2245.8125 C 1997.789062 2245.34375 1997.519531 2244.902344 1997.25 2244.433594 C 1995.675781 2241.808594 1994.105469 2239.105469 1992.53125 2236.378906 C 1992.214844 2235.839844 1991.917969 2235.300781 1991.597656 2234.785156 C 1990.027344 2232.007812 1988.453125 2229.234375 1986.882812 2226.410156 C 1986.660156 2225.964844 1986.414062 2225.550781 1986.195312 2225.132812 C 1984.550781 2222.136719 1982.878906 2219.113281 1981.234375 2216.019531 C 1973.445312 2201.382812 1965.734375 2185.738281 1958.289062 2168.960938 L 1927.019531 2187.605469 C 1928.027344 2187.382812 1928.886719 2187.261719 1929.527344 2187.261719 C 1937.066406 2187.261719 1951.65625 2198.65625 1965.019531 2216.042969 C 1969.394531 2221.71875 1973.617188 2228.054688 1977.425781 2234.832031 C 1977.546875 2235.078125 1977.671875 2235.300781 1977.792969 2235.519531 C 1978.898438 2237.535156 1979.980469 2239.574219 1981.011719 2241.636719 C 1981.160156 2241.929688 1981.28125 2242.199219 1981.429688 2242.496094 C 1983.664062 2247.089844 1985.703125 2251.828125 1987.421875 2256.714844 C 1987.546875 2257.082031 1987.667969 2257.476562 1987.792969 2257.871094 C 1988.480469 2259.835938 1989.09375 2261.800781 1989.660156 2263.8125 C 1989.832031 2264.425781 1990.003906 2265.066406 1990.175781 2265.703125 C 1990.691406 2267.59375 1991.132812 2269.535156 1991.523438 2271.453125 C 1991.648438 2271.992188 1991.769531 2272.53125 1991.867188 2273.097656 C 1992.359375 2275.554688 1992.730469 2278.007812 1993.023438 2280.515625 C 1993.046875 2280.710938 1993.046875 2280.90625 1993.074219 2281.128906 C 1993.292969 2283.3125 1993.441406 2285.546875 1993.515625 2287.757812 C 1993.539062 2288.519531 1993.515625 2289.257812 1993.515625 2290.019531 C 1993.515625 2291.738281 1993.464844 2293.480469 1993.367188 2295.226562 C 1993.316406 2296.011719 1993.269531 2296.796875 1993.195312 2297.609375 C 1993.023438 2299.523438 1992.753906 2301.4375 1992.433594 2303.378906 C 1992.335938 2303.894531 1992.285156 2304.410156 1992.1875 2304.925781 C 1991.722656 2307.332031 1991.132812 2309.714844 1990.417969 2312.097656 C 1990.222656 2312.710938 1989.976562 2313.300781 1989.78125 2313.914062 C 1989.191406 2315.707031 1988.527344 2317.476562 1987.792969 2319.21875 C 1987.449219 2320.007812 1987.078125 2320.792969 1986.710938 2321.578125 C 1985.949219 2323.25 1985.089844 2324.894531 1984.15625 2326.515625 C 1983.761719 2327.226562 1983.371094 2327.9375 1982.953125 2328.625 C 1981.550781 2330.933594 1980.027344 2333.195312 1978.335938 2335.40625 C 1976.46875 2337.835938 1974.453125 2340.367188 1972.390625 2342.945312 C 1971.75 2343.707031 1971.113281 2344.492188 1970.472656 2345.277344 C 1934.878906 2389.09375 1873.691406 2451.621094 1834.609375 2486.179688 L 2182.535156 2486.179688 C 2194.375 2377.527344 2215.402344 2336.265625 2215.402344 2336.265625 C 2203.023438 2330.691406 2191.328125 2324.992188 2180.175781 2319.21875 Z M 1891.746094 3476.113281 L 1989.363281 3476.113281 L 1989.363281 2590.753906 L 1891.746094 2590.753906 Z M 2965.5625 2590.753906 L 3063.179688 2590.753906 L 3063.179688 3471.9375 L 2965.5625 3471.9375 L 2965.5625 2590.753906 " fill-opacity="1" fill-rule="nonzero"/></svg>