<?xml version="1.0" encoding="UTF-8" standalone="no"?>
<svg
   xmlns:dc="http://purl.org/dc/elements/1.1/"
   xmlns:cc="http://creativecommons.org/ns#"
   xmlns:rdf="http://www.w3.org/1999/02/22-rdf-syntax-ns#"
   xmlns:svg="http://www.w3.org/2000/svg"
   xmlns="http://www.w3.org/2000/svg"
   viewBox="0 0 6666.6665 5185.3335"
   height="5185.3335"
   width="6666.6665"
   xml:space="preserve"
   id="svg2"
   version="1.1"><metadata
     id="metadata8"><rdf:RDF><cc:Work
         rdf:about=""><dc:format>image/svg+xml</dc:format><dc:type
           rdf:resource="http://purl.org/dc/dcmitype/StillImage" /></cc:Work></rdf:RDF></metadata><defs
     id="defs6"><radialGradient
       id="radialGradient30"
       spreadMethod="pad"
       gradientTransform="matrix(1981.1405,-1817.9592,-1830.5354,-1994.8455,2500,2562.2871)"
       gradientUnits="userSpaceOnUse"
       r="1"
       cy="0"
       cx="0"
       fy="0"
       fx="0"><stop
         id="stop24"
         offset="0"
         style="stop-opacity:1;stop-color:#8a8a8a" /><stop
         id="stop26"
         offset="0.80957238"
         style="stop-opacity:1;stop-color:#090808" /><stop
         id="stop28"
         offset="1"
         style="stop-opacity:1;stop-color:#090808" /></radialGradient><clipPath
       id="clipPath40"
       clipPathUnits="userSpaceOnUse"><path
         id="path38"
         d="M 0,3889 H 5000 V 0 H 0 Z" /></clipPath></defs><g
     transform="matrix(1.3333333,0,0,-1.3333333,0,5185.3333)"
     id="g10"><g
       id="g12"><g
         id="g14"><g
           id="g20"><g
             id="g22"><path
               id="path32"
               style="fill:url(#radialGradient30);stroke:none"
               d="M 0,0 H 5000 V 3889 H 0 Z" /></g></g></g></g><g
       id="g34"><g
         clip-path="url(#clipPath40)"
         id="g36"><g
           transform="translate(5000.0005,1178.6838)"
           id="g42"><path
             id="path44"
             style="fill:#030303;fill-opacity:1;fill-rule:nonzero;stroke:none"
             d="m 0,0 c -10.526,8.595 -21.532,16.844 -33.294,24.575 -223.96,147.318 -559.351,90.128 -809.638,73.391 -288.633,-19.302 -572.537,2.173 -859.811,-5.502 -344.482,-9.188 -643.872,-123.853 -899.603,-357.152 -13.311,-12.145 -26.284,-24.576 -39.055,-37.179 -309.7,121.975 -797.627,38.834 -954.925,-255.99 -122.813,44.71 -290.518,21.665 -400.23,0.765 -158.413,-30.183 -296.063,-166.982 -386.57,-310.825 -48.662,256.766 -192.04,533.303 -385.985,691.271 -65.007,52.939 -146.034,104.337 -230.889,143.631 v -1132.31 H 0 Z" /></g><g
           transform="translate(1917.3972,1081.427)"
           id="g46"><path
             id="path48"
             style="fill:#ff6600;fill-opacity:1;fill-rule:nonzero;stroke:none"
             d="m 0,0 c 0,-22.278 -38.671,-40.336 -86.377,-40.336 -47.705,0 -86.367,18.058 -86.367,40.336 0,22.279 38.662,40.346 86.367,40.346 C -38.671,40.346 0,22.279 0,0" /></g><g
           transform="translate(2025.3533,1060.7659)"
           id="g50"><path
             id="path52"
             style="fill:#090808;fill-opacity:1;fill-rule:nonzero;stroke:none"
             d="m 0,0 v 3.857 c 0,0 -61.782,0.344 -93.602,0.373 0.068,1.215 0.068,3.082 0,4.479 28.557,5.12 87.621,15.57 87.621,15.57 v 4.517 c 0,0 -77.142,-13.78 -87.898,-15.513 -0.048,15.044 -7.062,40.021 -14.336,52.547 9.465,19.925 16.709,64.242 8.47,87.209 -21.523,-9.579 -40.145,-25.129 -55.036,-38.862 -29.753,4.344 -62.49,2.842 -91.161,-4.23 -16.623,13.828 -44.261,35.12 -69.611,32.881 -5.244,-18.536 12.738,-51.149 29.025,-75.218 -9.282,-18.115 -9.962,-41.829 -4.928,-65.6 -16.326,2.066 -79.745,10.564 -79.745,10.564 l -0.009,-3.243 c 0,0 56.146,-8.767 79.467,-12.326 1.856,-0.441 1.703,-1.522 0.173,-1.751 -31.198,-3.044 -92.091,-9.331 -92.091,-9.331 v -3.243 c 0,0 63.678,5.406 94.234,8.343 0.095,-0.678 0.335,-1.454 0.517,-2.114 -13.857,-4.795 -86.224,-29.676 -86.224,-29.676 l 0.068,-3.694 c 0,0 58.71,19.857 87.036,29.523 1.091,-3.962 2.795,-7.637 4.105,-11.101 -16.794,-22.183 -25.053,-40.441 -24.316,-72.96 0.229,-10.249 4.019,-16.192 -4.699,-28.239 -66.002,-88.205 -92.769,-173.195 -57.275,-270.508 -26.776,-38.72 -21.551,-91.086 20.202,-121.469 61.246,-44.585 208.304,-43.437 274.365,-2.345 44.24,27.533 41.647,70.156 -0.192,91.2 34.25,53.896 36.986,116.186 -17.676,167.729 15.81,61.447 18.374,156.445 -3.397,231.328 1.273,7.475 2.421,12.288 2.871,20.039 17.188,-2.785 92.032,-14.315 92.032,-14.315 l -0.076,3.933 c 0,0 -69.841,11.359 -91.697,15.015 0.067,1.329 0.171,2.641 0.296,4.506 C -62.481,-1.378 0,0 0,0 m -169.479,15.81 c 2.401,5.971 7.683,15.311 12.325,20.412 3.521,-3.264 6.756,-7.637 9.589,-10.642 2.89,-3.014 3.837,-2.393 3.741,1.81 -0.086,4.239 -0.861,10.056 -1.119,14.44 6.497,3.761 19.732,4.708 26.728,4.048 1.876,-22.232 -30.661,-40.748 -51.264,-30.068 m -102.742,20.593 c 6.852,1.608 20.077,2.489 27.035,-0.354 0.344,-4.382 0.374,-10.268 0.87,-14.469 0.48,-4.183 1.484,-4.67 3.943,-1.282 2.393,3.358 5.005,8.134 8.049,11.856 5.291,-4.421 11.808,-12.957 14.986,-18.555 -18.958,-13.378 -53.715,0.536 -54.883,22.804" /></g><g
           transform="translate(5000.0005,1426.2532)"
           id="g54"><path
             id="path56"
             style="fill:#020202;fill-opacity:1;fill-rule:nonzero;stroke:none"
             d="m 0,0 c -176.476,46.835 -383.335,24.402 -565.572,-14.307 -172.628,-36.662 -342.328,-96.797 -490.2,-194.734 -55.389,-36.681 -153.03,-160.676 -214.42,-166.284 -61.83,-5.646 -130.655,80.54 -182.436,108.789 -129.528,70.701 -266.805,130.168 -411.318,162.236 -478.87,106.252 -896.057,-222.209 -995.151,-689.279 -46.189,52.959 -89.329,110.243 -138.398,160.483 -285.389,292.232 -722.591,216.344 -1003.224,-20.592 -214.477,343.418 -661.804,357.505 -999.281,172.063 v -931.27 H 0 Z" /></g><g
           transform="translate(3860.5315,3606.9666)"
           id="g58"><path
             id="path60"
             style="fill:#f9f9f9;fill-opacity:1;fill-rule:nonzero;stroke:none"
             d="m 0,0 c 396.446,-268.556 502.584,-804.184 236.966,-1196.346 -265.637,-392.212 -802.403,-492.445 -1198.897,-223.908 -396.516,268.546 -502.612,804.154 -237.022,1196.35 C -933.317,168.298 -396.522,268.517 0,0" /></g><g
           transform="translate(2822.8186,3458.5154)"
           id="g62"><path
             id="path64"
             style="fill:#eff0f0;fill-opacity:1;fill-rule:nonzero;stroke:none"
             d="m 0,0 c 1.148,-27.393 43.982,-37.843 68.769,-22.507 14.986,9.292 13.157,26.301 23.693,37.709 11.187,12.187 23.963,14.709 36.356,24.704 32.011,25.906 44.318,58.156 -7.121,73.903 L 93.323,126.814 C 83.361,125.086 67.294,96.392 51.179,88.003 29.8,76.793 10.01,89.53 -1.838,58.677 45.59,47.978 -0.909,20.149 0,0 m -145.776,-222.4 c -3.904,-42.993 -6.833,-51.902 -34.968,-84.821 -30.212,-35.451 -37.58,-62.309 -15.885,-107.206 10.028,-20.684 36.326,-67.265 55.925,-39.015 14.852,21.292 -20.536,61.127 -5.685,83.112 11.485,17.14 58.395,16.527 77.094,28.648 34.72,22.537 56.749,64.543 78.96,98.315 l -12.546,36.341 c -4.239,2.646 -8.402,5.526 -12.211,8.722 9.417,39.169 62.155,127.206 -6.565,110.368 -58.375,-14.316 -118.836,-77.75 -124.119,-134.464 m 228.114,-19.45 c 13.35,-9.159 38.69,1.751 44.346,-17.202 3.789,-12.785 -22.662,-32.657 -21.781,-49.04 0.785,-12.762 16.594,-31.241 18.642,-47.677 2.909,-23.163 -13.188,-39.064 12.623,-56.337 18.947,30.499 7.675,69.749 49.025,76.323 23.217,3.713 78.616,-30.633 62.893,23.752 38.92,0.216 89.879,-5.057 109.735,36.308 19.81,41.217 -35.474,55.792 3.187,94.463 l -19.647,34.934 c -9.597,11.068 -16.593,2.422 -25.704,9.025 -11.454,8.234 -8.881,13.684 -15.933,20.795 -15.36,15.503 -15.378,30.996 -44.748,33.628 -30.911,2.741 -47.925,-21.398 -44.71,21.934 1.005,13.263 17.349,43.073 21.456,59.523 -26.242,18.03 -33.083,-6.856 -46.997,-23.675 -21.628,-26.14 -22.097,-23.47 -52.041,-37.805 -28.958,-13.919 -23.063,-13.297 -35.79,-38.524 -10.02,-20.158 -14.843,-27.124 -29.791,-46.533 -22.383,-29.105 -20.977,-68.974 15.235,-93.892 M -47.398,-505.248 c -36.959,-67.753 41.914,-81.228 70.662,-26.968 3.895,7.36 1.646,19.207 7.006,28.695 6.822,11.982 28.679,14.681 32.048,30.102 5.846,26.824 -33.629,50.7 -43.189,75.137 l -36.939,-8.948 c -60.978,3.866 -87.524,-71.491 -29.588,-98.018 m 486.381,295.346 c 34.825,-21.154 113.506,-25.049 143.116,9.306 14.592,16.948 4.851,35.432 14.125,52.825 11.052,20.924 31.569,21.446 47.417,36.533 35.389,33.78 6.938,64.155 21.235,104.592 l -42.451,19.484 c -26.546,12.915 -67.409,1.124 -89.458,19.317 -22.584,18.641 -3.55,70.797 -25.179,81.816 C 470.984,132.699 468.352,62.801 461.922,48.098 442.983,4.962 398.513,11.632 367.563,-21 c -30.03,-31.599 -17.722,-72.903 -16.737,-112.339 32.25,-21.49 55.677,-56.855 88.157,-76.563 m 24.565,-91.598 c -16.823,-31.373 103.028,-102.96 116.78,-126.368 46.806,-79.524 -165.05,-11.187 -50.586,-76.083 70.078,-39.7 74.548,-101.071 50.022,-177.61 -22.118,-69.151 -119.747,-56.638 -145.298,-133.785 -15.666,-47.059 -28.078,-93.228 -6.862,-140.756 13.34,-29.862 52.949,-83.41 91.046,-82.28 39.907,1.2 38.04,40.106 59.448,63.47 34.241,37.03 25.675,-3.497 57.505,1.608 -44.854,-7.168 -29.255,-47.523 -52.242,-72.783 -23.216,-25.416 -68.204,-12.33 -69.39,-59.079 -0.918,-36.196 50.232,-75.236 76.711,-39.742 18.279,24.555 -6.489,66.213 6.899,95.171 24.547,53.054 86.76,43.791 132.704,30.163 -16.478,-51.604 -82.175,-39.063 -96.95,-83.147 -15.992,-47.762 31.446,-61.978 63.82,-66.054 30.967,-3.871 80.376,-23.403 109.745,-10.794 93.42,40.273 -34.479,106.127 26.805,148.704 -22.153,6.162 -94.357,46.174 -56.558,78.49 10.643,9.039 103.202,-7.35 117.776,-12.455 38.03,-13.345 40.317,-43.805 80.941,-52.179 28.766,-5.861 63.572,-5.368 29.312,-48.777 33.494,-2.68 54.5,32.413 80.041,48.6 47.638,30.164 79.506,39.814 112.799,86.286 25.704,36.058 52.231,31.771 84.146,56.787 27.361,21.526 18.202,47.872 31.485,77.008 24.432,53.561 57.926,98.06 72.874,157.709 25.379,101.697 -3.733,283.737 -65.687,367.429 -16.412,-1.641 -32.969,-5.932 -47.332,-14.221 -23.216,-13.345 -50.807,-78.261 -72.443,-81.648 -28.872,-4.537 -33.82,52.341 -39.504,74.189 -18.671,71.835 -40.394,124.096 -98.664,173.992 -46.863,40.155 -141.871,76.109 -203.405,77.869 -143.45,4.143 -41.637,-159.757 -91.496,-224.458 -22.02,-28.484 -49.17,-36.801 -67.706,-71.05 -20.986,-38.978 -15.484,-39.346 -66.481,-17.025 -20.862,9.163 -153.518,83.845 -170.255,52.819 m -147.22,-836.121 c -4.613,4.264 -7.973,12.618 -12.068,17.919 8.057,4.723 16.173,18.279 23.953,22.973 -11.723,9.363 -24.757,15.316 -38.413,20.201 l -19.292,-14.79 c -0.384,-14.91 20.881,-50.279 45.82,-46.303 m 742.343,-4.91 -15.552,13.604 c -53.427,3.493 -10.535,-109.86 15.552,-13.604 m 77.916,41.457 c 27.619,-5.609 78.387,69.883 55.103,91.161 l -14.115,6.469 c -1.57,-4.148 0.976,-7.225 -1.264,-11.583 -24.22,-4.489 -85.735,-76.645 -39.724,-86.047 M 1091.179,1.618 1062.26,36.643 c -67.841,46.552 -142.963,56.649 -216.64,89.462 -37.504,16.7 -153.499,112.742 -180.81,55.443 -24.242,-50.911 34.938,-160.934 93.228,-152.972 32.412,4.397 57.16,32.307 91.563,34.743 47.695,3.335 89.314,-27.131 124.597,-55.433 54.979,-44.212 121.536,-125.655 116.981,-6.268 m -53.466,146.833 c 396.445,-268.555 502.584,-804.183 236.966,-1196.346 -265.637,-392.211 -802.404,-492.444 -1198.897,-223.908 -396.516,268.546 -502.612,804.155 -237.022,1196.35 265.636,392.202 802.43,492.421 1198.953,223.904 M 654.914,-723.677 c 15.742,-61.649 -24.603,-66.505 -59.132,-96.985 -19.178,-17.028 -22.747,-66.165 -56.71,-34.426 19.331,44.24 39.553,84.648 70.51,120.104 24.441,27.829 33.829,56.557 45.332,11.307 m 501.589,181.069 c 0.315,18.584 14.66,30.288 30.9,24.804 7.187,7.044 11.474,15.853 11.694,25.652 l 17.034,-2.277 c -7.464,-33.131 31.809,-23.36 37.619,-47.116 1.445,-5.652 -13.714,-48.903 -15.8,-55.884 -5.206,-16.976 8.403,-43.657 -27.963,-30.077 -20.154,7.507 -26.355,26.575 -11.971,42.829 -15.906,12.298 -42.078,19.302 -41.513,42.069 m -131.308,-161.958 c 2.604,-70.271 -42.718,-126.478 -101.792,-67.425 8.153,14.327 23.015,27.543 28.441,42.95 8.067,22.561 2.679,59.796 33.512,69.266 32.653,10.101 38.883,-17.652 39.839,-44.791 m -234.898,154.818 c 22.709,20.355 92.598,33.408 52.356,-14.354 14.411,-11.412 48.26,-23.413 49.131,-46.13 1.321,-33.518 -36.499,-35.083 -57.571,-26.7 -42.949,17.124 -86.156,49.207 -43.916,87.184 M 663.613,-862.62 c 13.733,-30.642 44.26,-22.618 30.326,-60.022 -6.938,-18.297 -30.977,-4.507 -30.23,-35.25 -33.437,7.039 -48.528,49.309 -23.686,74.156 z m 65.246,3.224 c -3.214,37.323 20.891,79.41 45.121,33.337 21.734,-41.207 -30.431,-87.492 -43.915,-40.442 -0.536,2.206 -0.937,4.608 -1.206,7.105" /></g><g
           transform="translate(2373.9597,3026.5764)"
           id="g66"><path
             id="path68"
             style="fill:#000000;fill-opacity:1;fill-rule:nonzero;stroke:none"
             d="m 0,0 c -19.335,-5.914 -36.725,-6.374 -49.892,-6.761 -5.718,-8.986 -5.096,-26.91 11.981,-31.365 -13.948,-1.832 -20.417,-12.282 -7.962,-25.398 -23.938,7.211 -41.48,21.177 -46.599,49.82 -19.977,18.092 -80.736,15.254 -117.837,-33.509 -32.691,35.935 -120.775,35.652 -164.351,-23.521 -55.447,47.13 -144.527,22.374 -187.223,-31.705 -1.87,69.476 56.624,182.748 207.731,245.727 -7.01,11.149 -13.785,17.545 -29.298,24.872 31.461,15.632 79.821,-8.274 115.775,-31.126 35.973,-22.867 124.463,-35.753 180.37,-21.111 -45.016,24.929 -58.108,55.959 -64.519,76.954 30.388,-12.473 51.763,-19.239 66.811,-17.076 4.617,8.665 14.967,14.345 26.03,17.719 11.063,3.373 22.804,4.425 31.45,-0.187 13.714,6.598 27.691,24.134 45.935,51.441 6.402,-21 12.871,-54.064 -10.666,-99.87 54.63,19.045 120.866,79.109 137.964,118.144 17.091,39.035 43.866,85.845 78.72,90.444 -8.785,-14.738 -10.843,-23.839 -10.469,-37.016 160.56,32.048 272.287,-29.327 309.522,-88.046 C 457.845,249.501 370.1,220.343 350.395,150.307 281.225,175.121 207.978,126.21 200.868,78.146 142.905,97.932 90.903,66.371 84.372,40.211 96.128,13.583 89.353,-7.795 73.505,-27.135 76.52,-9.297 65.308,-4.24 52.738,-10.508 64.404,2.718 54.911,17.952 45.164,22.221 34.034,15.182 18.335,5.613 0,0" /></g><g
           transform="translate(2331.2546,3193.468)"
           id="g70"><path
             id="path72"
             style="fill:#ff6600;fill-opacity:1;fill-rule:nonzero;stroke:none"
             d="m 0,0 c 1.197,-3.886 5.312,-6.091 9.197,-4.89 3.87,1.167 6.081,5.292 4.905,9.182 C 12.933,8.167 8.79,10.374 4.91,9.182 1.009,8.005 -1.163,3.889 0,0" /></g><g
           transform="translate(2302.2102,3184.6199)"
           id="g74"><path
             id="path76"
             style="fill:#ff6600;fill-opacity:1;fill-rule:nonzero;stroke:none"
             d="m 0,0 c 1.187,-3.899 5.292,-6.1 9.182,-4.913 3.876,1.191 6.091,5.32 4.909,9.2 C 12.905,8.178 8.771,10.35 4.9,9.202 0.996,7.992 -1.182,3.862 0,0" /></g><g
           transform="translate(3789.094,3366.2009)"
           id="g78"><path
             id="path80"
             style="fill:#000000;fill-opacity:1;fill-rule:nonzero;stroke:none"
             d="m 0,0 c -11.024,4.627 -19.092,10.996 -25.235,15.805 -5.992,-1.924 -12.48,-10.302 -6.412,-18.786 -7.035,4.45 -13.924,2.149 -13.235,-8.521 -8.144,12.335 -10.824,25.316 -2.307,40.259 -2.239,15.777 -30.911,37.475 -66.222,29.366 -1.254,28.689 -41.379,61.882 -83.563,51.484 -7.349,42.39 -57.189,64.845 -97.038,56.434 25.437,32.268 94.856,61.594 187.327,33.039 1.035,7.718 0.384,13.177 -3.884,22.378 20.192,-4.799 33.121,-33.953 40.805,-57.939 7.695,-24.002 43.017,-63.332 73.955,-77.831 -11.024,28.359 -5.225,47.404 -0.201,59.371 9.091,-17.169 16.239,-28.323 23.896,-33.03 5.368,2.186 12.23,0.856 18.537,-1.804 6.296,-2.651 12.028,-6.622 14.211,-11.982 8.727,-2.191 21.714,0.483 40.326,5.986 C 95.917,92.271 86.348,74.807 58.327,62.902 c 32.021,-12.019 84.835,-9.79 107.372,1.47 22.528,11.273 52.405,22.402 69.984,11.311 -9.57,-3.374 -13.953,-6.732 -18.766,-12.862 85.065,-46.188 112.597,-116.335 107.296,-157.092 -21.839,34.399 -72.731,54.346 -108.186,29.987 -22.03,37.442 -73.802,42.929 -95.218,23.785 -18.844,30.92 -54.415,36.26 -67.277,26.849 -4.737,-16.547 -15.894,-23.7 -30.412,-26.485 8.115,6.967 4.938,13.507 -3.139,15.412 10.297,1.589 11.751,12.1 8.948,17.728 C 21.206,-5.98 10.45,-4.382 0,0" /></g><g
           transform="translate(3832.8362,3458.1716)"
           id="g82"><path
             id="path84"
             style="fill:#ff6600;fill-opacity:1;fill-rule:nonzero;stroke:none"
             d="M 0,0 C -0.937,-2.216 0.097,-4.775 2.326,-5.705 4.518,-6.637 7.082,-5.599 8.021,-3.383 8.958,-1.177 7.914,1.387 5.695,2.311 3.475,3.253 0.929,2.21 0,0" /></g><g
           transform="translate(3816.2815,3465.1379)"
           id="g86"><path
             id="path88"
             style="fill:#ff6600;fill-opacity:1;fill-rule:nonzero;stroke:none"
             d="m 0,0 c -0.919,-2.22 0.104,-4.766 2.325,-5.703 2.201,-0.928 4.776,0.119 5.703,2.32 C 8.957,-1.167 7.904,1.388 5.713,2.335 3.482,3.253 0.928,2.206 0,0" /></g><g
           transform="translate(2530.511,2380.0159)"
           id="g90"><path
             id="path92"
             style="fill:#000000;fill-opacity:1;fill-rule:nonzero;stroke:none"
             d="m 0,0 c -26.374,-49.939 -119.43,33.068 -156.002,38.585 -15.952,2.417 -28.737,-2.305 -40.618,-12.957 6.924,-0.756 13.962,-1.641 19.934,-5.249 -26.992,-8.958 -52.093,-18.106 -73.113,-38.25 -23.264,-22.297 -41.236,-53.96 -54.538,-83.023 -7.416,-16.277 -12.11,-32.417 -9.431,-50.356 19.321,42.328 62.955,81.535 112.751,62.999 10.435,-3.881 19.292,-10.317 27.46,-17.753 10.91,20.638 23.503,46.069 49.974,47.271 22.292,0.994 44.039,-13.423 61.351,-25.906 14.364,17.388 31.619,37.508 56.222,37.284 19.914,-0.178 28.805,-9.403 48.326,-10.781 24.653,-1.775 45.065,19.523 51.122,41.973 5.436,20.216 5.59,32.188 15.484,51.94 12.058,24.054 34.489,48.729 63.447,38.882 -3.482,18.306 -8.794,38.197 -1.799,56.03 7.791,19.924 23.848,31.571 39.409,45.002 -19.694,23.59 -21.991,65.624 -13.876,91.984 7.809,25.27 37.169,56.63 63.217,67.687 -71.906,12.354 -114.941,-57.639 -143.478,-114.842 -4.987,-9.976 -8.977,-20.545 -11.111,-31.498 -7.952,4.631 -6.976,16.245 -2.277,23.164 C 79.544,203.281 90.175,169.337 93.4,160.135 103.697,130.848 96.004,111.158 83.658,83.97 76.769,68.865 70.185,46.452 55.179,37.193 48.662,50.821 49.457,59.122 55.906,73.262 43.494,72.405 25.666,49.887 33.59,38.107 26.814,40.275 18.144,34.222 16.986,26.039 5.072,41.729 -13.456,42.987 -28.887,25.327 -9.589,29.714 7.215,13.647 0,0" /></g><g
           transform="translate(2555.717,2404.5627)"
           id="g94"><path
             id="path96"
             style="fill:#ff6600;fill-opacity:1;fill-rule:nonzero;stroke:none"
             d="M 0,0 C 2.164,-1.139 2.985,-3.79 1.857,-5.947 0.728,-8.091 -1.942,-8.938 -4.115,-7.799 -6.258,-6.67 -7.071,-3.99 -5.933,-1.847 -4.804,0.315 -2.144,1.134 0,0" /></g><g
           transform="translate(2567.7561,2412.4285)"
           id="g98"><path
             id="path100"
             style="fill:#ff6600;fill-opacity:1;fill-rule:nonzero;stroke:none"
             d="M 0,0 C 2.144,-1.129 2.995,-3.794 1.856,-5.952 0.728,-8.115 -1.961,-8.918 -4.096,-7.79 -6.259,-6.651 -7.101,-3.995 -5.953,-1.833 -4.823,0.322 -2.162,1.135 0,0" /></g><g
           transform="translate(4393.9106,2171.6023)"
           id="g102"><path
             id="path104"
             style="fill:#000000;fill-opacity:1;fill-rule:nonzero;stroke:none"
             d="m 0,0 c -40.365,0.047 -18.882,86.548 -27.57,111.52 -3.781,10.891 -11.034,17.408 -21.724,21.375 1.819,-4.643 3.617,-9.379 3.321,-14.364 -14.661,14.09 -28.805,26.914 -48.557,33.498 -21.848,7.288 -47.859,8.106 -70.662,6.833 -12.777,-0.732 -24.547,-3.139 -34.997,-10.809 33.207,1.88 72.548,-12.657 77.4,-50.323 1.033,-7.885 -0.097,-15.631 -2.067,-23.273 16.669,-0.034 36.959,0.473 46.538,-15.862 8.057,-13.771 6.181,-32.327 4.057,-47.432 15.771,-3.287 34.25,-7.498 42.307,-23.135 6.517,-12.651 3.646,-21.345 9.273,-34.155 7.101,-16.178 27.37,-22 43.591,-18.344 14.583,3.296 22.22,7.181 37.991,7.512 19.245,0.377 42.308,-5.585 45.735,-27.174 10.421,8.297 21.224,18.283 34.834,19.805 15.196,1.708 27.914,-4.565 41.589,-9.939 8.355,20.312 34.173,35.772 53.552,39.423 18.576,3.479 48.195,-4.646 63.869,-17.431 -16.144,49.59 -74.75,53.49 -120.435,52.48 -7.962,-0.172 -15.991,-1.172 -23.618,-3.464 0.287,6.569 7.952,9.819 13.885,9.154 -13.264,11.526 -31.188,-6.507 -35.934,-11.618 -15.082,-16.264 -30.107,-17.958 -51.408,-19.202 -11.848,-0.689 -28.212,-3.985 -39.074,2.417 6.441,8.669 11.962,10.928 23.053,11.565 -4.67,7.555 -24.851,11.335 -29.665,2.407 -0.89,4.999 -7.598,8.463 -13.169,6.468 C 28.077,10.699 22.699,22.833 6.383,26.708 15.589,15.962 11.024,-0.015 0,0" /></g><g
           transform="translate(4417.8257,2163.8411)"
           id="g106"><path
             id="path108"
             style="fill:#ff6600;fill-opacity:1;fill-rule:nonzero;stroke:none"
             d="m 0,0 c 0,-1.747 -1.397,-3.148 -3.149,-3.148 -1.732,0 -3.149,1.401 -3.149,3.148 0,1.736 1.417,3.148 3.149,3.148 C -1.397,3.148 0,1.736 0,0" /></g><g
           transform="translate(4426.811,2158.8503)"
           id="g110"><path
             id="path112"
             style="fill:#ff6600;fill-opacity:1;fill-rule:nonzero;stroke:none"
             d="m 0,0 c 0,-1.737 -1.397,-3.163 -3.148,-3.163 -1.742,0 -3.149,1.426 -3.149,3.163 0,1.741 1.407,3.157 3.149,3.157 C -1.397,3.157 0,1.741 0,0" /></g><g
           transform="translate(937.5427,2719.4978)"
           id="g114"><path
             id="path116"
             style="fill:#dbdbdb;fill-opacity:1;fill-rule:nonzero;stroke:none"
             d="M 0,0 1.157,14.264 C 0.636,14.292 0.105,14.273 -0.398,14.221 L -25.235,-4.78 -1.397,15.484 c 0.181,0.464 0.296,0.981 0.363,1.507 l -14.163,1.876 14.239,-1.144 c 0.039,0.527 0.02,1.043 -0.061,1.546 L -20.015,44.131 0.287,20.273 C 0.737,20.082 1.239,19.967 1.765,19.9 L 3.641,34.068 2.502,19.823 C 3.033,19.81 3.55,19.8 4.057,19.896 l 24.853,19 L 5.067,18.613 C 4.89,18.144 4.75,17.647 4.689,17.111 L 18.867,15.226 4.617,16.388 C 4.578,15.861 4.598,15.321 4.656,14.837 L 23.675,-10.015 3.396,13.818 C 2.923,13.977 2.402,14.11 1.889,14.183 Z" /></g><g
           transform="translate(1019.2151,2575.5027)"
           id="g118"><path
             id="path120"
             style="fill:#dbdbdb;fill-opacity:1;fill-rule:nonzero;stroke:none"
             d="m 0,0 2.565,-14.475 c 0.526,0.101 1.048,0.259 1.536,0.445 L 23.843,11.306 5.422,-15.025 c -0.068,-0.507 -0.043,-1.053 0.023,-1.594 L 20.01,-14.8 5.56,-17.365 c 0.101,-0.541 0.254,-1.043 0.464,-1.527 L 31.37,-38.663 4.986,-20.226 c -0.493,0.071 -1.024,0.061 -1.569,-0.01 L 5.234,-34.811 2.665,-20.355 C 2.139,-20.48 1.618,-20.6 1.139,-20.824 l -19.757,-25.341 18.417,26.351 c 0.063,0.511 0.068,1.042 -0.009,1.593 l -14.58,-1.814 14.464,2.546 c -0.094,0.536 -0.257,1.062 -0.445,1.535 L -26.13,3.803 0.215,-14.618 c 0.517,-0.039 1.063,-0.029 1.594,0.029 z" /></g><g
           transform="translate(884.6604,2277.1897)"
           id="g122"><path
             id="path124"
             style="fill:#dbdbdb;fill-opacity:1;fill-rule:nonzero;stroke:none"
             d="m 0,0 -11.919,-7.264 c 0.272,-0.43 0.588,-0.837 0.923,-1.205 l 29.24,-8.719 -29.665,7.207 c -0.47,-0.12 -0.948,-0.326 -1.398,-0.575 l 6.636,-12.259 -7.263,11.9 c -0.435,-0.272 -0.833,-0.584 -1.182,-0.937 l -8.742,-29.251 7.202,29.71 c -0.106,0.464 -0.302,0.929 -0.551,1.383 l -12.268,-6.642 11.9,7.263 c -0.292,0.427 -0.58,0.843 -0.943,1.187 l -29.249,8.733 29.68,-7.192 c 0.474,0.125 0.943,0.296 1.401,0.555 l -6.631,12.278 7.244,-11.924 c 0.441,0.269 0.853,0.604 1.206,0.924 l 8.723,29.264 -7.201,-29.676 c 0.143,-0.464 0.344,-0.947 0.579,-1.397 z" /></g><g
           transform="translate(1137.6604,2207.2634)"
           id="g126"><path
             id="path128"
             style="fill:#dbdbdb;fill-opacity:1;fill-rule:nonzero;stroke:none"
             d="M 0,0 7.421,7.35 C 7.147,7.618 6.847,7.857 6.54,8.072 L -16.264,9.35 6.588,9.25 C 6.904,9.412 7.22,9.646 7.507,9.905 l -6.962,7.78 7.35,-7.408 c 0.277,0.279 0.507,0.57 0.708,0.887 L 9.895,33.982 9.799,11.101 c 0.158,-0.326 0.383,-0.626 0.641,-0.918 l 7.785,6.971 -7.412,-7.355 c 0.288,-0.262 0.57,-0.516 0.9,-0.703 L 34.522,7.804 11.66,7.905 C 11.335,7.728 11.024,7.517 10.737,7.25 l 6.957,-7.786 -7.345,7.422 C 10.077,6.612 9.833,6.307 9.636,6.01 L 8.359,-16.819 8.454,6.043 C 8.268,6.355 8.043,6.675 7.794,6.958 Z" /></g><g
           transform="translate(1494.3186,2632.9778)"
           id="g130"><path
             id="path132"
             style="fill:#dbdbdb;fill-opacity:1;fill-rule:nonzero;stroke:none"
             d="m 0,0 -1.717,-39.02 c 1.421,-0.039 2.865,0.071 4.235,0.268 L 68.367,15.57 5.364,-42.102 c -0.445,-1.273 -0.708,-2.699 -0.851,-4.139 l 38.834,-3.708 -38.959,1.703 c -0.057,-1.454 0.058,-2.857 0.32,-4.22 l 54.319,-65.921 -57.782,63.055 c -1.24,0.473 -2.623,0.751 -4.077,0.88 l -3.699,-38.858 1.689,38.978 c -1.445,-0.009 -2.861,-0.034 -4.229,-0.345 l -65.893,-54.308 62.993,57.711 c 0.459,1.296 0.775,2.659 0.89,4.128 l -38.858,3.733 38.992,-1.751 c 0.052,1.44 -0.063,2.909 -0.268,4.234 l -54.37,65.892 57.695,-62.997 c 1.312,-0.387 2.743,-0.689 4.149,-0.847 z" /></g><g
           transform="translate(1635.5969,1987.8005)"
           id="g134"><path
             id="path136"
             style="fill:#dbdbdb;fill-opacity:1;fill-rule:nonzero;stroke:none"
             d="m 0,0 13.092,-10.412 c 0.368,0.478 0.694,1.005 0.976,1.532 l -2.259,36.489 4.134,-36.341 c 0.33,-0.478 0.752,-0.923 1.221,-1.34 L 28.216,2.455 17.829,-10.618 c 0.488,-0.387 1.004,-0.703 1.54,-0.952 l 36.514,2.24 -36.394,-4.163 c -0.478,-0.306 -0.914,-0.723 -1.33,-1.186 L 30.695,-25.738 17.613,-15.35 c -0.359,-0.503 -0.713,-1 -0.947,-1.55 l 2.244,-36.504 -4.153,36.356 c -0.331,0.478 -0.728,0.933 -1.202,1.349 L 2.484,-28.231 12.9,-15.159 c -0.488,0.379 -1.024,0.709 -1.536,0.972 l -36.513,-2.263 36.351,4.143 c 0.459,0.36 0.923,0.775 1.334,1.225 z" /></g><g
           transform="translate(1777.4636,2117.3606)"
           id="g138"><path
             id="path140"
             style="fill:#dbdbdb;fill-opacity:1;fill-rule:nonzero;stroke:none"
             d="m 0,0 -25.327,-6.211 c 0.244,-0.918 0.584,-1.823 0.968,-2.661 l 47.15,-32.015 -48.758,29.556 c -0.905,0.053 -1.862,-0.047 -2.814,-0.225 l 4.905,-25.58 -6.216,25.279 c -0.938,-0.239 -1.819,-0.57 -2.641,-0.99 l -32.054,-47.165 29.57,48.844 c 0.072,0.88 -0.014,1.823 -0.201,2.776 l -25.594,-4.915 25.293,6.225 c -0.277,0.924 -0.555,1.829 -1.014,2.647 l -47.146,32.044 48.781,-29.547 c 0.92,-0.047 1.852,0.004 2.815,0.202 l -4.896,25.593 6.192,-25.302 c 0.928,0.235 1.851,0.579 2.661,0.962 L 3.703,46.705 -25.848,-2.072 c -0.005,-0.914 0.072,-1.885 0.234,-2.813 z" /></g><g
           transform="translate(1990.2273,2062.1575)"
           id="g142"><path
             id="path144"
             style="fill:#dbdbdb;fill-opacity:1;fill-rule:nonzero;stroke:none"
             d="m 0,0 7.373,-11.24 c 0.403,0.278 0.79,0.599 1.13,0.924 l 7.45,28.422 -5.981,-28.781 c 0.13,-0.445 0.344,-0.895 0.593,-1.325 l 11.589,6.78 -11.221,-7.364 c 0.278,-0.422 0.589,-0.785 0.943,-1.12 l 28.422,-7.468 -28.819,5.975 c -0.435,-0.119 -0.881,-0.315 -1.311,-0.574 L 16.953,-27.36 9.579,-16.145 C 9.182,-16.436 8.79,-16.728 8.47,-17.087 L 1,-45.513 l 5.977,28.79 c -0.135,0.454 -0.321,0.904 -0.585,1.33 l -11.597,-6.77 11.239,7.35 c -0.273,0.416 -0.608,0.803 -0.929,1.133 l -28.436,7.454 28.782,-5.98 c 0.445,0.158 0.903,0.359 1.324,0.598 z" /></g><g
           transform="translate(730.4148,3713.1326)"
           id="g146"><path
             id="path148"
             style="fill:#dbdbdb;fill-opacity:1;fill-rule:nonzero;stroke:none"
             d="m 0,0 10.116,-40.479 c 1.464,0.396 2.918,0.942 4.258,1.56 L 65.275,36.748 18.307,-41.48 c -0.072,-1.435 0.096,-2.986 0.388,-4.497 l 40.896,8.024 -40.413,-10.12 c 0.383,-1.502 0.928,-2.9 1.607,-4.22 l 75.683,-50.978 -78.357,46.987 c -1.412,0.124 -2.914,-0.029 -4.44,-0.335 l 8.038,-40.921 -10.134,40.423 c -1.474,-0.44 -2.923,-0.9 -4.23,-1.627 l -50.949,-75.676 46.949,78.279 c 0.072,1.455 -0.019,2.957 -0.345,4.498 l -40.93,-8 40.461,10.068 c -0.377,1.482 -0.947,2.966 -1.564,4.249 L -74.754,5.603 3.498,-41.346 c 1.46,0 3.015,0.125 4.503,0.392 z" /></g><g
           transform="translate(1071.2312,3735.6223)"
           id="g150"><path
             id="path152"
             style="fill:#dbdbdb;fill-opacity:1;fill-rule:nonzero;stroke:none"
             d="m 0,0 -3.909,21.02 c -0.765,-0.158 -1.526,-0.397 -2.23,-0.671 l -28.383,-37.101 26.45,38.537 c 0.081,0.727 0.043,1.522 -0.057,2.307 l -21.159,-2.823 20.977,3.913 C -8.459,25.958 -8.689,26.689 -9,27.388 L -46.111,55.815 -7.512,29.34 c 0.723,-0.096 1.493,-0.067 2.283,0.043 l -2.833,21.169 3.924,-20.987 c 0.765,0.187 1.521,0.373 2.21,0.708 L 26.48,67.371 0.038,28.814 C -0.047,28.072 -0.047,27.302 0.072,26.507 L 21.25,29.322 0.249,25.431 c 0.149,-0.77 0.393,-1.54 0.665,-2.221 L 38.05,-5.187 -0.502,21.254 c -0.747,0.048 -1.545,0.028 -2.316,-0.062 z" /></g><g
           transform="translate(4742.8325,3565.6394)"
           id="g154"><path
             id="path156"
             style="fill:#dbdbdb;fill-opacity:1;fill-rule:nonzero;stroke:none"
             d="m 0,0 2.871,-11.934 c 0.431,0.11 0.852,0.273 1.253,0.445 L 19.283,10.636 5.272,-12.249 c -0.018,-0.421 0.021,-0.876 0.107,-1.326 l 12.047,2.259 -11.905,-2.876 c 0.097,-0.445 0.259,-0.852 0.46,-1.244 L 28.106,-30.618 5.177,-16.599 c -0.41,0.033 -0.861,-0.005 -1.301,-0.086 L 6.135,-28.743 3.254,-16.828 C 2.823,-16.958 2.401,-17.087 2,-17.302 l -15.168,-22.121 14.001,22.897 c 0.028,0.435 0,0.87 -0.076,1.324 l -12.059,-2.244 11.924,2.852 c -0.114,0.44 -0.277,0.876 -0.46,1.258 L -21.973,1.837 0.919,-12.173 c 0.431,0 0.89,0.029 1.33,0.105 z" /></g><g
           transform="translate(199.6492,2568.052)"
           id="g158"><path
             id="path160"
             style="fill:#dbdbdb;fill-opacity:1;fill-rule:nonzero;stroke:none"
             d="m 0,0 -0.426,-14.369 c 0.526,-0.005 1.057,0.038 1.56,0.124 L 25.068,6.086 2.201,-15.464 c -0.163,-0.47 -0.249,-0.996 -0.292,-1.527 l 14.306,-1.158 -14.344,0.421 c -0.015,-0.536 0.038,-1.047 0.138,-1.55 L 22.34,-43.246 0.75,-20.351 c -0.459,0.168 -0.97,0.264 -1.506,0.302 l -1.154,-14.312 0.417,14.346 c -0.531,-0.014 -1.053,-0.024 -1.555,-0.153 l -23.958,-20.326 22.877,21.565 c 0.157,0.479 0.267,0.985 0.305,1.526 l -14.316,1.163 14.349,-0.436 c 0.015,0.527 -0.033,1.072 -0.119,1.555 L -24.254,8.833 -2.699,-14.034 c 0.483,-0.139 1.01,-0.239 1.531,-0.287 z" /></g><g
           transform="translate(358.717,2339.4124)"
           id="g162"><path
             id="path164"
             style="fill:#dbdbdb;fill-opacity:1;fill-rule:nonzero;stroke:none"
             d="M 0,0 6.837,8.914 C 6.507,9.152 6.148,9.368 5.794,9.545 l -24.47,-1.943 24.351,3.202 c 0.315,0.225 0.613,0.521 0.885,0.838 l -8.541,7.268 8.899,-6.819 c 0.249,0.335 0.455,0.68 0.623,1.043 L 5.604,37.623 8.823,13.244 C 9.038,12.928 9.321,12.636 9.637,12.359 L 16.919,20.91 10.096,12 c 0.344,-0.235 0.679,-0.464 1.053,-0.612 L 35.628,13.32 11.273,10.11 C 10.948,9.875 10.651,9.607 10.378,9.282 l 8.546,-7.287 -8.9,6.842 C 9.775,8.507 9.556,8.138 9.393,7.794 L 11.34,-16.69 8.13,7.665 C 7.886,7.971 7.599,8.272 7.292,8.545 Z" /></g><g
           transform="translate(1822.2166,2881.8005)"
           id="g166"><path
             id="path168"
             style="fill:#dbdbdb;fill-opacity:1;fill-rule:nonzero;stroke:none"
             d="M 0,0 13.283,1 C 13.235,1.484 13.144,1.972 13.02,2.425 L -8.034,22.517 14.039,3.526 c 0.449,-0.105 0.942,-0.133 1.435,-0.124 l -0.32,13.297 1.004,-13.254 c 0.493,0.039 0.967,0.129 1.416,0.278 L 37.695,24.776 18.685,2.661 C 18.57,2.225 18.537,1.747 18.551,1.249 L 31.858,1.569 18.589,0.564 c 0.067,-0.487 0.129,-0.966 0.291,-1.42 L 39.93,-20.968 17.848,-1.977 c -0.46,0.102 -0.938,0.158 -1.436,0.14 l 0.306,-13.307 -0.981,13.269 c -0.493,-0.039 -0.985,-0.14 -1.426,-0.264 L -5.794,-23.207 13.197,-1.129 c 0.076,0.459 0.124,0.957 0.115,1.44 z" /></g><g
           transform="translate(1767.3625,2780.696)"
           id="g170"><path
             id="path172"
             style="fill:#dbdbdb;fill-opacity:1;fill-rule:nonzero;stroke:none"
             d="m 0,0 0.66,11.345 c -0.411,0.015 -0.836,-0.01 -1.234,-0.062 l -19.379,-15.527 18.56,16.513 c 0.14,0.369 0.221,0.779 0.269,1.2 l -11.278,1.24 11.326,-0.655 c 0.018,0.421 -0.005,0.827 -0.076,1.229 L -16.675,34.676 -0.133,16.102 C 0.22,15.953 0.627,15.871 1.048,15.828 L 2.282,27.116 1.631,15.785 c 0.417,-0.004 0.833,-0.004 1.23,0.081 L 22.254,31.389 3.694,14.862 C 3.555,14.489 3.46,14.092 3.417,13.67 L 14.699,12.422 3.369,13.091 C 3.344,12.676 3.374,12.245 3.431,11.857 L 18.968,-7.532 2.45,11.034 c -0.383,0.115 -0.794,0.211 -1.205,0.258 z" /></g><g
           transform="translate(1103.4006,3468.6648)"
           id="g174"><path
             id="path176"
             style="fill:#dbdbdb;fill-opacity:1;fill-rule:nonzero;stroke:none"
             d="m 0,0 -11.517,9.249 c -0.336,-0.421 -0.623,-0.89 -0.872,-1.35 l 1.858,-32.235 -3.512,32.116 c -0.288,0.416 -0.666,0.818 -1.073,1.181 L -24.93,-2.058 -15.7,9.449 c -0.43,0.341 -0.884,0.618 -1.359,0.843 l -32.25,-1.837 32.15,3.54 c 0.426,0.268 0.814,0.632 1.182,1.043 l -11.029,9.814 11.512,-9.225 c 0.321,0.445 0.632,0.876 0.842,1.364 l -1.842,32.245 3.526,-32.116 c 0.292,-0.431 0.637,-0.837 1.063,-1.196 l 9.823,11.019 -9.249,-11.507 c 0.426,-0.335 0.904,-0.627 1.349,-0.861 l 32.255,1.861 -32.111,-3.521 c -0.416,-0.312 -0.823,-0.686 -1.186,-1.078 z" /></g><g
           transform="translate(1108.8167,3209.0374)"
           id="g178"><path
             id="path180"
             style="fill:#dbdbdb;fill-opacity:1;fill-rule:nonzero;stroke:none"
             d="m 0,0 -12.915,-7.919 c 0.297,-0.464 0.643,-0.909 1.006,-1.307 l 31.757,-9.368 -32.217,7.728 c -0.507,-0.129 -1.019,-0.355 -1.517,-0.622 l 7.24,-13.288 -7.914,12.891 c -0.474,-0.302 -0.899,-0.637 -1.283,-1.024 l -9.397,-31.772 7.722,32.265 c -0.114,0.501 -0.33,1.009 -0.597,1.502 l -13.293,-7.245 12.895,7.919 c -0.32,0.46 -0.636,0.915 -1.033,1.283 l -31.767,9.393 32.23,-7.718 c 0.513,0.133 1.025,0.33 1.522,0.607 l -7.234,13.297 7.9,-12.91 c 0.473,0.297 0.923,0.651 1.306,1.006 l 9.368,31.781 -7.717,-32.221 c 0.157,-0.503 0.373,-1.029 0.626,-1.517 z" /></g><g
           transform="translate(1264.9084,3045.6868)"
           id="g182"><path
             id="path184"
             style="fill:#dbdbdb;fill-opacity:1;fill-rule:nonzero;stroke:none"
             d="M 0,0 10.427,0.722 C 10.393,1.105 10.321,1.484 10.229,1.837 L -6.196,17.708 11.034,2.704 C 11.383,2.618 11.776,2.589 12.158,2.598 L 11.972,13.034 12.694,2.623 c 0.393,0.028 0.761,0.105 1.116,0.215 L 29.695,19.264 14.676,2 C 14.584,1.66 14.556,1.283 14.56,0.895 L 25.006,1.077 14.589,0.354 c 0.049,-0.382 0.1,-0.761 0.22,-1.114 l 16.427,-15.886 -17.24,15.01 c -0.359,0.081 -0.732,0.129 -1.124,0.115 L 13.048,-11.967 12.34,-1.545 C 11.953,-1.579 11.57,-1.65 11.22,-1.746 L -4.661,-18.183 10.35,-0.947 c 0.062,0.358 0.105,0.751 0.105,1.13 z" /></g><g
           transform="translate(2071.3313,3815.1843)"
           id="g186"><path
             id="path188"
             style="fill:#dbdbdb;fill-opacity:1;fill-rule:nonzero;stroke:none"
             d="m 0,0 -1.383,-9.043 c 0.325,-0.043 0.67,-0.058 0.99,-0.043 L 16.316,1.9 0.186,-9.942 c -0.134,-0.279 -0.234,-0.609 -0.301,-0.943 l 8.952,-1.843 -9.029,1.378 c -0.047,-0.335 -0.062,-0.66 -0.034,-0.985 l 10.987,-16.728 -11.866,16.145 c -0.278,0.143 -0.594,0.239 -0.924,0.305 l -1.846,-8.952 1.377,9.034 c -0.335,0.033 -0.67,0.066 -0.996,0.028 l -16.717,-10.986 16.129,11.847 c 0.144,0.292 0.249,0.603 0.311,0.943 l -8.958,1.852 9.04,-1.397 c 0.052,0.34 0.062,0.684 0.047,0.995 l -11,16.718 11.847,-16.13 c 0.292,-0.119 0.618,-0.229 0.943,-0.3 z" /></g><g
           transform="translate(1995.4758,3464.8225)"
           id="g190"><path
             id="path192"
             style="fill:#dbdbdb;fill-opacity:1;fill-rule:nonzero;stroke:none"
             d="m 0,0 -15.675,36.905 c -1.33,-0.592 -2.626,-1.329 -3.808,-2.114 l -36.958,-79.463 32.842,81.3 c -0.152,1.378 -0.54,2.813 -1.043,4.211 l -37.613,-13.752 36.838,15.665 c -0.588,1.373 -1.311,2.623 -2.157,3.771 l -79.487,37.03 81.424,-32.848 c 1.359,0.106 2.766,0.469 4.163,0.986 l -13.765,37.637 15.683,-36.857 c 1.331,0.651 2.638,1.296 3.766,2.191 l 37.012,79.467 -32.82,-81.333 c 0.148,-1.407 0.464,-2.809 1,-4.22 L 27.044,62.313 -9.841,46.676 c 0.583,-1.354 1.344,-2.665 2.124,-3.799 L 71.797,5.895 -9.521,38.724 c -1.388,-0.221 -2.848,-0.574 -4.221,-1.053 z" /></g><g
           transform="translate(2178.9329,3531.6189)"
           id="g194"><path
             id="path196"
             style="fill:#dbdbdb;fill-opacity:1;fill-rule:nonzero;stroke:none"
             d="m 0,0 22.202,-12.876 c 0.455,0.813 0.832,1.689 1.134,2.545 L 11.737,44.552 26.154,-9.689 c 0.603,-0.651 1.355,-1.234 2.149,-1.757 L 42.284,10.043 29.432,-12.129 c 0.827,-0.474 1.679,-0.833 2.555,-1.101 L 86.908,-1.66 32.6,-16.115 c -0.651,-0.579 -1.23,-1.302 -1.752,-2.106 L 52.351,-32.202 30.169,-19.36 c -0.431,-0.841 -0.852,-1.674 -1.091,-2.564 L 40.653,-76.83 26.216,-22.58 c -0.612,0.665 -1.315,1.264 -2.133,1.78 L 10.082,-42.293 22.973,-20.12 c -0.824,0.463 -1.718,0.851 -2.551,1.129 L -34.494,-30.6 19.752,-16.173 c 0.622,0.646 1.23,1.388 1.751,2.163 z" /></g><g
           transform="translate(4472.6411,3084.6638)"
           id="g198"><path
             id="path200"
             style="fill:#dbdbdb;fill-opacity:1;fill-rule:nonzero;stroke:none"
             d="m 0,0 -8.871,-36.034 c 1.32,-0.302 2.679,-0.469 4,-0.546 L 66.596,1.756 -2.843,-40.22 c -0.66,-1.106 -1.167,-2.384 -1.569,-3.7 l 35.494,-10.694 -35.981,8.847 c -0.326,-1.344 -0.48,-2.664 -0.489,-3.99 l 38.307,-71.539 -42.067,69.515 c -1.063,0.675 -2.317,1.182 -3.637,1.584 l -10.69,-35.513 8.832,35.996 c -1.338,0.258 -2.669,0.507 -4,0.464 l -71.513,-38.308 69.447,42.026 c 0.669,1.119 1.215,2.33 1.607,3.68 l -35.503,10.718 35.991,-8.9 c 0.316,1.329 0.488,2.722 0.536,3.99 l -38.364,71.52 42.01,-69.443 c 1.149,-0.603 2.422,-1.148 3.703,-1.559 z" /></g><g
           transform="translate(4212.3149,3748.6555)"
           id="g202"><path
             id="path204"
             style="fill:#dbdbdb;fill-opacity:1;fill-rule:nonzero;stroke:none"
             d="m 0,0 -12.948,-7.048 c 0.268,-0.468 0.574,-0.914 0.91,-1.316 l 30.393,-10.694 -30.919,9.12 c -0.499,-0.109 -1.005,-0.297 -1.503,-0.531 l 6.374,-13.273 -7.044,12.923 c -0.479,-0.272 -0.909,-0.578 -1.302,-0.928 l -10.717,-30.407 9.11,30.967 c -0.086,0.493 -0.258,0.996 -0.507,1.488 l -13.284,-6.378 12.939,7.053 c -0.296,0.464 -0.583,0.919 -0.939,1.297 L -49.839,2.986 -18.91,-6.125 c 0.517,0.106 1.015,0.269 1.513,0.518 l -6.365,13.283 7.034,-12.94 c 0.469,0.264 0.928,0.59 1.302,0.91 l 10.708,30.417 -9.12,-30.924 c 0.135,-0.502 0.316,-1.024 0.536,-1.508 z" /></g><g
           transform="translate(1321.6091,1324.8909)"
           id="g206"><path
             id="path208"
             style="fill:#dbdbdb;fill-opacity:1;fill-rule:nonzero;stroke:none"
             d="M 0,0 3.057,13.359 C 2.565,13.455 2.063,13.513 1.575,13.531 L -24.57,-1.071 0.804,14.871 c 0.235,0.402 0.416,0.881 0.55,1.369 l -13.167,3.723 13.339,-3.044 c 0.11,0.498 0.163,0.996 0.158,1.474 L -12.909,44.576 3.057,19.168 C 3.455,18.929 3.918,18.747 4.412,18.604 L 8.134,31.791 5.097,18.441 C 5.593,18.354 6.086,18.278 6.579,18.297 L 32.739,32.881 7.364,16.938 C 7.125,16.518 6.929,16.067 6.795,15.56 L 19.972,11.828 6.627,14.891 C 6.518,14.402 6.464,13.885 6.455,13.417 L 21.062,-12.747 5.125,12.622 C 4.694,12.843 4.22,13.033 3.742,13.178 Z" /></g><g
           transform="translate(2489.0447,1710.3694)"
           id="g210"><path
             id="path212"
             style="fill:#dbdbdb;fill-opacity:1;fill-rule:nonzero;stroke:none"
             d="M 0,0 -4.746,15.063 C -5.292,14.881 -5.828,14.632 -6.315,14.374 L -23.81,-15.369 -7.866,15.254 c 0,0.536 -0.096,1.12 -0.249,1.684 l -15.254,-3.961 15.025,4.747 c -0.173,0.554 -0.422,1.071 -0.709,1.549 l -29.742,17.513 30.67,-15.943 c 0.537,-0.01 1.101,0.076 1.667,0.23 l -3.973,15.274 4.747,-15.045 c 0.555,0.211 1.091,0.412 1.569,0.718 L 13.388,51.753 -2.545,21.13 c 0,-0.555 0.077,-1.11 0.23,-1.685 L 12.958,23.398 -2.086,18.67 c 0.172,-0.555 0.421,-1.101 0.68,-1.568 L 28.366,-0.401 -2.268,15.541 c -0.545,-0.038 -1.138,-0.124 -1.694,-0.249 z" /></g><g
           transform="translate(2318.1008,1839.1301)"
           id="g214"><path
             id="path216"
             style="fill:#dbdbdb;fill-opacity:1;fill-rule:nonzero;stroke:none"
             d="m 0,0 15.627,-1.81 c 0.058,0.566 0.048,1.149 0.01,1.705 L -4.277,27.905 17.063,0.947 c 0.498,-0.22 1.062,-0.363 1.646,-0.46 L 21.312,15.972 19.513,0.373 c 0.574,-0.058 1.138,-0.058 1.694,0.01 L 49.236,20.297 22.259,-1.091 c -0.23,-0.488 -0.373,-1.034 -0.469,-1.617 l 15.494,-2.604 -15.609,1.799 c -0.028,-0.574 -0.056,-1.148 0.02,-1.703 L 41.609,-33.246 20.24,-6.277 c -0.498,0.219 -1.033,0.382 -1.627,0.467 l -2.622,-15.492 1.837,15.609 c -0.583,0.056 -1.167,0.056 -1.713,0.018 l -28.029,-19.943 26.967,21.359 c 0.192,0.518 0.345,1.072 0.46,1.637 z" /></g><g
           transform="translate(2549.2581,1972.6184)"
           id="g218"><path
             id="path220"
             style="fill:#dbdbdb;fill-opacity:1;fill-rule:nonzero;stroke:none"
             d="m 0,0 9.358,-10.938 c 0.384,0.354 0.747,0.747 1.073,1.139 l 4.057,31.197 -2.449,-31.389 c 0.2,-0.441 0.497,-0.899 0.813,-1.321 l 11.388,8.776 -10.92,-9.35 c 0.355,-0.402 0.729,-0.746 1.149,-1.052 l 31.217,-4.077 -31.428,2.431 c -0.458,-0.182 -0.9,-0.46 -1.32,-0.786 l 8.786,-11.387 -9.36,10.909 c -0.384,-0.363 -0.757,-0.727 -1.052,-1.148 l -4.068,-31.207 2.44,31.389 c -0.209,0.459 -0.468,0.909 -0.804,1.33 l -11.398,-8.766 10.939,9.34 c -0.344,0.402 -0.746,0.765 -1.139,1.072 l -31.225,4.057 31.387,-2.449 c 0.46,0.23 0.92,0.517 1.331,0.822 z" /></g><g
           transform="translate(2648.5159,1899.467)"
           id="g222"><path
             id="path224"
             style="fill:#dbdbdb;fill-opacity:1;fill-rule:nonzero;stroke:none"
             d="m 0,0 -3.79,-10.699 c 0.393,-0.133 0.804,-0.23 1.205,-0.286 l 22.929,9.512 -22.431,-10.699 c -0.23,-0.307 -0.421,-0.681 -0.594,-1.072 l 10.498,-4.325 -10.689,3.779 c -0.143,-0.401 -0.229,-0.794 -0.277,-1.205 l 9.512,-22.948 -10.718,22.45 c -0.296,0.239 -0.669,0.43 -1.063,0.584 l -4.325,-10.489 3.78,10.699 c -0.401,0.115 -0.794,0.23 -1.206,0.268 l -22.948,-9.512 22.422,10.699 c 0.249,0.325 0.45,0.669 0.613,1.072 l -10.499,4.344 10.689,-3.809 c 0.145,0.403 0.241,0.824 0.288,1.206 l -9.531,22.949 10.708,-22.432 c 0.335,-0.211 0.708,-0.421 1.081,-0.583 z" /></g><g
           transform="translate(1538.9138,3559.4236)"
           id="g226"><path
             id="path228"
             style="fill:#dbdbdb;fill-opacity:1;fill-rule:nonzero;stroke:none"
             d="m 0,0 -5.799,-14.876 c 0.546,-0.206 1.12,-0.349 1.679,-0.459 l 32.633,12.374 -31.972,-14.04 c -0.34,-0.435 -0.627,-0.951 -0.872,-1.492 l 14.542,-6.546 -14.852,5.789 C -4.856,-19.809 -5,-20.364 -5.076,-20.928 L 7.283,-53.586 -6.794,-21.579 c -0.416,0.344 -0.919,0.631 -1.46,0.875 l -6.545,-14.555 5.779,14.866 c -0.559,0.187 -1.11,0.368 -1.679,0.426 l -32.652,-12.359 31.973,14.053 c 0.349,0.445 0.655,0.933 0.89,1.483 l -14.551,6.556 14.862,-5.805 c 0.21,0.55 0.359,1.129 0.45,1.67 L -22.105,18.283 -8.052,-13.68 c 0.448,-0.33 0.966,-0.631 1.492,-0.88 z" /></g><g
           transform="translate(1445.5901,3644.4944)"
           id="g230"><path
             id="path232"
             style="fill:#dbdbdb;fill-opacity:1;fill-rule:nonzero;stroke:none"
             d="M 0,0 -5.388,13.579 C -5.881,13.378 -6.359,13.12 -6.795,12.842 l -14.148,-28.633 12.665,29.337 c -0.043,0.501 -0.172,1.029 -0.349,1.545 l -13.819,-4.689 13.556,5.393 c -0.201,0.506 -0.455,0.961 -0.752,1.392 L -38.283,31.359 -8.905,18.694 c 0.498,0.029 1.014,0.143 1.527,0.326 l -4.69,13.823 5.398,-13.556 c 0.492,0.226 0.976,0.45 1.392,0.766 L 8.89,48.681 -3.766,19.335 c 0.038,-0.511 0.139,-1.029 0.326,-1.55 l 13.832,4.684 -13.574,-5.378 c 0.201,-0.498 0.469,-0.986 0.742,-1.407 L 26.207,1.531 -3.134,14.191 c -0.508,-0.066 -1.044,-0.186 -1.545,-0.348 z" /></g><g
           transform="translate(184.3943,2043.5876)"
           id="g234"><path
             id="path236"
             style="fill:#dbdbdb;fill-opacity:1;fill-rule:nonzero;stroke:none"
             d="M 0,0 33.878,3.751 C 33.724,4.995 33.437,6.22 33.083,7.378 l -55.686,49.48 58.189,-46.58 c 1.157,-0.211 2.42,-0.249 3.684,-0.173 l -2.024,33.982 3.775,-33.819 c 1.254,0.144 2.45,0.431 3.589,0.843 L 94.157,66.802 47.548,8.507 C 47.299,7.368 47.256,6.143 47.333,4.88 L 81.338,6.91 47.505,3.119 c 0.201,-1.244 0.412,-2.458 0.861,-3.598 l 55.686,-49.514 -58.227,46.557 c -1.181,0.221 -2.397,0.316 -3.679,0.221 l 2,-34.012 -3.728,33.858 c -1.244,-0.153 -2.502,-0.45 -3.612,-0.803 l -49.514,-55.735 46.566,58.222 c 0.163,1.167 0.225,2.45 0.173,3.675 z" /></g><g
           transform="translate(461.9031,2209.4885)"
           id="g238"><path
             id="path240"
             style="fill:#dbdbdb;fill-opacity:1;fill-rule:nonzero;stroke:none"
             d="m 0,0 4.56,-8.082 c 0.292,0.172 0.569,0.373 0.818,0.583 L 11.823,11.737 6.377,-7.814 C 6.445,-8.125 6.574,-8.446 6.722,-8.756 L 15.02,-4.617 6.952,-9.173 C 7.124,-9.469 7.325,-9.747 7.55,-9.981 l 19.241,-6.46 -19.581,5.445 c -0.311,-0.058 -0.622,-0.182 -0.933,-0.34 l 4.148,-8.297 -4.569,8.073 c -0.287,-0.188 -0.569,-0.369 -0.809,-0.603 l -6.449,-19.235 5.435,19.561 c -0.066,0.315 -0.177,0.63 -0.335,0.937 l -8.302,-4.129 8.078,4.55 C 3.306,-10.182 3.096,-9.9 2.885,-9.661 L -16.36,-3.22 3.191,-8.661 c 0.316,0.087 0.642,0.206 0.947,0.354 z" /></g><g
           transform="translate(1089.4622,1903.1995)"
           id="g242"><path
             id="path244"
             style="fill:#dbdbdb;fill-opacity:1;fill-rule:nonzero;stroke:none"
             d="m 0,0 10.555,12.823 c -0.473,0.374 -0.99,0.709 -1.508,0.996 L -27.212,12.183 8.933,15.685 C 9.411,16 9.866,16.412 10.277,16.871 L -1.972,28.049 10.833,17.522 c 0.392,0.478 0.712,0.976 0.971,1.512 l -1.613,36.283 3.522,-36.186 c 0.302,-0.48 0.704,-0.939 1.163,-1.341 L 26.058,30.039 15.527,17.226 c 0.493,-0.365 0.981,-0.718 1.526,-0.967 L 53.322,17.886 17.167,14.364 C 16.684,14.049 16.226,13.656 15.809,13.197 L 28.063,2 15.258,12.546 c -0.382,-0.469 -0.717,-0.995 -0.99,-1.502 l 1.646,-36.279 -3.517,36.154 c -0.344,0.459 -0.751,0.919 -1.191,1.34 z" /></g><g
           transform="translate(985.2903,1737.0686)"
           id="g246"><path
             id="path248"
             style="fill:#dbdbdb;fill-opacity:1;fill-rule:nonzero;stroke:none"
             d="m 0,0 1.296,14.029 c -0.511,0.038 -1.032,0.03 -1.525,-0.018 L -24.905,-4.431 -1.2,15.264 c 0.186,0.45 0.301,0.958 0.377,1.474 l -13.928,2.01 14.009,-1.283 c 0.048,0.516 0.034,1.024 -0.038,1.521 L -19.211,43.687 0.513,19.963 C 0.953,19.762 1.45,19.647 1.967,19.571 L 3.977,33.514 2.694,19.493 c 0.521,-0.018 1.029,-0.038 1.527,0.048 L 28.91,37.974 5.207,18.269 C 5.019,17.81 4.886,17.322 4.813,16.795 L 18.752,14.776 4.732,16.087 C 4.689,15.569 4.704,15.035 4.757,14.556 L 23.202,-10.134 3.507,13.561 c -0.468,0.171 -0.976,0.305 -1.483,0.382 z" /></g><g
           transform="translate(567.6052,2994.637)"
           id="g250"><path
             id="path252"
             style="fill:#dbdbdb;fill-opacity:1;fill-rule:nonzero;stroke:none"
             d="m 0,0 15.823,11.494 c -0.425,0.564 -0.918,1.1 -1.421,1.573 l -41.81,8.857 42.227,-6.699 c 0.64,0.226 1.283,0.566 1.895,0.958 L 6.053,32.547 17.536,16.762 c 0.584,0.43 1.101,0.909 1.555,1.435 l 8.887,41.829 -6.69,-42.293 c 0.201,-0.631 0.526,-1.258 0.923,-1.871 L 38.585,26.533 22.799,15.039 c 0.45,-0.56 0.9,-1.11 1.451,-1.55 L 66.064,4.612 23.819,11.293 C 23.168,11.067 22.537,10.767 21.924,10.355 L 32.58,-6.029 21.106,9.791 C 20.527,9.364 19.986,8.862 19.532,8.365 L 10.674,-33.47 17.36,8.767 c -0.254,0.635 -0.585,1.286 -0.963,1.889 z" /></g><g
           transform="translate(438.1414,2892.4417)"
           id="g254"><path
             id="path256"
             style="fill:#dbdbdb;fill-opacity:1;fill-rule:nonzero;stroke:none"
             d="M 0,0 11.096,1.738 C 11.024,2.144 10.914,2.541 10.775,2.919 L -8.288,18.379 11.556,3.914 C 11.942,3.857 12.359,3.867 12.775,3.905 L 11.607,15.063 13.345,3.986 c 0.416,0.067 0.803,0.177 1.176,0.331 L 29.996,23.384 15.521,3.502 C 15.459,3.13 15.459,2.724 15.502,2.307 L 26.666,3.479 15.589,1.733 c 0.086,-0.407 0.167,-0.809 0.34,-1.172 L 34.992,-14.914 15.134,-0.45 c -0.392,0.054 -0.795,0.063 -1.22,0.015 L 15.086,-11.599 13.35,-0.511 C 12.948,-0.574 12.536,-0.694 12.177,-0.827 L -3.297,-19.914 11.167,-0.057 c 0.039,0.392 0.039,0.814 0.005,1.216 z" /></g><g
           transform="translate(416.7483,3577.2664)"
           id="g258"><path
             id="path260"
             style="fill:#dbdbdb;fill-opacity:1;fill-rule:nonzero;stroke:none"
             d="m 0,0 8.737,-14.905 c 0.535,0.326 1.048,0.709 1.507,1.115 L 21.651,22.216 12.105,-14.35 c 0.144,-0.578 0.388,-1.167 0.679,-1.741 l 15.317,7.957 -14.876,-8.733 c 0.326,-0.554 0.703,-1.047 1.129,-1.487 l 36.021,-11.431 -36.619,9.535 c -0.574,-0.124 -1.153,-0.358 -1.727,-0.655 l 7.967,-15.326 -8.743,14.881 c -0.53,-0.345 -1.052,-0.693 -1.483,-1.138 L -1.661,-58.5 7.871,-21.924 c -0.14,0.589 -0.355,1.177 -0.661,1.751 l -15.331,-7.952 14.905,8.717 c -0.325,0.552 -0.722,1.068 -1.119,1.508 l -36.03,11.412 36.571,-9.532 c 0.578,0.168 1.187,0.398 1.746,0.68 z" /></g><g
           transform="translate(614.1809,3394.054)"
           id="g262"><path
             id="path264"
             style="fill:#dbdbdb;fill-opacity:1;fill-rule:nonzero;stroke:none"
             d="M 0,0 6.053,15.134 C 5.499,15.345 4.915,15.503 4.35,15.613 L -29.078,3.296 3.689,17.326 c 0.354,0.435 0.651,0.962 0.91,1.512 l -14.79,6.814 15.115,-6.043 c 0.22,0.569 0.372,1.133 0.454,1.707 L -6.933,54.778 7.139,21.967 C 7.56,21.608 8.068,21.312 8.623,21.063 L 15.436,35.858 9.397,20.737 c 0.57,-0.195 1.129,-0.386 1.718,-0.449 L 44.562,32.6 11.786,18.546 c -0.36,-0.444 -0.671,-0.938 -0.919,-1.502 l 14.795,-6.828 -15.126,6.067 c -0.215,-0.56 -0.373,-1.158 -0.473,-1.708 L 22.394,-18.876 8.35,13.896 C 7.886,14.23 7.364,14.542 6.833,14.8 Z" /></g><g
           transform="translate(1751.9841,2376.0354)"
           id="g266"><path
             id="path268"
             style="fill:#dbdbdb;fill-opacity:1;fill-rule:nonzero;stroke:none"
             d="m 0,0 18.842,-0.909 c 0.025,0.689 -0.023,1.383 -0.119,2.048 L -7.378,33.049 20.351,2.507 c 0.607,-0.22 1.301,-0.349 1.995,-0.421 L 24.211,20.833 23.312,2.019 c 0.699,-0.029 1.377,0.024 2.043,0.149 L 57.294,28.269 26.728,0.488 C 26.494,-0.11 26.359,-0.775 26.293,-1.479 L 45.054,-3.34 26.235,-2.45 c 0,-0.694 0.005,-1.383 0.154,-2.038 L 52.485,-36.427 24.738,-5.885 c -0.623,0.219 -1.283,0.378 -1.99,0.44 l -1.876,-18.762 0.918,18.828 c -0.694,0.025 -1.401,-0.023 -2.043,-0.124 l -31.93,-26.125 30.537,27.743 c 0.192,0.627 0.335,1.321 0.417,1.995 z" /></g><g
           transform="translate(1926.3684,2282.845)"
           id="g270"><path
             id="path272"
             style="fill:#dbdbdb;fill-opacity:1;fill-rule:nonzero;stroke:none"
             d="M 0,0 11.958,4.895 C 11.776,5.326 11.541,5.747 11.292,6.13 L -14.153,18.379 11.9,7.451 c 0.451,0.038 0.914,0.162 1.364,0.32 L 8.991,19.944 13.886,8.01 c 0.44,0.186 0.846,0.412 1.22,0.679 L 27.379,34.145 16.446,8.048 C 16.479,7.608 16.59,7.154 16.752,6.699 L 28.934,10.977 16.996,6.082 C 17.192,5.646 17.398,5.225 17.68,4.852 L 43.131,-7.407 17.063,3.512 C 16.608,3.469 16.153,3.378 15.7,3.207 L 19.967,-8.981 15.083,2.971 C 14.646,2.795 14.221,2.555 13.853,2.307 L 1.599,-23.159 12.522,2.905 c -0.067,0.449 -0.176,0.914 -0.325,1.364 z" /></g><g
           transform="translate(3387.8538,332.9973)"
           id="g274"><path
             id="path276"
             style="fill:#090808;fill-opacity:1;fill-rule:nonzero;stroke:none"
             d="m 0,0 c -3.358,104.1 32.576,179.365 70.366,232.545 31.867,44.892 81.812,60.691 118.646,58.567 -5.244,-3.494 -10.288,-7.418 -15.053,-11.906 -43.438,-40.958 -98.34,-145.832 -56.807,-314.948 41.524,-169.116 109.545,-233.598 165.518,-249.771 4.432,-1.301 9.044,-2.315 13.762,-3.138 -36.911,-13.092 -111.889,1.627 -167.097,39.934 C 60.471,-200.896 3.32,-104.1 0,0" /></g><g
           transform="translate(3460.009,564.2883)"
           id="g278"><path
             id="path280"
             style="fill:#171717;fill-opacity:1;fill-rule:nonzero;stroke:none"
             d="m 0,0 c -49.82,-70.175 -72.71,-145.804 -69.983,-231.224 0.612,-18.775 3.044,-37.647 7.12,-56.252 16.872,-77.074 61.916,-149.506 121.306,-190.724 51.877,-36.02 119.621,-49.82 156.771,-41.925 -2.497,0.564 -5.32,1.196 -5.32,1.196 -42.336,12.25 -120.34,61.189 -167.06,251.36 -1.167,4.861 -2.287,9.646 -3.32,14.373 -42.356,193.385 42.882,285.829 60.777,302.71 3.072,2.889 6.642,5.416 10.163,8.019 C 77.027,57.553 30.509,42.968 0,0 m 116.952,61.992 6.584,-0.363 -5.465,-3.637 C 112.713,54.433 107.746,50.51 103.315,46.317 85.276,29.312 -2.19,-65.706 47.132,-266.518 c 46.183,-188.015 122.55,-236.199 163.987,-248.2 l 20.918,-4.726 -7.042,-2.566 c -35.37,-12.555 -110.062,-0.746 -169.05,40.193 -74.806,51.925 -127.191,152.58 -130.292,250.45 -2.785,86.415 20.365,162.925 70.759,233.893 33.465,47.113 85.859,61.486 120.54,59.466" /></g><g
           transform="translate(3854.9524,66.8919)"
           id="g282"><path
             id="path284"
             style="fill:#090808;fill-opacity:1;fill-rule:nonzero;stroke:none"
             d="m 0,0 c 34.299,7.521 82.473,40.518 74.644,124.187 -7.838,83.629 -53.082,283.378 -84.386,378.359 -31.274,94.988 -81.687,106.414 -121.698,97.639 -40.002,-8.756 -81.038,-40.203 -69.754,-139.575 11.283,-99.352 53.638,-299.743 81.477,-378.999 C -91.86,2.345 -34.289,-7.503 0,0" /></g><g
           transform="translate(3927.3948,190.8577)"
           id="g286"><path
             id="path288"
             style="fill:#171717;fill-opacity:1;fill-rule:nonzero;stroke:none"
             d="m 0,0 c -7.607,81.324 -51.714,279.092 -84.251,377.89 -24.93,75.697 -65.036,108.042 -119.173,96.186 -54.126,-11.857 -77.026,-58.003 -68.04,-137.182 11.723,-103.364 54.318,-301.466 81.39,-378.522 32.844,-93.554 103.363,-83.219 117.163,-80.185 C -59.121,-118.798 9.273,-98.721 0,0 M -80.069,379.269 C -47.455,280.25 -3.263,81.955 4.394,0.411 c 9.588,-102.405 -61.936,-123.353 -76.358,-126.501 -14.44,-3.186 -88.166,-14.03 -122.243,83.017 -27.141,77.276 -69.869,275.877 -81.602,379.469 -11.569,101.879 32.47,133.421 71.457,141.977 38.987,8.535 92.185,-1.723 124.283,-99.104" /></g><g
           transform="translate(3561.8127,612.2034)"
           id="g290"><path
             id="path292"
             style="fill:#090808;fill-opacity:1;fill-rule:nonzero;stroke:none"
             d="M 0,0 C 36.509,34.433 89.371,37.543 121.038,34.873 99.133,15.14 84.673,-20.66 91.945,-84.701 c 11.284,-99.353 53.639,-299.743 81.478,-378.999 18.134,-51.543 48.805,-73.727 77.475,-80.865 -24.144,-18.872 -93.141,-34.374 -142.187,-20.154 -55.973,16.173 -123.994,80.655 -165.518,249.771 C -98.34,-145.832 -43.438,-40.958 0,0" /></g><g
           transform="translate(3563.3245,610.6057)"
           id="g294"><path
             id="path296"
             style="fill:#171717;fill-opacity:1;fill-rule:nonzero;stroke:none"
             d="m 0,0 v 0 c -18.039,-17.005 -105.506,-112.023 -56.184,-312.835 46.184,-188.016 122.55,-236.199 163.988,-248.2 48.058,-13.896 111.142,0.756 136.425,17.35 -24.479,7.426 -55.638,27.523 -74.366,80.864 -12.843,36.547 -29.159,100.272 -44.05,168.226 -16.584,75.706 -31.389,156.666 -37.551,211.243 C 82.08,-29.016 91.104,10.47 114.731,34.537 89.563,36.097 36.729,34.643 0,0 m 119.718,38.661 5.052,-0.439 -3.761,-3.378 C 95.88,12.211 86.31,-27.389 92.606,-82.854 c 11.723,-103.364 54.319,-301.466 81.39,-378.522 19.265,-54.834 51.927,-73.495 75.917,-79.467 l 4.374,-1.091 -3.531,-2.775 c -23.179,-18.087 -92.453,-35.504 -144.178,-20.537 -42.336,12.25 -120.34,61.188 -167.059,251.359 -49.877,203.185 39.122,299.782 57.457,317.083 40.231,37.935 99.248,37.437 122.742,35.465" /></g><g
           transform="translate(4167.854,503.8264)"
           id="g298"><path
             id="path300"
             style="fill:#090808;fill-opacity:1;fill-rule:nonzero;stroke:none"
             d="m 0,0 c -40.489,95.966 -104.578,149.317 -161.116,181.863 -47.714,27.447 -99.698,20.92 -132.264,3.599 6.211,-0.977 12.432,-2.441 18.642,-4.526 56.596,-19.054 150.284,-91.382 183.242,-262.374 32.968,-170.992 -1.905,-257.999 -45.973,-296.097 -3.493,-3.034 -7.245,-5.886 -11.178,-8.584 39.006,3.521 100.961,48.231 135.096,106.099 C 29.035,-207.797 40.499,-95.965 0,0" /></g><g
           transform="translate(4005.637,683.7756)"
           id="g302"><path
             id="path304"
             style="fill:#171717;fill-opacity:1;fill-rule:nonzero;stroke:none"
             d="m 0,0 c -45.686,26.298 -94.051,20.097 -124.388,6.106 4.259,-0.899 8.575,-1.704 12.557,-3.043 23.331,-7.848 139.383,-56.212 181.748,-249.598 1.033,-4.728 2.01,-9.531 2.967,-14.441 37.055,-192.275 -13.33,-269.34 -46.672,-298.183 0,0 -2.028,-1.531 -4.335,-3.311 37.044,8.364 92.817,49.226 124.895,103.62 36.718,62.271 47.351,146.896 30.469,223.981 -4.066,18.613 -9.741,36.757 -17.052,54.068 v -0.009 C 126.972,-102.051 74.568,-42.91 0,0 M 2.183,3.81 C 77.63,-39.6 130.618,-99.438 164.237,-179.106 202.296,-269.33 196.802,-382.655 150.552,-461.089 114.091,-522.937 51.15,-564.882 13.743,-568.27 l -7.532,-0.669 17.13,13.11 c 32.614,28.212 81.86,103.918 45.237,294.02 -39.141,203.042 -158.312,252.814 -181.807,260.708 -5.79,1.962 -11.952,3.436 -18.278,4.451 l -6.508,1.014 5.829,3.081 c 30.68,16.326 84.309,25.178 134.369,-3.635" /></g><g
           transform="translate(3893.1165,684.762)"
           id="g306"><path
             id="path308"
             style="fill:#090808;fill-opacity:1;fill-rule:nonzero;stroke:none"
             d="m 0,0 c -47.553,16.029 -96.884,-3.264 -124.54,-18.919 28.144,-8.757 56.26,-35.237 76.414,-96.454 31.293,-94.98 76.528,-294.729 84.366,-378.377 5.111,-54.395 -13.492,-87.363 -36.565,-105.861 29.819,-7.043 98.999,7.732 137.594,41.14 44.068,38.098 78.94,125.106 45.972,296.097 C 150.283,-91.382 56.596,-19.054 0,0" /></g><g
           transform="translate(4028.9778,127.9465)"
           id="g310"><path
             id="path312"
             style="fill:#171717;fill-opacity:1;fill-rule:nonzero;stroke:none"
             d="m 0,0 c 32.614,28.212 81.861,103.918 45.237,294.021 -39.141,203.041 -158.312,252.813 -181.806,260.708 -47.829,16.125 -96.463,-4.631 -118.656,-16.565 31.513,-11.991 56.222,-44.117 73.324,-96.032 17.187,-52.174 37.589,-131.919 54.174,-207.615 14.88,-67.946 26.69,-132.656 30.298,-171.242 5.283,-56.289 -14.633,-87.563 -33.791,-104.54 C -101.305,-45.781 -37.849,-32.729 0,0 m -135.172,558.892 v 0 C -111.276,550.854 9.953,500.287 49.543,294.854 86.598,102.578 36.213,25.513 2.871,-3.33 c -40.738,-35.197 -110.98,-48.346 -139.565,-41.6 l -4.382,1.043 3.52,2.824 c 19.312,15.455 41.18,46.04 35.753,103.927 -7.617,81.314 -51.723,279.101 -84.27,377.899 -17.456,53.007 -42.692,84.989 -74.98,95.047 l -4.842,1.512 4.421,2.489 c 20.528,11.617 73.917,36.737 126.302,19.081" /></g><g
           transform="translate(3902.1311,480.2278)"
           id="g314"><path
             id="path316"
             style="fill:#ff6600;fill-opacity:1;fill-rule:nonzero;stroke:none"
             d="M 0,0 66.366,81.324 30.547,-102.855 -84.367,-5.109 Z" /></g><g
           transform="translate(3958.9856,546.5276)"
           id="g318"><path
             id="path320"
             style="fill:#be4d00;fill-opacity:1;fill-rule:nonzero;stroke:none"
             d="m 0,0 -66.357,-81.324 -59.323,-3.311 -15.542,13.226 84.368,5.109 66.366,81.324 -35.82,-184.179 -6.45,5.493 z" /></g><g
           transform="translate(3628.2356,420.2454)"
           id="g322"><path
             id="path324"
             style="fill:#ff6600;fill-opacity:1;fill-rule:nonzero;stroke:none"
             d="M 0,0 -94.281,46.145 15.235,-106.215 78.788,30.623 Z" /></g><g
           transform="translate(3565.3049,451.0403)"
           id="g326"><path
             id="path328"
             style="fill:#be4d00;fill-opacity:1;fill-rule:nonzero;stroke:none"
             d="M 0,0 86.147,-119.832 78.166,-137.01 -31.351,15.35 Z" /></g><g
           transform="translate(3783.2268,388.7229)"
           id="g330"><path
             id="path332"
             style="fill:#ff6600;fill-opacity:1;fill-rule:nonzero;stroke:none"
             d="M 0,0 67.554,-82.741 -33.437,-103.517 Z" /></g><g
           transform="translate(3840.3586,318.7581)"
           id="g334"><path
             id="path336"
             style="fill:#be4d00;fill-opacity:1;fill-rule:nonzero;stroke:none"
             d="m 0,0 10.422,-12.776 -100.99,-20.776 5.158,15.972 z" /></g><g
           transform="translate(3964.679,553.4075)"
           id="g338"><path
             id="path340"
             style="fill:#171717;fill-opacity:1;fill-rule:nonzero;stroke:none"
             d="m 0,0 c -9.282,-11.378 -61.447,-75.323 -61.447,-75.323 0,0 -70.376,-4.259 -79.907,-4.842 7.531,-6.384 102.692,-87.314 107.927,-91.774 C -32.136,-165.202 -2.967,-15.254 0,0 m -30.556,-180.141 -121.937,103.698 c 0,0 86.989,5.283 88.854,5.387 1.205,1.465 71.285,87.373 71.285,87.373 z" /></g><g
           transform="translate(3540.8362,460.5813)"
           id="g342"><path
             id="path344"
             style="fill:#171717;fill-opacity:1;fill-rule:nonzero;stroke:none"
             d="m 0,0 c 9.071,-12.622 98.232,-136.646 102.223,-142.226 2.91,6.23 55.513,119.517 59.677,128.484 C 153,-17.196 87.285,-42.739 87.285,-42.739 87.285,-42.739 13.187,-6.46 0,0 m 87.506,-37.954 c 1.751,0.681 82.959,32.241 82.959,32.241 L 103.036,-150.886 -13.753,11.617 c 0,0 99.565,-48.738 101.259,-49.571" /></g><g
           transform="translate(3784.0979,384.2151)"
           id="g346"><path
             id="path348"
             style="fill:#171717;fill-opacity:1;fill-rule:nonzero;stroke:none"
             d="m 0,0 c -2.23,-6.862 -28.977,-89.679 -31.054,-96.091 6.594,1.36 87.391,17.973 93.745,19.294 C 58.576,-71.773 4.536,-5.589 0,0 M 70.692,-79.649 -37.532,-101.908 -1.703,9.004 Z" /></g><g
           transform="translate(3546.5012,268.8997)"
           id="g350"><path
             id="path352"
             style="fill:#171717;fill-opacity:1;fill-rule:nonzero;stroke:none"
             d="m 0,0 c 27.771,-57.945 100.128,-134.905 209.931,-145.891 -1.665,7.695 -5.923,27.599 -5.923,27.599 l 46.508,9.953 c 0,0 6.68,-31.226 8.144,-38.068 13.34,1.061 26.747,2.909 39.848,5.722 13.121,2.804 26.088,6.603 38.7,11.101 -1.464,6.842 -8.144,38.067 -8.144,38.067 l 46.49,9.955 c 0,0 4.258,-19.907 5.905,-27.6 95.678,54.977 130.168,154.809 131.804,219.061 -14.594,-25.982 -43.331,-64.433 -96.961,-98.904 1.196,-5.569 7.484,-34.968 7.484,-34.968 l -46.509,-9.952 c 0,0 -3.197,14.928 -4.516,21.111 -22.327,-10.451 -46.405,-19.177 -71.775,-25.906 1.465,-6.746 7.436,-34.651 7.436,-34.651 l -46.518,-9.953 c 0,0 -5.971,27.905 -7.407,34.642 -25.914,-4.239 -51.429,-6.133 -76.089,-5.752 1.321,-6.171 4.527,-21.11 4.527,-21.11 l -46.509,-9.952 c 0,0 -6.297,29.388 -7.484,34.976 C 65.887,-41.025 23.962,-17.733 0,0 m 520.746,126.032 c 4.556,-65.762 -28.9,-185.738 -139.833,-246.697 l -4.297,-2.355 c 0,0 -5.062,23.648 -6.488,30.318 -5.474,-1.178 -26.068,-5.589 -31.551,-6.757 1.55,-7.282 7.952,-37.169 7.952,-37.169 l -3.215,-1.186 c -13.867,-5.129 -28.241,-9.312 -42.767,-12.421 -14.509,-3.101 -29.341,-5.178 -44.088,-6.173 l -3.426,-0.238 c 0,0 -6.402,29.894 -7.962,37.167 -5.465,-1.166 -26.087,-5.588 -31.551,-6.755 1.434,-6.661 6.497,-30.318 6.497,-30.318 l -4.88,0.383 C 88.97,-145.968 9.311,-50.213 -13.456,11.656 l -5.54,15.043 11.033,-9.522 C 12.096,-0.144 56.931,-30.805 131.976,-41.457 l 2.938,-0.41 c 0,0 5.454,-25.456 6.947,-32.49 5.465,1.158 26.077,5.58 31.552,6.747 -1.254,5.837 -4.89,22.852 -4.89,22.852 l 4.66,-0.134 c 26.824,-0.717 54.826,1.378 83.19,6.258 l 3.655,0.622 c 0,0 5.799,-27.1 7.311,-34.173 5.466,1.167 26.078,5.588 31.561,6.757 -1.512,7.062 -7.32,34.173 -7.32,34.173 l 3.569,0.928 c 27.896,7.168 54.289,16.719 78.463,28.365 l 4.21,2.02 c 0,0 3.646,-17.016 4.901,-22.844 5.464,1.168 26.077,5.589 31.541,6.757 -1.512,7.024 -6.948,32.499 -6.948,32.499 l 2.488,1.568 c 64.108,40.433 92.482,86.77 103.678,110.799 l 6.164,13.187 z" /></g><g
           transform="translate(3678.429,222.6389)"
           id="g354"><path
             id="path356"
             style="fill:#ff6600;fill-opacity:1;fill-rule:nonzero;stroke:none"
             d="m 0,0 7.206,-33.657 39.035,8.345 -4.679,21.858 c 25.866,-0.708 53.838,1.139 83.792,6.277 l 7.35,-34.317 39.025,8.355 -7.349,34.327 c 29.427,7.559 55.714,17.339 79.008,28.575 l 4.688,-21.858 39.026,8.365 -7.206,33.666 c 55.045,34.718 88.663,77.304 105.056,112.425 4.623,-66.453 -29.656,-182.859 -137.813,-242.297 l -6.23,29.064 -39.035,-8.364 8.066,-37.667 c -13.234,-4.9 -27.292,-9.072 -42.336,-12.296 -15.043,-3.216 -29.588,-5.178 -43.666,-6.116 l -8.078,37.667 -39.014,-8.354 6.211,-29.064 C -39.954,-95.133 -118.885,-2.956 -141.881,59.553 -112.568,34.222 -64.442,9.139 0,0" /></g><g
           transform="translate(3885.6047,148.6936)"
           id="g358"><path
             id="path360"
             style="fill:#be4d00;fill-opacity:1;fill-rule:nonzero;stroke:none"
             d="m 0,0 2.765,-12.958 c -13.235,-4.899 -27.292,-9.071 -42.336,-12.296 -15.044,-3.216 -29.589,-5.178 -43.667,-6.116 l -2.776,12.948 c 14.078,1.006 28.615,2.968 43.658,6.193 C -27.332,-9.015 -13.255,-4.861 0,0 m -127.814,-18.297 -6.21,29.054 39.456,8.46 2.795,-13.026 -38.557,-8.248 6.211,-29.064 c -118.848,9.589 -196.534,95.966 -222.402,158.179 30.633,-60.681 106.397,-136.627 218.707,-145.355 M 38.097,17.226 C 136.961,71.16 175.001,171.472 178.102,239.358 179.968,172.006 144.445,61.419 39.963,4.01 l -6.23,29.063 -38.546,-8.259 -2.786,13.025 39.475,8.45 z" /></g><g
           transform="translate(4420.7446,1282.0569)"
           id="g362"><path
             id="path364"
             style="fill:#080808;fill-opacity:1;fill-rule:nonzero;stroke:none"
             d="m 0,0 c -10.633,6.383 6.382,24.814 -12.059,30.489 -4.249,56.022 -59.543,77.285 -94.989,107.067 -16.326,14.88 -36.164,25.522 -51.063,37.57 -2.125,81.534 -29.772,146.762 -29.064,229.712 -19.857,17.015 -45.37,26.948 -59.553,49.629 -5.674,28.364 3.55,62.404 -2.125,93.592 -28.364,38.288 -68.078,59.551 -103.524,86.5 -4.958,35.446 7.808,65.228 8.507,97.133 -35.446,34.739 -68.759,63.811 -107.047,90.051 9.924,63.084 26.938,123.354 43.944,183.625 l 15.608,25.522 c 42.538,18.431 76.578,56.011 119.106,75.151 -2.125,63.811 13.474,125.498 -2.125,188.6 h -4.957 c -29.781,11.34 -12.058,-23.408 -21.982,-34.039 h -15.608 c -2.823,15.608 -0.698,27.647 -1.407,44.671 -10.632,52.472 -0.717,111.306 -3.55,164.476 l 24.116,25.531 c -24.116,60.979 -43.246,126.206 -49.63,192.859 h 12.039 c 0.717,27.637 -19.837,51.744 -21.972,81.534 -8.067,16.125 -0.268,29.399 0.268,43.533 -4.143,-4.785 -8.421,-9.464 -12.871,-13.981 0.22,-0.153 0.335,-0.364 0.555,-0.497 -3.551,-38.29 -15.599,-72.319 -25.531,-107.766 l 12.056,-6.383 c -3.549,-38.987 -12.056,-79.399 -25.522,-115.564 3.542,-35.446 -67.351,-73.026 -4.966,-99.266 l 8.508,-133.987 c -6.384,-4.259 -14.183,-7.091 -20.567,-3.55 2.125,7.799 -4.249,12.757 -2.124,20.557 -2.832,9.225 -15.588,3.55 -23.388,4.976 -13.475,-7.8 -2.135,-22.7 -10.632,-34.041 -3.551,0.709 -8.518,-1.416 -11.35,1.426 -2.124,7.79 3.541,12.039 1.416,19.13 1.416,16.308 -18.431,10.633 -29.072,12.059 l -6.384,-31.189 h -5.655 c -0.728,47.495 1.406,97.841 5.655,144.619 l 48.931,44.671 3.54,97.133 c -3.54,10.641 -16.307,7.8 -25.532,8.507 -15.589,-4.249 3.551,-31.896 -17.005,-29.063 -5.675,4.259 -23.398,-3.551 -17.015,12.048 -1.426,12.059 -9.224,19.149 -21.981,18.441 -14.891,1.417 -14.173,-18.441 -13.475,-26.939 h -19.139 c -7.799,1.407 -6.374,10.633 -6.374,17.006 0.699,14.89 -16.316,12.756 -27.657,13.474 -7.091,-6.393 -7.091,-16.307 -6.383,-25.522 -4.257,-9.217 -18.43,-3.551 -27.646,-4.958 -8.518,5.675 -4.269,21.982 -9.924,28.356 -10.651,3.54 -26.24,3.54 -30.489,-6.374 2.124,-23.408 2.124,-42.547 -2.125,-66.654 h -80.127 c -20.556,-4.249 -14.163,-31.187 -30.488,-40.412 -4.249,43.963 -4.249,87.907 -6.374,129.038 13.464,7.79 32.613,4.967 43.962,15.599 l -21.991,70.902 c -6.373,25.513 -21.971,48.203 -21.971,73.726 -8.508,4.956 -16.307,-4.249 -24.117,1.425 -10.63,-1.425 -5.655,-13.474 -7.081,-20.556 -18.431,-12.775 -7.082,17.714 -19.857,20.556 -6.374,33.321 -9.924,70.185 -10.633,103.507 l 3.082,1.434 c -0.861,2.355 -1.646,4.728 -2.449,7.102 -0.671,-0.479 -1.378,-0.958 -2.049,-1.436 -1.004,5.551 -1.809,11.158 -2.698,16.747 -6.871,24.642 -10.632,50.49 -10.632,77.094 0,5.273 0.163,10.507 0.45,15.714 -2.919,39.628 -4.747,79.466 -7.675,118.74 5.665,7.082 10.641,14.882 8.497,25.514 -1.406,7.1 -9.914,14.181 -18.43,13.483 -9.207,-6.383 -10.633,-14.9 -12.059,-24.115 0,-8.508 7.101,-12.059 13.485,-17.015 -30.49,-120.531 -43.256,-248.144 -92.167,-360.875 -17.733,-4.259 -4.259,12.757 -13.484,19.139 -8.507,0 -18.43,5.675 -25.512,-3.531 -6.383,-50.346 -29.781,-95.018 -47.514,-141.105 v -10.633 c 22.699,-1.416 53.188,4.259 75.15,-4.957 v -93.591 c -7.081,-4.968 -12.756,-17.016 -22.679,-9.924 v 3.55 c 1.416,19.838 -16.307,13.455 -30.489,14.88 -19.857,4.25 -2.833,-19.148 -14.882,-23.407 -12.765,-6.373 -16.307,4.259 -19.159,13.484 -14.88,0.708 -30.469,6.383 -42.527,-4.957 l -6.373,-102.11 c -9.934,9.225 -14.183,29.782 -29.083,31.906 -26.23,-31.187 -56.002,-67.351 -87.209,-93.582 v -9.934 c 5.675,-4.956 17.024,2.843 19.149,-7.081 l -4.967,-97.142 c 30.49,-26.232 55.314,-61.678 77.994,-94.99 2.133,-29.082 -3.541,-60.978 -1.416,-90.051 47.504,-11.341 76.577,-56.71 116.98,-85.075 -8.507,-44.672 -12.059,-91.468 -26.939,-132.58 -38.996,-60.27 -104.922,-56.728 -153.144,-90.758 -11.35,-51.046 -56.72,-87.918 -76.577,-136.13 -9.206,-23.388 -10.633,-49.628 -24.098,-70.902 -8.516,-29.771 -42.537,-40.404 -65.934,-54.587 -8.508,-19.148 -27.648,-28.364 -41.131,-42.537 -19.13,-38.288 -20.556,-83.668 -35.446,-122.655 -12.767,-11.35 -29.772,-17.731 -37.581,-32.613 -21.982,-55.313 -7.082,-126.923 -59.552,-170.169 -12.048,-13.474 -9.924,-33.312 -25.532,-45.37 -24.087,-14.881 -59.543,-22.69 -59.543,-58.146 -2.134,-12.058 17.014,-9.924 9.923,-21.982 -17.732,0.719 -38.288,-0.707 -56.002,-4.956 -3.549,-7.8 -1.425,-17.016 4.948,-22.691 172.294,1.426 352.377,-8.506 512.613,-4.966 l 1057.82,-1.408 c 53.178,-4.257 105.649,7.082 158.819,3.552 l 1.416,6.372 C 47.504,9.933 15.607,0 0,0" /></g><g
           transform="translate(4064.8254,2707.8611)"
           id="g366"><path
             id="path368"
             style="fill:#ff6600;fill-opacity:1;fill-rule:nonzero;stroke:none"
             d="m 0,0 -23.396,4.957 v 42.538 c 6.381,8.507 13.482,-1.407 17.014,-6.384 C -2.123,28.354 2.125,15.599 0,0" /></g><g
           transform="translate(3823.0657,2266.8684)"
           id="g370"><path
             id="path372"
             style="fill:#ff6600;fill-opacity:1;fill-rule:nonzero;stroke:none"
             d="m 0,0 c -11.35,0.698 -22.689,19.13 -38.996,17.006 -19.149,-45.371 -24.823,-97.841 -34.03,-147.461 12.756,-6.392 26.231,-8.517 38.987,-14.182 -26.939,-4.249 -56.002,-4.249 -85.075,-6.393 2.125,19.858 3.541,37.591 5.665,59.562 19.159,39.696 11.349,103.507 68.06,115.565 C -24.814,29.762 -8.507,16.307 0,0" /></g><g
           transform="translate(3884.7434,1308.9954)"
           id="g374"><path
             id="path376"
             style="fill:#171717;fill-opacity:1;fill-rule:nonzero;stroke:none"
             d="m 0,0 c 24.106,-10.632 55.303,9.226 73.025,-17.006 50.347,-25.522 87.21,45.37 134.714,7.092 57.419,0 114.856,1.406 166.619,-13.474 l -641.651,1.426 -25.531,1.406 c 21.282,24.107 58.145,17.025 86.51,25.533 63.102,2.124 124.78,3.54 187.174,5.674 z" /></g><g
           transform="translate(3522.4426,1287.0334)"
           id="g378"><path
             id="path380"
             style="fill:#171717;fill-opacity:1;fill-rule:nonzero;stroke:none"
             d="m 0,0 c -83.659,0.698 -161.643,-1.426 -243.885,1.406 29.772,21.283 75.859,8.518 109.181,24.107 C -80.817,43.245 -51.046,-5.675 0,0" /></g><g
           transform="translate(3011.9739,1299.0813)"
           id="g382"><path
             id="path384"
             style="fill:#171717;fill-opacity:1;fill-rule:nonzero;stroke:none"
             d="m 0,0 9.924,-8.518 -3.541,-3.53 -192.141,3.53 4.956,9.924 C -123.373,-17.024 -60.271,0 0,0" /></g><g
           transform="translate(3115.4895,1288.4397)"
           id="g386"><path
             id="path388"
             style="fill:#171717;fill-opacity:1;fill-rule:nonzero;stroke:none"
             d="M 0,0 H -42.537 C -29.083,2.843 -12.059,10.642 0,0" /></g><g
           transform="translate(1290.1008,997.8362)"
           id="g390"><path
             id="path392"
             style="fill:#090808;fill-opacity:1;fill-rule:nonzero;stroke:none"
             d="m 0,0 -61.323,61.331 -57.38,8.9 -161.231,32.643 L -402.599,170.13 -639,274 l -36.604,64.289 -41.542,34.623 20.766,303.687 48.471,78.136 179.04,-7.914 58.366,-55.388 97.926,-14.834 82.1,-103.87 -57.371,97.936 123.65,-4.956 -115.736,21.762 -87.046,14.841 75.18,49.458 -104.855,-43.524 -35.61,52.433 88.033,82.089 104.855,-16.804 -103.87,29.665 -29.667,55.399 19.782,-58.365 -90.024,-68.252 -156.282,23.743 25.723,72.203 124.627,20.777 125.631,67.265 -73.198,-25.723 8.899,106.837 -28.681,-112.77 -32.651,-15.829 2.966,61.333 -19.78,-63.305 -95.947,-14.842 -55.399,78.147 34.623,-90.013 -46.489,-54.404 4.947,63.304 -20.775,-72.204 -39.562,-31.658 -11.876,55.391 -0.986,42.537 38.576,96.942 -52.422,-93.975 -54.405,146.398 24.728,-114.742 -98.922,67.267 -10.88,52.423 -2.968,-52.423 -69.237,33.627 170.131,-132.55 15.829,-63.304 -62.318,7.905 62.318,-37.59 16.814,-43.514 -43.524,-44.508 -106.827,26.699 -5.933,70.233 -17.808,-61.333 -59.352,181.02 24.727,48.472 -31.646,-33.628 -82.099,63.303 70.232,-76.165 54.394,-183.987 -55.389,42.537 -84.08,174.092 61.333,-155.297 -56.385,-12.862 59.351,-3.962 69.237,-67.257 127.603,-51.446 -37.58,-382.8 -11.877,61.324 -31.647,29.675 -115.736,261.14 25.714,88.041 -43.523,-82.107 29.675,-77.153 -91.994,74.185 73.2,-81.112 -100.894,2.975 -2.795,1.177 c -0.602,-6.814 -1.492,-13.55 -2.655,-20.201 l 128.106,-4.719 49.455,-138.482 -141.45,51.436 -15.206,9.819 -17.675,-0.507 c 0.258,-4.498 0.411,-9.025 0.411,-13.579 0,-1.025 -0.066,-2.03 -0.081,-3.054 l 9.804,-0.593 -10.02,-7.827 c -0.249,-5.14 -0.679,-10.232 -1.248,-15.283 l 28.082,14.211 156.293,-76.175 30.661,-117.709 -214.649,61.333 -3.741,-696.562 H 107.468 l 6.287,336.501 z" /></g><g
           transform="translate(1252.5115,1545.8362)"
           id="g394"><path
             id="path396"
             style="fill:#090808;fill-opacity:1;fill-rule:evenodd;stroke:none"
             d="M 0,0 -14.833,2.968 H -29.667 L -44.509,0.996 -59.352,-1.98 -75.18,-5.933 l -12.862,-4.947 -14.833,-8.909 -11.866,-8.9 -13.848,-10.872 -10.881,-11.876 -11.866,-14.842 -8.91,-14.833 -8.9,-17.8 -7.914,-19.79 -6.928,-19.78 -4.938,-21.762 -51.447,-263.12 230.477,-48.471 68.251,-63.313 72.214,316.538 3.962,25.722 3.952,23.743 v 21.752 l -3.952,21.772 -3.962,17.8 -5.933,17.809 -7.905,14.833 -8.909,13.857 -11.876,12.851 -10.872,10.882 -12.861,8.9 -13.858,7.914 -12.852,6.927 -15.828,5.934 -14.843,4.948 z" /></g><g
           transform="translate(1284.1672,1551.7698)"
           id="g398"><path
             id="path400"
             style="fill:#121212;fill-opacity:1;fill-rule:evenodd;stroke:none"
             d="m 0,0 17.8,-4.937 17.809,-5.944 17.809,-6.919 18.796,-8.909 15.828,-9.886 14.833,-11.866 15.828,-12.861 12.862,-13.858 11.867,-16.813 10.88,-14.834 8.9,-17.809 5.944,-17.801 4.937,-17.807 2.967,-19.781 v -20.777 l -2.967,-20.775 -74.185,-352.148 -53.418,29.676 73.199,334.348 4.948,41.542 -1.982,39.57 -8.9,32.644 -14.841,28.689 -20.768,23.734 -24.728,19.79 -24.727,12.851 z" /></g><g
           transform="translate(4950.6685,406.1292)"
           id="g402"><path
             id="path404"
             style="fill:#080808;fill-opacity:1;fill-rule:nonzero;stroke:none"
             d="m 0,0 c 4.028,124.914 -39.092,215.233 -84.444,279.054 -38.241,53.858 -98.166,72.825 -142.368,70.28 6.287,-4.192 12.344,-8.899 18.058,-14.287 52.126,-49.151 118.013,-175.012 68.174,-377.938 -49.83,-202.936 -131.459,-280.317 -198.629,-299.734 -5.312,-1.56 -10.852,-2.774 -16.508,-3.752 44.288,-15.723 134.264,1.943 200.515,47.916 C -72.568,-241.09 -3.98,-124.923 0,0" /></g><g
           transform="translate(4731.5405,752.717)"
           id="g406"><path
             id="path408"
             style="fill:#171717;fill-opacity:1;fill-rule:nonzero;stroke:none"
             d="m 0,0 c 4.22,-3.131 8.507,-6.163 12.191,-9.627 21.475,-20.26 123.756,-131.192 72.932,-363.249 -1.235,-5.685 -2.585,-11.416 -3.98,-17.245 -56.07,-228.199 -149.672,-286.939 -200.478,-301.638 0,0 -3.388,-0.756 -6.383,-1.435 44.586,-9.474 125.871,7.082 188.131,50.308 71.267,49.466 125.316,136.378 145.566,228.879 4.889,22.318 7.809,44.969 8.545,67.495 C 219.798,-244 192.323,-153.25 132.541,-69.046 95.927,-17.484 40.107,0.019 0,0 m 136.847,-66.003 c 60.471,-85.161 88.253,-176.982 84.913,-280.68 -3.723,-117.44 -66.587,-238.239 -156.351,-300.538 -70.787,-49.132 -160.417,-63.295 -202.859,-48.232 l -8.45,3.082 25.101,5.665 c 49.725,14.394 141.364,72.223 196.782,297.849 59.189,240.965 -45.771,354.989 -67.419,375.401 -5.321,5.024 -11.283,9.732 -17.712,14 L -15.704,4.909 -7.8,5.358 C 33.819,7.771 96.692,-9.475 136.847,-66.003" /></g><g
           transform="translate(4390.1499,86.8069)"
           id="g410"><path
             id="path412"
             style="fill:#080808;fill-opacity:1;fill-rule:nonzero;stroke:none"
             d="m 0,0 c -41.159,9.015 -98.971,48.613 -89.572,149.02 9.406,100.347 63.695,340.05 101.265,454.026 37.525,113.985 98.024,127.698 146.036,117.172 48,-10.508 97.247,-48.251 83.706,-167.489 C 227.893,433.499 177.068,193.03 143.66,97.926 110.233,2.804 41.149,-9.015 0,0" /></g><g
           transform="translate(4390.7144,89.3811)"
           id="g414"><path
             id="path416"
             style="fill:#171717;fill-opacity:1;fill-rule:nonzero;stroke:none"
             d="m 0,0 c 16.556,-3.637 101.181,-16.039 140.589,96.233 32.489,92.454 83.6,330.184 97.669,454.218 10.785,95.008 -16.69,150.398 -81.649,164.618 C 91.648,729.299 43.522,690.475 13.608,599.649 -25.437,481.08 -78.367,243.77 -87.496,146.178 -98.625,27.714 -16.547,3.627 0,0 M 157.729,720.218 C 204.515,709.959 257.358,672.101 243.473,549.857 229.396,425.537 178.122,187.213 145.556,94.491 104.664,-21.973 16.192,-8.958 -1.139,-5.139 -18.44,-1.35 -104.271,23.79 -92.77,146.676 -83.582,244.525 -30.547,482.477 8.584,601.295 47.102,718.15 110.941,730.468 157.729,720.218" /></g><g
           transform="translate(4741.9146,741.176)"
           id="g418"><path
             id="path420"
             style="fill:#080808;fill-opacity:1;fill-rule:nonzero;stroke:none"
             d="m 0,0 c -43.811,41.313 -107.239,45.044 -145.24,41.849 26.288,-23.686 43.637,-66.635 34.91,-143.49 -13.542,-119.229 -64.366,-359.698 -97.774,-454.802 -21.762,-61.849 -58.567,-88.472 -92.97,-97.046 28.968,-22.632 111.764,-41.246 170.619,-24.183 67.17,19.417 148.799,96.798 198.629,299.735 C 118.013,-175.012 52.126,-49.151 0,0" /></g><g
           transform="translate(4602.4253,780.6985)"
           id="g422"><path
             id="path424"
             style="fill:#171717;fill-opacity:1;fill-rule:nonzero;stroke:none"
             d="m 0,0 c 28.355,-28.872 39.179,-76.271 31.762,-141.46 -7.398,-65.495 -25.158,-162.646 -45.064,-253.493 -17.867,-81.553 -37.446,-158.016 -52.853,-201.873 -22.48,-64.013 -59.869,-88.128 -89.238,-97.037 30.336,-19.914 106.033,-37.504 163.709,-20.824 49.725,14.393 141.365,72.222 196.783,297.848 C 264.287,-175.873 159.327,-61.85 137.68,-41.438 93.603,0.134 30.202,1.876 0,0 m 141.307,-37.608 v 0 C 163.308,-58.376 270.106,-174.284 210.258,-418.103 154.188,-646.302 60.586,-705.041 9.78,-719.74 c -62.068,-17.952 -145.192,2.948 -173.01,24.651 l -4.24,3.321 5.254,1.312 c 28.785,7.177 67.984,29.56 91.094,95.372 32.489,92.453 83.601,330.184 97.669,454.218 7.56,66.548 -3.924,114.071 -34.078,141.239 l -4.517,4.048 6.067,0.526 C 22.212,7.32 93.028,7.904 141.307,-37.608" /></g><g
           transform="translate(4014.6711,611.1135)"
           id="g426"><path
             id="path428"
             style="fill:#080808;fill-opacity:1;fill-rule:nonzero;stroke:none"
             d="m 0,0 c 48.586,115.161 125.488,179.183 193.338,218.237 57.255,32.949 119.631,25.112 158.714,4.316 -7.455,-1.167 -14.92,-2.918 -22.374,-5.426 -67.907,-22.872 -180.332,-109.659 -219.884,-314.854 -39.562,-205.184 2.287,-309.589 55.17,-355.305 4.191,-3.646 8.689,-7.063 13.406,-10.306 -46.804,4.23 -121.152,57.877 -162.11,127.324 C -34.844,-249.359 -48.604,-115.144 0,0" /></g><g
           transform="translate(4017.1018,610.0891)"
           id="g430"><path
             id="path432"
             style="fill:#171717;fill-opacity:1;fill-rule:nonzero;stroke:none"
             d="m 0,0 v 0.01 c -8.775,-20.767 -15.579,-42.557 -20.46,-64.883 -20.259,-92.511 -7.503,-194.056 36.557,-268.785 38.499,-65.266 105.42,-114.291 149.881,-124.34 -2.776,2.144 -5.206,3.98 -5.206,3.98 -40.011,34.615 -100.472,127.087 -56.002,357.813 1.148,5.886 2.316,11.657 3.559,17.341 50.835,232.056 190.094,290.097 218.095,299.513 4.775,1.609 9.952,2.565 15.063,3.656 -36.404,16.785 -94.434,24.22 -149.259,-7.33 C 102.741,165.47 39.858,94.502 0,0 m 350.846,225.913 6.995,-3.714 -7.808,-1.215 c -7.589,-1.206 -14.986,-2.985 -21.934,-5.331 -28.193,-9.482 -171.193,-69.208 -218.161,-312.843 -43.955,-228.132 15.138,-318.988 54.279,-352.836 l 20.556,-15.733 -9.034,0.804 c -44.891,4.076 -120.426,54.404 -164.178,128.627 -55.496,94.108 -62.088,230.095 -16.422,338.376 40.345,95.593 103.928,167.393 194.467,219.501 60.068,34.565 124.425,23.953 161.24,4.364" /></g><g
           transform="translate(4344.3491,828.2405)"
           id="g434"><path
             id="path436"
             style="fill:#080808;fill-opacity:1;fill-rule:nonzero;stroke:none"
             d="M 0,0 C 57.064,19.235 116.263,-3.914 149.45,-22.699 115.679,-33.207 81.936,-64.987 57.753,-138.445 20.201,-252.421 -34.078,-492.123 -43.484,-592.49 c -6.135,-65.285 16.191,-104.847 43.877,-127.039 -35.783,-8.45 -118.799,9.283 -165.107,49.37 -52.883,45.716 -94.732,150.121 -55.17,355.305 C -180.332,-109.659 -67.907,-22.872 0,0" /></g><g
           transform="translate(4338.7788,110.5491)"
           id="g438"><path
             id="path440"
             style="fill:#171717;fill-opacity:1;fill-rule:nonzero;stroke:none"
             d="m 0,0 c -22.986,20.373 -46.882,57.906 -40.547,125.449 4.336,46.289 18.499,123.947 36.357,205.491 19.904,90.836 44.383,186.524 65.015,249.129 20.519,62.309 50.165,100.856 87.985,115.248 C 122.178,709.635 63.821,734.544 6.422,715.193 -21.771,705.711 -164.771,645.985 -211.739,402.35 -255.694,174.218 -196.601,83.362 -157.46,49.514 -112.042,10.24 -35.896,-5.417 0,0 m 156.312,697.289 5.302,-2.995 -5.808,-1.8 C 117.058,680.418 86.779,642.043 65.831,578.423 26.776,459.873 -26.153,222.524 -35.293,124.952 -41.81,55.494 -15.569,18.795 7.608,0.238 l 4.22,-3.387 -5.253,-1.253 c -34.307,-8.087 -118.597,7.694 -167.48,49.924 -40.011,34.615 -100.472,127.087 -56.002,357.813 47.504,246.518 192.983,307.208 221.654,316.854 62.863,21.188 126.933,-8.958 151.565,-22.9" /></g><g
           transform="translate(4333.5347,582.7961)"
           id="g442"><path
             id="path444"
             style="fill:#ff6600;fill-opacity:1;fill-rule:nonzero;stroke:none"
             d="M 0,0 -79.639,97.602 -36.651,-123.431 101.238,-6.134 Z" /></g><g
           transform="translate(4265.312,662.3694)"
           id="g446"><path
             id="path448"
             style="fill:#be4d00;fill-opacity:1;fill-rule:nonzero;stroke:none"
             d="m 0,0 79.63,-97.603 71.181,-3.961 18.65,15.857 -101.238,6.134 -79.639,97.601 42.987,-221.032 7.733,6.594 z" /></g><g
           transform="translate(4662.2075,510.8127)"
           id="g450"><path
             id="path452"
             style="fill:#ff6600;fill-opacity:1;fill-rule:nonzero;stroke:none"
             d="M 0,0 113.144,55.38 -18.277,-127.449 -94.539,36.747 Z" /></g><g
           transform="translate(4775.3511,566.1926)"
           id="g454"><path
             id="path456"
             style="fill:#be4d00;fill-opacity:1;fill-rule:nonzero;stroke:none"
             d="m 0,0 -131.421,-182.829 -9.58,20.612 103.372,143.805 z" /></g><g
           transform="translate(4476.2202,472.9934)"
           id="g458"><path
             id="path460"
             style="fill:#ff6600;fill-opacity:1;fill-rule:nonzero;stroke:none"
             d="m 0,0 -81.065,-99.276 121.19,-24.939 z" /></g><g
           transform="translate(4407.6626,389.0383)"
           id="g462"><path
             id="path464"
             style="fill:#be4d00;fill-opacity:1;fill-rule:nonzero;stroke:none"
             d="m 0,0 -12.508,-15.321 121.191,-24.939 -6.192,19.167 z" /></g><g
           transform="translate(4298.5864,464.2942)"
           id="g466"><path
             id="path468"
             style="fill:#be4d00;fill-opacity:1;fill-rule:nonzero;stroke:none"
             d="m 0,0 c 6.287,5.35 120.483,102.463 129.517,110.128 -11.437,0.699 -95.889,5.81 -95.889,5.81 0,0 -62.596,76.729 -73.734,90.386 C -36.547,188.017 -1.551,8.087 0,0 m -49.284,225.894 c 0,0 84.099,-103.076 85.544,-104.827 2.24,-0.134 106.626,-6.479 106.626,-6.479 L -3.445,-9.847 Z" /></g><g
           transform="translate(4662.3511,507.9417)"
           id="g470"><path
             id="path472"
             style="fill:#be4d00;fill-opacity:1;fill-rule:nonzero;stroke:none"
             d="m 0,0 c 0,0 -78.864,30.643 -89.544,34.796 4.995,-10.757 68.127,-146.705 71.61,-154.178 4.794,6.69 111.785,155.518 122.675,170.666 C 88.913,43.533 0,0 0,0 M 121.239,65.228 -18.91,-129.775 -99.822,44.432 c 0,0 97.448,-37.876 99.554,-38.69 2.029,0.995 121.507,59.486 121.507,59.486" /></g><g
           transform="translate(4399.9487,375.4202)"
           id="g474"><path
             id="path476"
             style="fill:#171717;fill-opacity:1;fill-rule:nonzero;stroke:none"
             d="M 0,0 C 7.617,-1.579 104.579,-21.513 112.493,-23.14 109.995,-15.445 77.898,83.937 75.228,92.166 69.783,85.457 4.938,6.038 0,0 M 77.267,102.979 120.264,-30.126 -9.607,-3.416 Z" /></g><g
           transform="translate(4605.564,268.5833)"
           id="g478"><path
             id="path480"
             style="fill:#171717;fill-opacity:1;fill-rule:nonzero;stroke:none"
             d="m 0,0 c -1.426,-6.708 -8.985,-41.973 -8.985,-41.973 l -55.811,11.943 c 0,0 3.847,17.925 5.436,25.332 -29.6,-0.46 -60.213,1.817 -91.306,6.909 -1.723,-8.096 -8.89,-41.581 -8.89,-41.581 l -55.82,11.953 c 0,0 7.158,33.476 8.919,41.58 -30.441,8.077 -59.332,18.547 -86.128,31.083 -1.588,-7.417 -5.416,-25.331 -5.416,-25.331 l -55.811,11.952 c 0,0 7.541,35.265 8.977,41.954 -64.356,41.37 -98.837,87.506 -116.35,118.684 1.962,-77.103 43.351,-196.898 158.161,-262.871 1.98,9.235 7.09,33.111 7.09,33.111 l 55.783,-11.942 c 0,0 -8.011,-37.467 -9.772,-45.687 15.139,-5.387 30.699,-9.953 46.443,-13.311 15.722,-3.378 31.809,-5.598 47.819,-6.871 1.752,8.211 9.77,45.685 9.77,45.685 l 55.811,-11.942 c 0,0 -5.11,-23.886 -7.11,-33.112 C 34.575,-101.257 121.402,-8.909 154.725,60.624 125.977,39.351 75.658,11.389 0,0 m -468.85,231.052 7.398,-15.819 c 13.436,-28.843 47.485,-84.443 124.416,-132.971 l 2.985,-1.876 c 0,0 -6.526,-30.566 -8.334,-39.006 6.555,-1.397 31.292,-6.698 37.848,-8.096 1.503,6.995 5.876,27.407 5.876,27.407 l 5.053,-2.43 c 29.005,-13.962 60.681,-25.427 94.156,-34.031 l 4.287,-1.109 c 0,0 -6.976,-32.528 -8.785,-41.007 6.575,-1.407 31.312,-6.708 37.868,-8.114 1.817,8.488 8.775,41.015 8.775,41.015 l 4.382,-0.755 c 34.041,-5.848 67.64,-8.364 99.832,-7.504 l 5.59,0.163 c 0,0 -4.365,-20.412 -5.867,-27.417 6.574,-1.407 31.303,-6.709 37.868,-8.106 1.789,8.431 8.335,38.997 8.335,38.997 l 3.521,0.488 c 90.061,12.785 143.862,49.562 167.93,70.366 l 13.235,11.417 -6.641,-18.049 C 143.556,0.374 47.964,-114.54 -103.439,-126.77 l -5.857,-0.459 c 0,0 6.077,28.374 7.8,36.365 -6.556,1.407 -31.303,6.718 -37.858,8.115 -1.875,-8.737 -9.56,-44.595 -9.56,-44.595 l -4.106,0.278 c -17.704,1.196 -35.503,3.684 -52.911,7.416 -17.426,3.722 -34.68,8.747 -51.322,14.9 l -3.856,1.426 c 0,0 7.684,35.857 9.54,44.595 -6.575,1.407 -31.292,6.699 -37.857,8.106 -1.713,-8.001 -7.791,-36.385 -7.791,-36.385 l -5.148,2.842 c -133.124,73.143 -173.27,217.119 -167.805,296.03 z" /></g><g
           transform="translate(4601.9761,273.6936)"
           id="g482"><path
             id="path484"
             style="fill:#ff6600;fill-opacity:1;fill-rule:nonzero;stroke:none"
             d="m 0,0 -8.642,-40.394 -46.843,10.029 5.617,26.221 c -31.044,-0.841 -64.615,1.37 -100.559,7.541 l -8.813,-41.188 -46.835,10.029 8.823,41.179 c -35.311,9.091 -66.863,20.823 -94.807,34.298 l -5.627,-26.231 -46.835,10.039 8.652,40.393 c -66.06,41.667 -106.397,92.77 -126.071,134.915 -5.552,-79.735 35.589,-219.435 165.374,-290.748 l 7.473,34.872 46.844,-10.028 -9.675,-45.218 c 15.876,-5.865 32.748,-10.881 50.797,-14.747 18.058,-3.856 35.513,-6.211 52.403,-7.34 l 9.695,45.198 46.814,-10.019 -7.454,-34.882 C 47.944,-114.157 142.665,-3.55 170.255,71.467 135.087,41.063 77.333,10.977 0,0" /></g><g
           transform="translate(4404.1978,170.2825)"
           id="g486"><path
             id="path488"
             style="fill:#be4d00;fill-opacity:1;fill-rule:nonzero;stroke:none"
             d="m 0,0 c 18.049,-3.865 35.495,-6.22 52.385,-7.426 l -3.33,-15.541 c -16.891,1.129 -34.346,3.485 -52.404,7.34 -18.048,3.866 -34.921,8.882 -50.797,14.747 l 3.312,15.551 C -34.93,8.854 -18.029,3.867 0,0 M 364.99,167.145 C 333.955,92.482 240.727,-11.157 98.109,-22.67 l 7.454,34.882 -46.268,9.894 3.358,15.628 47.342,-10.143 -7.446,-34.872 C 237.32,3.188 328.232,94.339 364.99,167.145 m -454.074,-96.921 47.369,-10.145 -3.34,-15.627 -46.259,9.914 -7.474,-34.872 c -125.373,68.893 -168.006,201.597 -165.767,282.422 3.723,-81.476 49.37,-201.835 168.006,-266.574 z" /></g><g
           transform="translate(3196.8508,3371.2117)"
           id="g490"><path
             id="path492"
             style="fill:#171717;fill-opacity:1;fill-rule:evenodd;stroke:none"
             d="m 0,0 c 2.412,-0.47 23.848,-22.452 23.111,-26.216 -0.927,-4.709 -5.387,-3.666 -8.948,-11.537 l -30.727,13.78 -0.939,19.155 6.326,-1.278 C -3.023,-7.714 -8.133,1.617 0,0 M 28.499,9.33 28.184,7.736 39.39,5.512 C 37.724,2.128 38.069,0.779 33.629,1.66 L 28.72,2.248 8.326,8.344 l 2.22,11.207 c 2.948,0.095 8.364,0.153 8.958,3.215 0.813,4.076 -3.982,8.46 -5.78,12.795 3.597,4.416 10.22,9.593 11.502,16.029 l 2.545,12.813 C 29.111,71.15 8.508,74.883 1.819,76.208 L 1.148,74.5 21.686,67.275 20.412,60.868 C 19.197,54.767 22.03,52.26 21.705,50.628 20.537,44.675 12.508,35.594 7.006,35.235 8.116,45.082 4.269,59.079 -6.162,61.145 l -1.608,0.316 c -5.091,1.01 -12.823,-5.933 -14.068,-12.192 L -24.384,36.46 c -1.358,-6.885 0.155,-9.043 0.355,-15.043 -8.335,4.091 -17.906,24.125 -26.498,32.269 -7.914,7.483 -11.006,3.689 -17.302,13.426 -3.465,5.345 -6.661,13.737 -12.021,16.967 3.129,-10.426 15.944,-29.608 24.404,-36.451 11.521,-9.345 6.795,-2.306 16.479,-15.37 3.521,-4.755 11.579,-13.746 17.187,-16.282 l -0.642,-2.766 -20.374,0.991 6.412,5.258 -11.962,-3.21 c 0.862,-1.867 2.986,-5.584 5.436,-6.077 8.105,-1.603 11.455,0.871 19.867,-0.598 L -24.326,3.167 C -24.842,0.54 -26.239,-1.446 -28.479,-1 c -5.207,1.023 -0.938,1.626 -7.369,4.794 0.995,-2.393 3.761,-7.412 6.737,-7.996 3.656,-0.727 1.971,0.167 6.374,0.325 l -0.441,-11.713 -12.65,11.054 c 2.229,-5.369 12.191,-14.02 11.866,-15.672 -0.919,-4.621 -20.316,-14.282 -21.111,-14.125 -3.656,0.732 -1.761,0.92 -6.832,2.111 l 8.67,-6.924 21.532,13.504 c -2.785,-13.992 1.474,-17.087 -4.249,-26.844 -2.68,-4.584 -9.742,-21.982 -15.216,-20.9 l -4.805,0.961 c -5.876,1.169 -7.254,4.01 -10.258,7.02 0.402,-5.976 6.067,-9.521 12.823,-10.862 13.962,-2.77 16.882,9.613 19.809,24.365 1.005,0.966 4.135,3.474 4.814,4.148 l 0.594,23.068 c 18.613,-8.412 40.25,-35.948 48.24,1.565 L 3.934,2.521 6.412,7.057 c 7.216,-3.263 14.201,-7.814 23.063,-9.57 l 1.608,-0.325 c 4.325,-0.847 4.555,-0.105 8.087,0.124 L 42.911,6.473 28.499,9.33" /></g><path
           id="path494"
           style="fill:#171717;fill-opacity:1;fill-rule:nonzero;stroke:none"
           d="m 3189.808,3431.663 h -4.795 v 337.554 h 4.795 z" /></g></g></g></svg>